<svg width="720" height="240" viewBox="0 0 720 240" fill="none" xmlns="http://www.w3.org/2000/svg">
<rect width="720" height="240" fill="white"/>
<path d="M249.396 73L246.9 61.272H248.42L249.652 67.672C249.892 68.92 250.116 70.184 250.356 71.464H250.42C250.692 70.184 250.98 68.92 251.268 67.672L252.884 61.272H254.228L255.86 67.672C256.148 68.92 256.42 70.184 256.708 71.464H256.788C257.012 70.184 257.236 68.92 257.444 67.672L258.692 61.272H260.116L257.684 73H255.892L254.132 65.928C253.924 65.016 253.732 64.168 253.556 63.256H253.492C253.3 64.168 253.092 65.016 252.9 65.928L251.156 73H249.396ZM262.019 73V60.28H263.475V63.752L263.427 65.544C264.227 64.76 265.107 64.104 266.307 64.104C268.131 64.104 268.963 65.288 268.963 67.496V73H267.491V67.688C267.491 66.056 266.995 65.368 265.843 65.368C264.963 65.368 264.339 65.832 263.475 66.696V73H262.019ZM271.738 73V64.312H273.194V73H271.738ZM272.474 62.52C271.898 62.52 271.498 62.152 271.498 61.544C271.498 60.984 271.898 60.616 272.474 60.616C273.034 60.616 273.45 60.984 273.45 61.544C273.45 62.152 273.034 62.52 272.474 62.52ZM279.552 73.224C277.248 73.224 275.488 71.544 275.488 68.68C275.488 65.768 277.44 64.104 279.664 64.104C280.8 64.104 281.6 64.568 282.208 65.128L281.472 66.088C280.96 65.624 280.416 65.32 279.744 65.32C278.144 65.32 276.992 66.664 276.992 68.68C276.992 70.664 278.096 72.008 279.696 72.008C280.48 72.008 281.2 71.624 281.744 71.144L282.368 72.12C281.6 72.808 280.592 73.224 279.552 73.224ZM284.3 73V60.28H285.756V63.752L285.708 65.544C286.508 64.76 287.388 64.104 288.588 64.104C290.412 64.104 291.244 65.288 291.244 67.496V73H289.772V67.688C289.772 66.056 289.276 65.368 288.124 65.368C287.244 65.368 286.62 65.832 285.756 66.696V73H284.3ZM300.973 73.224C298.829 73.224 296.941 71.544 296.941 68.68C296.941 65.768 298.829 64.104 300.973 64.104C303.101 64.104 304.989 65.768 304.989 68.68C304.989 71.544 303.101 73.224 300.973 73.224ZM300.973 72.008C302.477 72.008 303.485 70.664 303.485 68.68C303.485 66.664 302.477 65.32 300.973 65.32C299.453 65.32 298.445 66.664 298.445 68.68C298.445 70.664 299.453 72.008 300.973 72.008ZM307.3 73V64.312H308.484L308.628 65.576H308.676C309.492 64.76 310.388 64.104 311.588 64.104C313.412 64.104 314.244 65.288 314.244 67.496V73H312.772V67.688C312.772 66.056 312.276 65.368 311.124 65.368C310.244 65.368 309.62 65.832 308.756 66.696V73H307.3ZM320.57 73.224C318.25 73.224 316.41 71.528 316.41 68.68C316.41 65.848 318.314 64.104 320.314 64.104C322.522 64.104 323.77 65.688 323.77 68.184C323.77 68.488 323.754 68.792 323.706 69.016H317.85C317.962 70.856 319.082 72.056 320.746 72.056C321.578 72.056 322.266 71.784 322.906 71.352L323.434 72.328C322.666 72.824 321.754 73.224 320.57 73.224ZM317.834 67.96H322.49C322.49 66.216 321.706 65.272 320.33 65.272C319.114 65.272 318.026 66.248 317.834 67.96ZM329.503 73V64.312H330.687L330.831 65.576H330.879C331.631 64.76 332.543 64.104 333.583 64.104C334.911 64.104 335.631 64.728 335.967 65.752C336.879 64.792 337.791 64.104 338.847 64.104C340.623 64.104 341.487 65.288 341.487 67.496V73H340.031V67.688C340.031 66.056 339.519 65.368 338.399 65.368C337.727 65.368 337.039 65.816 336.223 66.696V73H334.767V67.688C334.767 66.056 334.255 65.368 333.135 65.368C332.479 65.368 331.743 65.816 330.959 66.696V73H329.503ZM346.316 73.224C344.86 73.224 343.772 72.312 343.772 70.744C343.772 68.856 345.404 67.912 349.1 67.496C349.1 66.376 348.748 65.304 347.324 65.304C346.3 65.304 345.388 65.784 344.716 66.248L344.14 65.224C344.94 64.712 346.156 64.104 347.548 64.104C349.676 64.104 350.572 65.512 350.572 67.672V73H349.372L349.244 71.976H349.18C348.364 72.664 347.388 73.224 346.316 73.224ZM346.716 72.04C347.564 72.04 348.268 71.64 349.1 70.888V68.472C346.172 68.808 345.196 69.528 345.196 70.648C345.196 71.64 345.868 72.04 346.716 72.04ZM353.331 73V60.28H354.771V68.904H354.819L358.515 64.312H360.147L357.251 67.816L360.515 73H358.931L356.387 68.808L354.771 70.712V73H353.331ZM365.304 73.224C362.984 73.224 361.144 71.528 361.144 68.68C361.144 65.848 363.048 64.104 365.048 64.104C367.256 64.104 368.504 65.688 368.504 68.184C368.504 68.488 368.488 68.792 368.44 69.016H362.584C362.696 70.856 363.816 72.056 365.48 72.056C366.312 72.056 367 71.784 367.64 71.352L368.168 72.328C367.4 72.824 366.488 73.224 365.304 73.224ZM362.568 67.96H367.224C367.224 66.216 366.44 65.272 365.064 65.272C363.848 65.272 362.76 66.248 362.568 67.96ZM374.366 76.76C373.966 76.76 373.63 76.696 373.358 76.584L373.646 75.416C373.806 75.48 374.062 75.544 374.302 75.544C375.278 75.544 375.902 74.744 376.27 73.672L376.462 73.016L372.974 64.312H374.478L376.254 69.144C376.526 69.912 376.814 70.792 377.102 71.592H377.182C377.422 70.792 377.678 69.928 377.902 69.144L379.47 64.312H380.894L377.614 73.736C377.006 75.448 376.11 76.76 374.366 76.76ZM385.848 73.224C383.704 73.224 381.816 71.544 381.816 68.68C381.816 65.768 383.704 64.104 385.848 64.104C387.976 64.104 389.864 65.768 389.864 68.68C389.864 71.544 387.976 73.224 385.848 73.224ZM385.848 72.008C387.352 72.008 388.36 70.664 388.36 68.68C388.36 66.664 387.352 65.32 385.848 65.32C384.328 65.32 383.32 66.664 383.32 68.68C383.32 70.664 384.328 72.008 385.848 72.008ZM394.703 73.224C392.879 73.224 392.047 72.04 392.047 69.816V64.312H393.503V69.64C393.503 71.256 393.999 71.944 395.151 71.944C396.031 71.944 396.671 71.512 397.487 70.488V64.312H398.943V73H397.743L397.615 71.64H397.583C396.767 72.584 395.903 73.224 394.703 73.224ZM405.696 73V62.92C405.696 61.176 406.512 60.056 408.24 60.056C408.768 60.056 409.28 60.184 409.68 60.344L409.376 61.464C409.04 61.32 408.704 61.24 408.384 61.24C407.552 61.24 407.152 61.816 407.152 62.952V73H405.696ZM404.512 65.496V64.408L405.776 64.312H409.008V65.496H404.512ZM413.96 73.224C411.64 73.224 409.8 71.528 409.8 68.68C409.8 65.848 411.704 64.104 413.704 64.104C415.912 64.104 417.16 65.688 417.16 68.184C417.16 68.488 417.144 68.792 417.096 69.016H411.24C411.352 70.856 412.472 72.056 414.136 72.056C414.968 72.056 415.656 71.784 416.296 71.352L416.824 72.328C416.056 72.824 415.144 73.224 413.96 73.224ZM411.224 67.96H415.88C415.88 66.216 415.096 65.272 413.72 65.272C412.504 65.272 411.416 66.248 411.224 67.96ZM422.82 73.224C420.5 73.224 418.66 71.528 418.66 68.68C418.66 65.848 420.564 64.104 422.564 64.104C424.772 64.104 426.02 65.688 426.02 68.184C426.02 68.488 426.004 68.792 425.956 69.016H420.1C420.212 70.856 421.332 72.056 422.996 72.056C423.828 72.056 424.516 71.784 425.156 71.352L425.684 72.328C424.916 72.824 424.004 73.224 422.82 73.224ZM420.084 67.96H424.74C424.74 66.216 423.956 65.272 422.58 65.272C421.364 65.272 420.276 66.248 420.084 67.96ZM429.711 73.224C428.607 73.224 428.175 72.52 428.175 71.272V60.28H429.631V71.368C429.631 71.832 429.823 72.008 430.047 72.008C430.111 72.008 430.175 72.008 430.351 71.976L430.543 73.096C430.335 73.16 430.111 73.224 429.711 73.224ZM438.572 73.224C437.34 73.224 436.14 72.696 435.324 72.024L436.044 71.048C436.796 71.656 437.564 72.088 438.604 72.088C439.756 72.088 440.332 71.48 440.332 70.712C440.332 69.832 439.292 69.432 438.332 69.08C437.132 68.616 435.804 68.04 435.804 66.552C435.804 65.176 436.908 64.104 438.796 64.104C439.868 64.104 440.828 64.536 441.5 65.08L440.796 66.008C440.204 65.576 439.58 65.24 438.812 65.24C437.708 65.24 437.212 65.816 437.212 66.488C437.212 67.32 438.092 67.64 439.084 67.992C440.348 68.472 441.724 68.984 441.724 70.632C441.724 72.056 440.62 73.224 438.572 73.224ZM445.785 73.224C444.329 73.224 443.241 72.312 443.241 70.744C443.241 68.856 444.873 67.912 448.569 67.496C448.569 66.376 448.217 65.304 446.793 65.304C445.769 65.304 444.857 65.784 444.185 66.248L443.609 65.224C444.409 64.712 445.625 64.104 447.016 64.104C449.145 64.104 450.041 65.512 450.041 67.672V73H448.841L448.713 71.976H448.649C447.833 72.664 446.857 73.224 445.785 73.224ZM446.185 72.04C447.033 72.04 447.737 71.64 448.569 70.888V68.472C445.641 68.808 444.664 69.528 444.664 70.648C444.664 71.64 445.337 72.04 446.185 72.04ZM453.024 73V62.92C453.024 61.176 453.84 60.056 455.568 60.056C456.096 60.056 456.608 60.184 457.008 60.344L456.704 61.464C456.368 61.32 456.032 61.24 455.712 61.24C454.88 61.24 454.48 61.816 454.48 62.952V73H453.024ZM451.84 65.496V64.408L453.104 64.312H456.336V65.496H451.84ZM461.289 73.224C458.969 73.224 457.129 71.528 457.129 68.68C457.129 65.848 459.033 64.104 461.033 64.104C463.241 64.104 464.489 65.688 464.489 68.184C464.489 68.488 464.473 68.792 464.425 69.016H458.569C458.681 70.856 459.801 72.056 461.465 72.056C462.297 72.056 462.985 71.784 463.625 71.352L464.153 72.328C463.385 72.824 462.473 73.224 461.289 73.224ZM458.553 67.96H463.209C463.209 66.216 462.425 65.272 461.049 65.272C459.833 65.272 458.745 66.248 458.553 67.96ZM467.848 69.464C467.464 66.68 470.312 65.656 470.312 63.768C470.312 62.808 469.72 62.024 468.584 62.024C467.784 62.024 467.064 62.408 466.504 63.048L465.672 62.28C466.424 61.448 467.432 60.808 468.728 60.808C470.552 60.808 471.736 61.912 471.736 63.672C471.736 66.024 468.84 66.952 469.144 69.464H467.848ZM468.536 73.224C467.944 73.224 467.48 72.76 467.48 72.104C467.48 71.432 467.944 70.984 468.536 70.984C469.112 70.984 469.592 71.432 469.592 72.104C469.592 72.76 469.112 73.224 468.536 73.224Z" fill="black"/>
<path d="M106.759 118.61V116.936C106.909 117.072 107.087 117.195 107.292 117.305C107.502 117.414 107.723 117.507 107.955 117.585C108.188 117.658 108.42 117.715 108.652 117.756C108.885 117.797 109.099 117.817 109.295 117.817C109.979 117.817 110.487 117.703 110.819 117.476C111.157 117.248 111.325 116.917 111.325 116.484C111.325 116.252 111.268 116.051 111.154 115.883C111.045 115.71 110.89 115.552 110.689 115.411C110.489 115.27 110.252 115.135 109.979 115.008C109.71 114.876 109.42 114.739 109.11 114.598C108.778 114.42 108.468 114.24 108.181 114.058C107.894 113.875 107.643 113.675 107.429 113.456C107.219 113.233 107.053 112.982 106.93 112.704C106.811 112.426 106.752 112.1 106.752 111.727C106.752 111.266 106.854 110.868 107.06 110.53C107.269 110.188 107.543 109.908 107.88 109.689C108.222 109.466 108.609 109.302 109.042 109.197C109.475 109.088 109.917 109.033 110.368 109.033C111.394 109.033 112.141 109.149 112.61 109.382V110.988C112.054 110.587 111.339 110.387 110.464 110.387C110.222 110.387 109.981 110.41 109.739 110.455C109.502 110.501 109.288 110.576 109.097 110.681C108.91 110.785 108.757 110.92 108.639 111.084C108.52 111.248 108.461 111.446 108.461 111.679C108.461 111.897 108.507 112.087 108.598 112.246C108.689 112.406 108.821 112.551 108.994 112.684C109.172 112.816 109.386 112.946 109.637 113.073C109.892 113.196 110.186 113.331 110.519 113.477C110.86 113.654 111.182 113.841 111.482 114.037C111.788 114.233 112.054 114.45 112.282 114.687C112.515 114.924 112.697 115.188 112.829 115.479C112.966 115.767 113.034 116.095 113.034 116.464C113.034 116.961 112.934 117.38 112.733 117.722C112.533 118.063 112.262 118.341 111.92 118.556C111.583 118.77 111.193 118.925 110.751 119.021C110.309 119.116 109.842 119.164 109.35 119.164C109.186 119.164 108.983 119.15 108.741 119.123C108.504 119.1 108.26 119.064 108.01 119.014C107.759 118.968 107.522 118.911 107.299 118.843C107.076 118.774 106.896 118.697 106.759 118.61ZM120.588 115.931H115.816C115.835 116.578 116.033 117.077 116.411 117.428C116.794 117.779 117.318 117.954 117.983 117.954C118.731 117.954 119.417 117.731 120.041 117.284V118.562C119.403 118.964 118.56 119.164 117.512 119.164C116.482 119.164 115.673 118.847 115.085 118.214C114.502 117.576 114.21 116.68 114.21 115.527C114.21 114.438 114.531 113.552 115.174 112.868C115.821 112.18 116.623 111.836 117.58 111.836C118.537 111.836 119.278 112.144 119.802 112.759C120.326 113.374 120.588 114.229 120.588 115.322V115.931ZM119.057 114.81C119.052 114.24 118.918 113.798 118.653 113.483C118.389 113.164 118.024 113.005 117.56 113.005C117.104 113.005 116.716 113.171 116.397 113.504C116.083 113.837 115.889 114.272 115.816 114.81H119.057ZM127.95 112L125.619 115.541L127.923 119H126.084L124.854 116.833C124.776 116.701 124.685 116.532 124.58 116.327H124.553C124.535 116.368 124.439 116.537 124.266 116.833L123.015 119H121.183L123.562 115.568L121.306 112H123.151L124.361 114.276C124.452 114.445 124.541 114.618 124.628 114.796H124.648L126.214 112H127.95ZM135.217 119H133.631V117.893H133.604C133.143 118.74 132.428 119.164 131.457 119.164C129.803 119.164 128.976 118.171 128.976 116.184V112H130.562V116.02C130.562 117.277 131.047 117.906 132.018 117.906C132.487 117.906 132.872 117.733 133.173 117.387C133.478 117.04 133.631 116.587 133.631 116.026V112H135.217V119ZM142.661 119H141.123V117.906H141.096C140.613 118.745 139.904 119.164 138.97 119.164C138.282 119.164 137.742 118.977 137.35 118.604C136.962 118.23 136.769 117.735 136.769 117.12C136.769 115.799 137.53 115.028 139.052 114.81L141.13 114.516C141.13 113.518 140.656 113.019 139.708 113.019C138.874 113.019 138.122 113.306 137.452 113.88V112.492C138.19 112.055 139.043 111.836 140.009 111.836C141.777 111.836 142.661 112.706 142.661 114.447V119ZM141.13 115.562L139.66 115.767C139.204 115.826 138.86 115.938 138.628 116.102C138.4 116.261 138.286 116.544 138.286 116.949C138.286 117.245 138.391 117.489 138.601 117.681C138.815 117.868 139.1 117.961 139.455 117.961C139.938 117.961 140.337 117.792 140.651 117.455C140.97 117.113 141.13 116.685 141.13 116.17V115.562ZM146.195 119H144.603V108.637H146.195V119Z" fill="#242424"/>
<path d="M157.625 118.25C157.105 118.25 156.605 118.184 156.125 118.051C155.648 117.918 155.201 117.73 154.783 117.488C154.365 117.242 153.984 116.949 153.641 116.609C153.301 116.266 153.008 115.885 152.762 115.467C152.52 115.049 152.332 114.602 152.199 114.125C152.066 113.645 152 113.145 152 112.625C152 112.105 152.066 111.607 152.199 111.131C152.332 110.65 152.52 110.201 152.762 109.783C153.008 109.365 153.301 108.986 153.641 108.646C153.984 108.303 154.365 108.01 154.783 107.768C155.201 107.521 155.648 107.332 156.125 107.199C156.605 107.066 157.105 107 157.625 107C158.145 107 158.643 107.066 159.119 107.199C159.6 107.332 160.049 107.521 160.467 107.768C160.885 108.01 161.264 108.303 161.604 108.646C161.947 108.986 162.24 109.365 162.482 109.783C162.729 110.201 162.918 110.65 163.051 111.131C163.184 111.607 163.25 112.105 163.25 112.625C163.25 113.145 163.184 113.645 163.051 114.125C162.918 114.602 162.729 115.049 162.482 115.467C162.24 115.885 161.947 116.266 161.604 116.609C161.264 116.949 160.885 117.242 160.467 117.488C160.049 117.73 159.6 117.918 159.119 118.051C158.643 118.184 158.145 118.25 157.625 118.25ZM157.625 107.75C157.176 107.75 156.744 107.809 156.33 107.926C155.916 108.043 155.527 108.207 155.164 108.418C154.805 108.629 154.477 108.883 154.18 109.18C153.883 109.477 153.629 109.807 153.418 110.17C153.207 110.529 153.043 110.918 152.926 111.336C152.809 111.75 152.75 112.18 152.75 112.625C152.75 113.07 152.809 113.502 152.926 113.92C153.043 114.334 153.207 114.723 153.418 115.086C153.629 115.445 153.883 115.773 154.18 116.07C154.477 116.367 154.805 116.621 155.164 116.832C155.527 117.043 155.916 117.207 156.33 117.324C156.744 117.441 157.176 117.5 157.625 117.5C158.07 117.5 158.5 117.441 158.914 117.324C159.332 117.207 159.721 117.043 160.08 116.832C160.443 116.621 160.773 116.367 161.07 116.07C161.367 115.773 161.621 115.445 161.832 115.086C162.043 114.723 162.207 114.334 162.324 113.92C162.441 113.506 162.5 113.074 162.5 112.625C162.5 112.18 162.441 111.75 162.324 111.336C162.207 110.918 162.043 110.529 161.832 110.17C161.621 109.807 161.367 109.477 161.07 109.18C160.773 108.883 160.443 108.629 160.08 108.418C159.721 108.207 159.332 108.043 158.914 107.926C158.5 107.809 158.07 107.75 157.625 107.75ZM157.25 111.5H158V115.25H157.25V111.5ZM157.25 110H158V110.75H157.25V110Z" fill="#242424"/>
<path d="M200.167 113.941L194.238 125.059C193.528 126.391 194.493 128 196.003 128H204V98L196.003 98C194.493 98 193.528 99.609 194.238 100.941L200.167 112.059C200.481 112.647 200.481 113.353 200.167 113.941Z" fill="#239582"/>
<path d="M201.05 114.412L195.12 125.529C194.765 126.196 195.248 127 196.003 127H204V128H196.003C194.493 128 193.528 126.391 194.238 125.059L200.167 113.941C200.481 113.353 200.481 112.647 200.167 112.059L194.238 100.941C193.528 99.609 194.493 98 196.003 98L204 98V99H196.003C195.248 99 194.765 99.8045 195.12 100.471L201.05 111.588C201.52 112.471 201.52 113.529 201.05 114.412Z" fill="#239582"/>
<rect x="204" y="98" width="85" height="30" fill="#239582"/>
<path d="M298.77 113.931L291.936 126.931C291.59 127.588 290.908 128 290.166 128H289V127V99V98H290.166C290.908 98 291.59 98.4118 291.936 99.0693L298.77 112.069C299.077 112.652 299.077 113.348 298.77 113.931Z" fill="#239582"/>
<path d="M218.5 117.586L214.707 113.793C214.317 113.402 213.683 113.402 213.293 113.793C212.902 114.183 212.902 114.817 213.293 115.207L217.793 119.707C218.183 120.098 218.817 120.098 219.207 119.707L230.207 108.707C230.598 108.317 230.598 107.683 230.207 107.293C229.817 106.902 229.183 106.902 228.793 107.293L218.5 117.586Z" fill="white"/>
<path d="M305.167 113.941L299.238 125.059C298.528 126.391 299.493 128 301.003 128H309V98L301.003 98C299.493 98 298.528 99.609 299.238 100.941L305.167 112.059C305.481 112.647 305.481 113.353 305.167 113.941Z" fill="#239582"/>
<path d="M306.05 114.412L300.12 125.529C299.765 126.196 300.248 127 301.003 127H309V128H301.003C299.493 128 298.528 126.391 299.238 125.059L305.167 113.941C305.481 113.353 305.481 112.647 305.167 112.059L299.238 100.941C298.528 99.609 299.493 98 301.003 98L309 98V99H301.003C300.248 99 299.765 99.8045 300.12 100.471L306.05 111.588C306.52 112.471 306.52 113.529 306.05 114.412Z" fill="#239582"/>
<rect x="309" y="98" width="85" height="30" fill="#239582"/>
<path d="M403.77 113.931L396.936 126.931C396.59 127.588 395.908 128 395.166 128H394V127V99V98H395.166C395.908 98 396.59 98.4118 396.936 99.0693L403.77 112.069C404.077 112.652 404.077 113.348 403.77 113.931Z" fill="#239582"/>
<path d="M323.5 117.586L319.707 113.793C319.317 113.402 318.683 113.402 318.293 113.793C317.902 114.183 317.902 114.817 318.293 115.207L322.793 119.707C323.183 120.098 323.817 120.098 324.207 119.707L335.207 108.707C335.598 108.317 335.598 107.683 335.207 107.293C334.817 106.902 334.183 106.902 333.793 107.293L323.5 117.586Z" fill="white"/>
<path d="M410.167 113.941L404.238 125.059C403.528 126.391 404.493 128 406.003 128H414V98L406.003 98C404.493 98 403.528 99.609 404.238 100.941L410.167 112.059C410.481 112.647 410.481 113.353 410.167 113.941Z" fill="#239582"/>
<path d="M411.05 114.412L405.12 125.529C404.765 126.196 405.248 127 406.003 127H414V128H406.003C404.493 128 403.528 126.391 404.238 125.059L410.167 113.941C410.481 113.353 410.481 112.647 410.167 112.059L404.238 100.941C403.528 99.609 404.493 98 406.003 98L414 98V99H406.003C405.248 99 404.765 99.8045 405.12 100.471L411.05 111.588C411.52 112.471 411.52 113.529 411.05 114.412Z" fill="#239582"/>
<rect x="414" y="98" width="85" height="30" fill="#239582"/>
<path d="M508.77 113.931L501.936 126.931C501.59 127.588 500.908 128 500.166 128H499V127V99V98H500.166C500.908 98 501.59 98.4118 501.936 99.0693L508.77 112.069C509.077 112.652 509.077 113.348 508.77 113.931Z" fill="#239582"/>
<path d="M428.5 117.586L424.707 113.793C424.317 113.402 423.683 113.402 423.293 113.793C422.902 114.183 422.902 114.817 423.293 115.207L427.793 119.707C428.183 120.098 428.817 120.098 429.207 119.707L440.207 108.707C440.598 108.317 440.598 107.683 440.207 107.293C439.817 106.902 439.183 106.902 438.793 107.293L428.5 117.586Z" fill="white"/>
<path d="M515.167 113.941L509.238 125.059C508.528 126.391 509.493 128 511.003 128H519V98L511.003 98C509.493 98 508.528 99.609 509.238 100.941L515.167 112.059C515.481 112.647 515.481 113.353 515.167 113.941Z" fill="#239582"/>
<path d="M516.05 114.412L510.12 125.529C509.765 126.196 510.248 127 511.003 127H519V128H511.003C509.493 128 508.528 126.391 509.238 125.059L515.167 113.941C515.481 113.353 515.481 112.647 515.167 112.059L509.238 100.941C508.528 99.609 509.493 98 511.003 98L519 98V99H511.003C510.248 99 509.765 99.8045 510.12 100.471L516.05 111.588C516.52 112.471 516.52 113.529 516.05 114.412Z" fill="#239582"/>
<rect x="519" y="98" width="85" height="30" fill="#239582"/>
<path d="M613.77 113.931L606.936 126.931C606.59 127.588 605.908 128 605.166 128H604V127V99V98H605.166C605.908 98 606.59 98.4118 606.936 99.0693L613.77 112.069C614.077 112.652 614.077 113.348 613.77 113.931Z" fill="#239582"/>
<path d="M533.5 117.586L529.707 113.793C529.317 113.402 528.683 113.402 528.293 113.793C527.902 114.183 527.902 114.817 528.293 115.207L532.793 119.707C533.183 120.098 533.817 120.098 534.207 119.707L545.207 108.707C545.598 108.317 545.598 107.683 545.207 107.293C544.817 106.902 544.183 106.902 543.793 107.293L533.5 117.586Z" fill="white"/>
<path d="M106.759 172.61V170.936C106.909 171.072 107.087 171.195 107.292 171.305C107.502 171.414 107.723 171.507 107.955 171.585C108.188 171.658 108.42 171.715 108.652 171.756C108.885 171.797 109.099 171.817 109.295 171.817C109.979 171.817 110.487 171.703 110.819 171.476C111.157 171.248 111.325 170.917 111.325 170.484C111.325 170.252 111.268 170.051 111.154 169.883C111.045 169.71 110.89 169.552 110.689 169.411C110.489 169.27 110.252 169.135 109.979 169.008C109.71 168.876 109.42 168.739 109.11 168.598C108.778 168.42 108.468 168.24 108.181 168.058C107.894 167.875 107.643 167.675 107.429 167.456C107.219 167.233 107.053 166.982 106.93 166.704C106.811 166.426 106.752 166.1 106.752 165.727C106.752 165.266 106.854 164.868 107.06 164.53C107.269 164.188 107.543 163.908 107.88 163.689C108.222 163.466 108.609 163.302 109.042 163.197C109.475 163.088 109.917 163.033 110.368 163.033C111.394 163.033 112.141 163.149 112.61 163.382V164.988C112.054 164.587 111.339 164.387 110.464 164.387C110.222 164.387 109.981 164.41 109.739 164.455C109.502 164.501 109.288 164.576 109.097 164.681C108.91 164.785 108.757 164.92 108.639 165.084C108.52 165.248 108.461 165.446 108.461 165.679C108.461 165.897 108.507 166.087 108.598 166.246C108.689 166.406 108.821 166.551 108.994 166.684C109.172 166.816 109.386 166.946 109.637 167.073C109.892 167.196 110.186 167.331 110.519 167.477C110.86 167.654 111.182 167.841 111.482 168.037C111.788 168.233 112.054 168.45 112.282 168.687C112.515 168.924 112.697 169.188 112.829 169.479C112.966 169.767 113.034 170.095 113.034 170.464C113.034 170.961 112.934 171.38 112.733 171.722C112.533 172.063 112.262 172.341 111.92 172.556C111.583 172.77 111.193 172.925 110.751 173.021C110.309 173.116 109.842 173.164 109.35 173.164C109.186 173.164 108.983 173.15 108.741 173.123C108.504 173.1 108.26 173.064 108.01 173.014C107.759 172.968 107.522 172.911 107.299 172.843C107.076 172.774 106.896 172.697 106.759 172.61ZM120.588 169.931H115.816C115.835 170.578 116.033 171.077 116.411 171.428C116.794 171.779 117.318 171.954 117.983 171.954C118.731 171.954 119.417 171.731 120.041 171.284V172.562C119.403 172.964 118.56 173.164 117.512 173.164C116.482 173.164 115.673 172.847 115.085 172.214C114.502 171.576 114.21 170.68 114.21 169.527C114.21 168.438 114.531 167.552 115.174 166.868C115.821 166.18 116.623 165.836 117.58 165.836C118.537 165.836 119.278 166.144 119.802 166.759C120.326 167.374 120.588 168.229 120.588 169.322V169.931ZM119.057 168.81C119.052 168.24 118.918 167.798 118.653 167.483C118.389 167.164 118.024 167.005 117.56 167.005C117.104 167.005 116.716 167.171 116.397 167.504C116.083 167.837 115.889 168.272 115.816 168.81H119.057ZM123.691 173H122.099V162.637H123.691V173ZM129.721 163.929C129.507 163.806 129.263 163.744 128.989 163.744C128.219 163.744 127.834 164.179 127.834 165.05V166H129.461V167.244H127.841V173H126.255V167.244H125.059V166H126.255V164.865C126.255 164.127 126.496 163.546 126.979 163.122C127.463 162.694 128.066 162.479 128.791 162.479C129.183 162.479 129.493 162.523 129.721 162.609V163.929ZM133.631 169.76H129.898V168.591H133.631V169.76ZM141.8 173H140.214V169.172C140.214 167.786 139.751 167.094 138.826 167.094C138.361 167.094 137.969 167.294 137.65 167.695C137.331 168.096 137.172 168.609 137.172 169.233V173H135.579V162.637H137.172V167.162H137.199C137.728 166.278 138.484 165.836 139.469 165.836C141.023 165.836 141.8 166.786 141.8 168.687V173ZM149.101 173H147.562V171.906H147.535C147.052 172.745 146.343 173.164 145.409 173.164C144.721 173.164 144.181 172.977 143.789 172.604C143.402 172.23 143.208 171.735 143.208 171.12C143.208 169.799 143.969 169.028 145.491 168.81L147.569 168.516C147.569 167.518 147.095 167.019 146.147 167.019C145.313 167.019 144.562 167.306 143.892 167.88V166.492C144.63 166.055 145.482 165.836 146.448 165.836C148.216 165.836 149.101 166.706 149.101 168.447V173ZM147.569 169.562L146.1 169.767C145.644 169.826 145.3 169.938 145.067 170.102C144.84 170.261 144.726 170.544 144.726 170.949C144.726 171.245 144.83 171.489 145.04 171.681C145.254 171.868 145.539 171.961 145.895 171.961C146.378 171.961 146.776 171.792 147.091 171.455C147.41 171.113 147.569 170.685 147.569 170.17V169.562ZM155.103 167.511C154.911 167.36 154.635 167.285 154.275 167.285C153.806 167.285 153.414 167.497 153.1 167.921C152.785 168.345 152.628 168.921 152.628 169.65V173H151.042V166H152.628V167.442H152.655C152.81 166.95 153.047 166.567 153.366 166.294C153.69 166.016 154.05 165.877 154.446 165.877C154.733 165.877 154.952 165.92 155.103 166.007V167.511ZM166.689 173H165.104V169.186C165.104 168.452 164.999 167.921 164.789 167.593C164.584 167.265 164.235 167.101 163.743 167.101C163.328 167.101 162.975 167.308 162.684 167.723C162.396 168.137 162.253 168.634 162.253 169.213V173H160.66V169.056C160.66 167.752 160.2 167.101 159.279 167.101C158.851 167.101 158.498 167.297 158.22 167.688C157.946 168.08 157.81 168.589 157.81 169.213V173H156.224V166H157.81V167.107H157.837C158.343 166.26 159.079 165.836 160.045 165.836C160.528 165.836 160.95 165.97 161.31 166.239C161.674 166.504 161.923 166.852 162.055 167.285C162.574 166.319 163.349 165.836 164.379 165.836C165.919 165.836 166.689 166.786 166.689 168.687V173Z" fill="#242424"/>
<path d="M177.625 172.25C177.105 172.25 176.605 172.184 176.125 172.051C175.648 171.918 175.201 171.73 174.783 171.488C174.365 171.242 173.984 170.949 173.641 170.609C173.301 170.266 173.008 169.885 172.762 169.467C172.52 169.049 172.332 168.602 172.199 168.125C172.066 167.645 172 167.145 172 166.625C172 166.105 172.066 165.607 172.199 165.131C172.332 164.65 172.52 164.201 172.762 163.783C173.008 163.365 173.301 162.986 173.641 162.646C173.984 162.303 174.365 162.01 174.783 161.768C175.201 161.521 175.648 161.332 176.125 161.199C176.605 161.066 177.105 161 177.625 161C178.145 161 178.643 161.066 179.119 161.199C179.6 161.332 180.049 161.521 180.467 161.768C180.885 162.01 181.264 162.303 181.604 162.646C181.947 162.986 182.24 163.365 182.482 163.783C182.729 164.201 182.918 164.65 183.051 165.131C183.184 165.607 183.25 166.105 183.25 166.625C183.25 167.145 183.184 167.645 183.051 168.125C182.918 168.602 182.729 169.049 182.482 169.467C182.24 169.885 181.947 170.266 181.604 170.609C181.264 170.949 180.885 171.242 180.467 171.488C180.049 171.73 179.6 171.918 179.119 172.051C178.643 172.184 178.145 172.25 177.625 172.25ZM177.625 161.75C177.176 161.75 176.744 161.809 176.33 161.926C175.916 162.043 175.527 162.207 175.164 162.418C174.805 162.629 174.477 162.883 174.18 163.18C173.883 163.477 173.629 163.807 173.418 164.17C173.207 164.529 173.043 164.918 172.926 165.336C172.809 165.75 172.75 166.18 172.75 166.625C172.75 167.07 172.809 167.502 172.926 167.92C173.043 168.334 173.207 168.723 173.418 169.086C173.629 169.445 173.883 169.773 174.18 170.07C174.477 170.367 174.805 170.621 175.164 170.832C175.527 171.043 175.916 171.207 176.33 171.324C176.744 171.441 177.176 171.5 177.625 171.5C178.07 171.5 178.5 171.441 178.914 171.324C179.332 171.207 179.721 171.043 180.08 170.832C180.443 170.621 180.773 170.367 181.07 170.07C181.367 169.773 181.621 169.445 181.832 169.086C182.043 168.723 182.207 168.334 182.324 167.92C182.441 167.506 182.5 167.074 182.5 166.625C182.5 166.18 182.441 165.75 182.324 165.336C182.207 164.918 182.043 164.529 181.832 164.17C181.621 163.807 181.367 163.477 181.07 163.18C180.773 162.883 180.443 162.629 180.08 162.418C179.721 162.207 179.332 162.043 178.914 161.926C178.5 161.809 178.07 161.75 177.625 161.75ZM177.25 165.5H178V169.25H177.25V165.5ZM177.25 164H178V164.75H177.25V164Z" fill="#242424"/>
<path d="M200.167 167.941L194.238 179.059C193.528 180.391 194.493 182 196.003 182H204V152L196.003 152C194.493 152 193.528 153.609 194.238 154.941L200.167 166.059C200.481 166.647 200.481 167.353 200.167 167.941Z" fill="#AB4A31"/>
<path d="M201.05 168.412L195.12 179.529C194.765 180.196 195.248 181 196.003 181H204V182H196.003C194.493 182 193.528 180.391 194.238 179.059L200.167 167.941C200.481 167.353 200.481 166.647 200.167 166.059L194.238 154.941C193.528 153.609 194.493 152 196.003 152L204 152V153H196.003C195.248 153 194.765 153.804 195.12 154.471L201.05 165.588C201.52 166.471 201.52 167.529 201.05 168.412Z" fill="#AB4A31"/>
<rect x="204" y="152" width="85" height="30" fill="#AB4A31"/>
<path d="M298.77 167.931L291.936 180.931C291.59 181.588 290.908 182 290.166 182H289V181V153V152H290.166C290.908 152 291.59 152.412 291.936 153.069L298.77 166.069C299.077 166.652 299.077 167.348 298.77 167.931Z" fill="#AB4A31"/>
<path d="M222 157C227.523 157 232 161.477 232 167C232 172.523 227.523 177 222 177C216.477 177 212 172.523 212 167C212 161.477 216.477 157 222 157ZM217.75 166.25C217.336 166.25 217 166.586 217 167C217 167.38 217.282 167.693 217.648 167.743L217.75 167.75C223.211 167.75 221.253 167.75 226.25 167.75C226.664 167.75 227 167.414 227 167C227 166.62 226.718 166.307 226.352 166.257L226.25 166.25C221.055 166.25 223.444 166.25 217.75 166.25Z" fill="white"/>
<path d="M305.167 167.941L299.238 179.059C298.528 180.391 299.493 182 301.003 182H309V152L301.003 152C299.493 152 298.528 153.609 299.238 154.941L305.167 166.059C305.481 166.647 305.481 167.353 305.167 167.941Z" fill="#AB4A31"/>
<path d="M306.05 168.412L300.12 179.529C299.765 180.196 300.248 181 301.003 181H309V182H301.003C299.493 182 298.528 180.391 299.238 179.059L305.167 167.941C305.481 167.353 305.481 166.647 305.167 166.059L299.238 154.941C298.528 153.609 299.493 152 301.003 152L309 152V153H301.003C300.248 153 299.765 153.804 300.12 154.471L306.05 165.588C306.52 166.471 306.52 167.529 306.05 168.412Z" fill="#AB4A31"/>
<rect x="309" y="152" width="85" height="30" fill="#AB4A31"/>
<path d="M403.77 167.931L396.936 180.931C396.59 181.588 395.908 182 395.166 182H394V181V153V152H395.166C395.908 152 396.59 152.412 396.936 153.069L403.77 166.069C404.077 166.652 404.077 167.348 403.77 167.931Z" fill="#AB4A31"/>
<path d="M327 157C332.523 157 337 161.477 337 167C337 172.523 332.523 177 327 177C321.477 177 317 172.523 317 167C317 161.477 321.477 157 327 157ZM322.75 166.25C322.336 166.25 322 166.586 322 167C322 167.38 322.282 167.693 322.648 167.743L322.75 167.75C328.211 167.75 326.253 167.75 331.25 167.75C331.664 167.75 332 167.414 332 167C332 166.62 331.718 166.307 331.352 166.257L331.25 166.25C326.055 166.25 328.444 166.25 322.75 166.25Z" fill="white"/>
<path d="M410.167 167.941L404.238 179.059C403.528 180.391 404.493 182 406.003 182H414V152L406.003 152C404.493 152 403.528 153.609 404.238 154.941L410.167 166.059C410.481 166.647 410.481 167.353 410.167 167.941Z" fill="#AB4A31"/>
<path d="M411.05 168.412L405.12 179.529C404.765 180.196 405.248 181 406.003 181H414V182H406.003C404.493 182 403.528 180.391 404.238 179.059L410.167 167.941C410.481 167.353 410.481 166.647 410.167 166.059L404.238 154.941C403.528 153.609 404.493 152 406.003 152L414 152V153H406.003C405.248 153 404.765 153.804 405.12 154.471L411.05 165.588C411.52 166.471 411.52 167.529 411.05 168.412Z" fill="#AB4A31"/>
<rect x="414" y="152" width="85" height="30" fill="#AB4A31"/>
<path d="M508.77 167.931L501.936 180.931C501.59 181.588 500.908 182 500.166 182H499V181V153V152H500.166C500.908 152 501.59 152.412 501.936 153.069L508.77 166.069C509.077 166.652 509.077 167.348 508.77 167.931Z" fill="#AB4A31"/>
<path d="M432 157C437.523 157 442 161.477 442 167C442 172.523 437.523 177 432 177C426.477 177 422 172.523 422 167C422 161.477 426.477 157 432 157ZM427.75 166.25C427.336 166.25 427 166.586 427 167C427 167.38 427.282 167.693 427.648 167.743L427.75 167.75C433.211 167.75 431.253 167.75 436.25 167.75C436.664 167.75 437 167.414 437 167C437 166.62 436.718 166.307 436.352 166.257L436.25 166.25C431.055 166.25 433.444 166.25 427.75 166.25Z" fill="white"/>
<path d="M515.167 167.941L509.238 179.059C508.528 180.391 509.493 182 511.003 182H519V152L511.003 152C509.493 152 508.528 153.609 509.238 154.941L515.167 166.059C515.481 166.647 515.481 167.353 515.167 167.941Z" fill="#AB4A31"/>
<path d="M516.05 168.412L510.12 179.529C509.765 180.196 510.248 181 511.003 181H519V182H511.003C509.493 182 508.528 180.391 509.238 179.059L515.167 167.941C515.481 167.353 515.481 166.647 515.167 166.059L509.238 154.941C508.528 153.609 509.493 152 511.003 152L519 152V153H511.003C510.248 153 509.765 153.804 510.12 154.471L516.05 165.588C516.52 166.471 516.52 167.529 516.05 168.412Z" fill="#AB4A31"/>
<rect x="519" y="152" width="85" height="30" fill="#AB4A31"/>
<path d="M613.77 167.931L606.936 180.931C606.59 181.588 605.908 182 605.166 182H604V181V153V152H605.166C605.908 152 606.59 152.412 606.936 153.069L613.77 166.069C614.077 166.652 614.077 167.348 613.77 167.931Z" fill="#AB4A31"/>
<path d="M537 157C542.523 157 547 161.477 547 167C547 172.523 542.523 177 537 177C531.477 177 527 172.523 527 167C527 161.477 531.477 157 537 157ZM532.75 166.25C532.336 166.25 532 166.586 532 167C532 167.38 532.282 167.693 532.648 167.743L532.75 167.75C538.211 167.75 536.253 167.75 541.25 167.75C541.664 167.75 542 167.414 542 167C542 166.62 541.718 166.307 541.352 166.257L541.25 166.25C536.055 166.25 538.444 166.25 532.75 166.25Z" fill="white"/>
</svg>
