<svg width="768" height="300" viewBox="0 0 768 300" fill="none" xmlns="http://www.w3.org/2000/svg">
<rect width="768" height="300" fill="#202028"/>
<rect x="155" y="101" width="147" height="96" stroke="white"/>
<path d="M155 87H187.232L196.566 101H155V87Z" stroke="white"/>
<path d="M185.443 135.648H183.67C183.602 135.269 183.475 134.936 183.29 134.648C183.104 134.36 182.877 134.116 182.608 133.915C182.339 133.714 182.038 133.562 181.705 133.46C181.375 133.358 181.025 133.307 180.653 133.307C179.983 133.307 179.383 133.475 178.852 133.812C178.326 134.15 177.909 134.644 177.602 135.295C177.299 135.947 177.148 136.742 177.148 137.682C177.148 138.629 177.299 139.428 177.602 140.08C177.909 140.731 178.328 141.223 178.858 141.557C179.388 141.89 179.985 142.057 180.648 142.057C181.015 142.057 181.364 142.008 181.693 141.909C182.027 141.807 182.328 141.657 182.597 141.46C182.866 141.263 183.093 141.023 183.278 140.739C183.468 140.451 183.598 140.121 183.67 139.75L185.443 139.756C185.348 140.328 185.165 140.854 184.892 141.335C184.623 141.812 184.277 142.225 183.852 142.574C183.432 142.919 182.951 143.186 182.409 143.375C181.867 143.564 181.277 143.659 180.636 143.659C179.629 143.659 178.731 143.42 177.943 142.943C177.155 142.462 176.534 141.775 176.08 140.881C175.629 139.987 175.403 138.92 175.403 137.682C175.403 136.439 175.631 135.373 176.085 134.483C176.54 133.589 177.161 132.903 177.949 132.426C178.737 131.945 179.633 131.705 180.636 131.705C181.254 131.705 181.83 131.794 182.364 131.972C182.902 132.146 183.384 132.403 183.812 132.744C184.241 133.081 184.595 133.494 184.875 133.983C185.155 134.468 185.345 135.023 185.443 135.648ZM191.084 143.676C190.266 143.676 189.552 143.489 188.942 143.114C188.332 142.739 187.858 142.214 187.521 141.54C187.184 140.866 187.016 140.078 187.016 139.176C187.016 138.271 187.184 137.479 187.521 136.801C187.858 136.123 188.332 135.597 188.942 135.222C189.552 134.847 190.266 134.659 191.084 134.659C191.902 134.659 192.616 134.847 193.226 135.222C193.836 135.597 194.309 136.123 194.646 136.801C194.983 137.479 195.152 138.271 195.152 139.176C195.152 140.078 194.983 140.866 194.646 141.54C194.309 142.214 193.836 142.739 193.226 143.114C192.616 143.489 191.902 143.676 191.084 143.676ZM191.089 142.25C191.62 142.25 192.059 142.11 192.408 141.83C192.756 141.549 193.014 141.176 193.18 140.71C193.351 140.244 193.436 139.731 193.436 139.17C193.436 138.614 193.351 138.102 193.18 137.636C193.014 137.167 192.756 136.79 192.408 136.506C192.059 136.222 191.62 136.08 191.089 136.08C190.555 136.08 190.112 136.222 189.76 136.506C189.411 136.79 189.152 137.167 188.982 137.636C188.815 138.102 188.732 138.614 188.732 139.17C188.732 139.731 188.815 140.244 188.982 140.71C189.152 141.176 189.411 141.549 189.76 141.83C190.112 142.11 190.555 142.25 191.089 142.25ZM197.048 143.5V134.773H198.679V136.193H198.787C198.969 135.712 199.266 135.337 199.679 135.068C200.092 134.795 200.586 134.659 201.162 134.659C201.745 134.659 202.234 134.795 202.628 135.068C203.026 135.341 203.319 135.716 203.509 136.193H203.599C203.808 135.727 204.139 135.356 204.594 135.08C205.048 134.799 205.59 134.659 206.219 134.659C207.01 134.659 207.656 134.907 208.156 135.403C208.66 135.9 208.912 136.648 208.912 137.648V143.5H207.213V137.807C207.213 137.216 207.052 136.788 206.73 136.523C206.408 136.258 206.024 136.125 205.577 136.125C205.024 136.125 204.594 136.295 204.287 136.636C203.98 136.973 203.827 137.407 203.827 137.938V143.5H202.134V137.699C202.134 137.225 201.986 136.845 201.69 136.557C201.395 136.269 201.01 136.125 200.537 136.125C200.215 136.125 199.918 136.21 199.645 136.381C199.376 136.547 199.158 136.78 198.991 137.08C198.829 137.379 198.747 137.725 198.747 138.119V143.5H197.048ZM211.189 146.773V134.773H212.848V136.188H212.99C213.089 136.006 213.231 135.795 213.416 135.557C213.602 135.318 213.859 135.11 214.189 134.932C214.518 134.75 214.954 134.659 215.496 134.659C216.2 134.659 216.829 134.837 217.382 135.193C217.935 135.549 218.369 136.062 218.683 136.733C219.001 137.403 219.161 138.21 219.161 139.153C219.161 140.097 219.003 140.905 218.689 141.58C218.375 142.25 217.943 142.767 217.393 143.131C216.844 143.491 216.217 143.67 215.513 143.67C214.982 143.67 214.549 143.581 214.212 143.403C213.878 143.225 213.617 143.017 213.428 142.778C213.238 142.54 213.092 142.328 212.99 142.142H212.888V146.773H211.189ZM212.854 139.136C212.854 139.75 212.943 140.288 213.121 140.75C213.299 141.212 213.556 141.574 213.893 141.835C214.231 142.093 214.643 142.222 215.132 142.222C215.64 142.222 216.064 142.087 216.405 141.818C216.746 141.545 217.003 141.176 217.178 140.71C217.356 140.244 217.445 139.72 217.445 139.136C217.445 138.561 217.357 138.044 217.183 137.585C217.013 137.127 216.755 136.765 216.411 136.5C216.07 136.235 215.643 136.102 215.132 136.102C214.64 136.102 214.223 136.229 213.882 136.483C213.545 136.737 213.289 137.091 213.115 137.545C212.941 138 212.854 138.53 212.854 139.136ZM224.74 143.676C223.922 143.676 223.208 143.489 222.598 143.114C221.988 142.739 221.515 142.214 221.178 141.54C220.84 140.866 220.672 140.078 220.672 139.176C220.672 138.271 220.84 137.479 221.178 136.801C221.515 136.123 221.988 135.597 222.598 135.222C223.208 134.847 223.922 134.659 224.74 134.659C225.558 134.659 226.272 134.847 226.882 135.222C227.492 135.597 227.965 136.123 228.303 136.801C228.64 137.479 228.808 138.271 228.808 139.176C228.808 140.078 228.64 140.866 228.303 141.54C227.965 142.214 227.492 142.739 226.882 143.114C226.272 143.489 225.558 143.676 224.74 143.676ZM224.746 142.25C225.276 142.25 225.715 142.11 226.064 141.83C226.412 141.549 226.67 141.176 226.837 140.71C227.007 140.244 227.092 139.731 227.092 139.17C227.092 138.614 227.007 138.102 226.837 137.636C226.67 137.167 226.412 136.79 226.064 136.506C225.715 136.222 225.276 136.08 224.746 136.08C224.212 136.08 223.768 136.222 223.416 136.506C223.068 136.79 222.808 137.167 222.638 137.636C222.471 138.102 222.388 138.614 222.388 139.17C222.388 139.731 222.471 140.244 222.638 140.71C222.808 141.176 223.068 141.549 223.416 141.83C223.768 142.11 224.212 142.25 224.746 142.25ZM232.403 138.318V143.5H230.705V134.773H232.335V136.193H232.443C232.644 135.731 232.958 135.36 233.386 135.08C233.818 134.799 234.362 134.659 235.017 134.659C235.612 134.659 236.133 134.784 236.58 135.034C237.027 135.28 237.373 135.648 237.619 136.136C237.866 136.625 237.989 137.229 237.989 137.949V143.5H236.29V138.153C236.29 137.521 236.125 137.027 235.795 136.67C235.466 136.311 235.013 136.131 234.438 136.131C234.044 136.131 233.693 136.216 233.386 136.386C233.083 136.557 232.843 136.807 232.665 137.136C232.491 137.462 232.403 137.856 232.403 138.318ZM244.028 143.676C243.169 143.676 242.428 143.492 241.807 143.125C241.189 142.754 240.712 142.233 240.375 141.562C240.042 140.888 239.875 140.098 239.875 139.193C239.875 138.299 240.042 137.511 240.375 136.83C240.712 136.148 241.182 135.616 241.784 135.233C242.39 134.85 243.098 134.659 243.909 134.659C244.402 134.659 244.879 134.741 245.341 134.903C245.803 135.066 246.218 135.322 246.585 135.67C246.953 136.019 247.242 136.472 247.455 137.028C247.667 137.581 247.773 138.254 247.773 139.045V139.648H240.835V138.375H246.108C246.108 137.928 246.017 137.532 245.835 137.188C245.653 136.839 245.398 136.564 245.068 136.364C244.742 136.163 244.36 136.062 243.92 136.062C243.443 136.062 243.027 136.18 242.67 136.415C242.318 136.646 242.045 136.949 241.852 137.324C241.663 137.695 241.568 138.098 241.568 138.534V139.528C241.568 140.112 241.67 140.608 241.875 141.017C242.083 141.426 242.373 141.739 242.744 141.955C243.116 142.167 243.549 142.273 244.045 142.273C244.367 142.273 244.661 142.227 244.926 142.136C245.191 142.042 245.42 141.902 245.614 141.716C245.807 141.53 245.955 141.301 246.057 141.028L247.665 141.318C247.536 141.792 247.305 142.206 246.972 142.562C246.642 142.915 246.227 143.189 245.727 143.386C245.231 143.58 244.665 143.676 244.028 143.676ZM251.357 138.318V143.5H249.658V134.773H251.288V136.193H251.396C251.597 135.731 251.911 135.36 252.339 135.08C252.771 134.799 253.315 134.659 253.97 134.659C254.565 134.659 255.086 134.784 255.533 135.034C255.98 135.28 256.326 135.648 256.572 136.136C256.819 136.625 256.942 137.229 256.942 137.949V143.5H255.243V138.153C255.243 137.521 255.078 137.027 254.749 136.67C254.419 136.311 253.966 136.131 253.391 136.131C252.997 136.131 252.646 136.216 252.339 136.386C252.036 136.557 251.796 136.807 251.618 137.136C251.444 137.462 251.357 137.856 251.357 138.318ZM263.294 134.773V136.136H258.527V134.773H263.294ZM259.805 132.682H261.504V140.938C261.504 141.267 261.554 141.515 261.652 141.682C261.75 141.845 261.877 141.956 262.033 142.017C262.192 142.074 262.364 142.102 262.55 142.102C262.686 142.102 262.805 142.093 262.908 142.074C263.01 142.055 263.089 142.04 263.146 142.028L263.453 143.432C263.355 143.47 263.214 143.508 263.033 143.545C262.851 143.587 262.624 143.61 262.351 143.614C261.904 143.621 261.487 143.542 261.101 143.375C260.714 143.208 260.402 142.951 260.163 142.602C259.925 142.254 259.805 141.816 259.805 141.29V132.682ZM271.572 136.903L270.033 137.176C269.968 136.979 269.866 136.792 269.726 136.614C269.589 136.436 269.404 136.29 269.169 136.176C268.934 136.062 268.641 136.006 268.288 136.006C267.807 136.006 267.406 136.114 267.084 136.33C266.762 136.542 266.601 136.816 266.601 137.153C266.601 137.445 266.709 137.68 266.925 137.858C267.141 138.036 267.489 138.182 267.97 138.295L269.357 138.614C270.16 138.799 270.758 139.085 271.152 139.472C271.546 139.858 271.743 140.36 271.743 140.977C271.743 141.5 271.591 141.966 271.288 142.375C270.989 142.78 270.571 143.098 270.033 143.33C269.499 143.561 268.879 143.676 268.175 143.676C267.197 143.676 266.4 143.468 265.783 143.051C265.165 142.631 264.786 142.034 264.646 141.261L266.288 141.011C266.391 141.439 266.601 141.763 266.919 141.983C267.237 142.199 267.652 142.307 268.163 142.307C268.72 142.307 269.165 142.191 269.499 141.96C269.832 141.725 269.999 141.439 269.999 141.102C269.999 140.83 269.896 140.6 269.692 140.415C269.491 140.229 269.182 140.089 268.766 139.994L267.288 139.67C266.474 139.485 265.872 139.189 265.482 138.784C265.095 138.379 264.902 137.866 264.902 137.244C264.902 136.729 265.046 136.278 265.334 135.892C265.622 135.506 266.019 135.205 266.527 134.989C267.035 134.769 267.616 134.659 268.271 134.659C269.214 134.659 269.957 134.864 270.499 135.273C271.04 135.678 271.398 136.222 271.572 136.903ZM175.778 167.5V155.864H177.534V165.989H182.807V167.5H175.778ZM184.673 167.5V158.773H186.372V167.5H184.673ZM185.531 157.426C185.236 157.426 184.982 157.328 184.77 157.131C184.562 156.93 184.457 156.691 184.457 156.415C184.457 156.134 184.562 155.896 184.77 155.699C184.982 155.498 185.236 155.398 185.531 155.398C185.827 155.398 186.079 155.498 186.287 155.699C186.499 155.896 186.605 156.134 186.605 156.415C186.605 156.691 186.499 156.93 186.287 157.131C186.079 157.328 185.827 157.426 185.531 157.426ZM188.794 167.5V155.864H190.493V160.188H190.595C190.694 160.006 190.836 159.795 191.021 159.557C191.207 159.318 191.464 159.11 191.794 158.932C192.124 158.75 192.559 158.659 193.101 158.659C193.805 158.659 194.434 158.837 194.987 159.193C195.54 159.549 195.974 160.062 196.288 160.733C196.607 161.403 196.766 162.21 196.766 163.153C196.766 164.097 196.608 164.905 196.294 165.58C195.98 166.25 195.548 166.767 194.999 167.131C194.449 167.491 193.822 167.67 193.118 167.67C192.588 167.67 192.154 167.581 191.817 167.403C191.483 167.225 191.222 167.017 191.033 166.778C190.843 166.54 190.697 166.328 190.595 166.142H190.453V167.5H188.794ZM190.459 163.136C190.459 163.75 190.548 164.288 190.726 164.75C190.904 165.212 191.161 165.574 191.499 165.835C191.836 166.093 192.249 166.222 192.737 166.222C193.245 166.222 193.669 166.087 194.01 165.818C194.351 165.545 194.608 165.176 194.783 164.71C194.961 164.244 195.05 163.72 195.05 163.136C195.05 162.561 194.963 162.044 194.788 161.585C194.618 161.127 194.36 160.765 194.016 160.5C193.675 160.235 193.249 160.102 192.737 160.102C192.245 160.102 191.828 160.229 191.487 160.483C191.15 160.737 190.894 161.091 190.72 161.545C190.546 162 190.459 162.53 190.459 163.136ZM198.673 167.5V158.773H200.315V160.159H200.406C200.565 159.689 200.846 159.32 201.247 159.051C201.652 158.778 202.111 158.642 202.622 158.642C202.728 158.642 202.853 158.646 202.997 158.653C203.145 158.661 203.26 158.67 203.344 158.682V160.307C203.276 160.288 203.154 160.267 202.98 160.244C202.806 160.218 202.632 160.205 202.457 160.205C202.056 160.205 201.698 160.29 201.384 160.46C201.073 160.627 200.827 160.86 200.645 161.159C200.463 161.455 200.372 161.792 200.372 162.17V167.5H198.673ZM207.276 167.693C206.723 167.693 206.223 167.591 205.776 167.386C205.329 167.178 204.974 166.877 204.713 166.483C204.455 166.089 204.327 165.606 204.327 165.034C204.327 164.542 204.421 164.136 204.611 163.818C204.8 163.5 205.056 163.248 205.378 163.062C205.7 162.877 206.06 162.737 206.457 162.642C206.855 162.547 207.26 162.475 207.673 162.426C208.196 162.366 208.62 162.316 208.946 162.278C209.272 162.237 209.509 162.17 209.656 162.08C209.804 161.989 209.878 161.841 209.878 161.636V161.597C209.878 161.1 209.738 160.716 209.457 160.443C209.181 160.17 208.768 160.034 208.219 160.034C207.647 160.034 207.196 160.161 206.866 160.415C206.541 160.665 206.315 160.943 206.19 161.25L204.594 160.886C204.783 160.356 205.06 159.928 205.423 159.602C205.791 159.273 206.213 159.034 206.69 158.886C207.168 158.735 207.67 158.659 208.196 158.659C208.545 158.659 208.914 158.701 209.304 158.784C209.698 158.864 210.065 159.011 210.406 159.227C210.751 159.443 211.033 159.752 211.253 160.153C211.473 160.551 211.582 161.068 211.582 161.705V167.5H209.923V166.307H209.855C209.745 166.527 209.58 166.742 209.361 166.955C209.141 167.167 208.859 167.343 208.514 167.483C208.17 167.623 207.757 167.693 207.276 167.693ZM207.645 166.33C208.115 166.33 208.516 166.237 208.849 166.051C209.187 165.866 209.442 165.623 209.616 165.324C209.795 165.021 209.884 164.697 209.884 164.352V163.227C209.823 163.288 209.705 163.345 209.531 163.398C209.361 163.447 209.166 163.491 208.946 163.528C208.726 163.562 208.512 163.595 208.304 163.625C208.096 163.652 207.921 163.674 207.781 163.693C207.452 163.735 207.151 163.805 206.878 163.903C206.609 164.002 206.393 164.144 206.23 164.33C206.071 164.511 205.991 164.754 205.991 165.057C205.991 165.477 206.147 165.795 206.457 166.011C206.768 166.223 207.164 166.33 207.645 166.33ZM213.845 167.5V158.773H215.487V160.159H215.578C215.737 159.689 216.018 159.32 216.419 159.051C216.824 158.778 217.283 158.642 217.794 158.642C217.9 158.642 218.025 158.646 218.169 158.653C218.317 158.661 218.432 158.67 218.516 158.682V160.307C218.447 160.288 218.326 160.267 218.152 160.244C217.978 160.218 217.804 160.205 217.629 160.205C217.228 160.205 216.87 160.29 216.555 160.46C216.245 160.627 215.999 160.86 215.817 161.159C215.635 161.455 215.544 161.792 215.544 162.17V167.5H213.845ZM221.325 170.773C221.071 170.773 220.84 170.752 220.632 170.71C220.424 170.672 220.268 170.631 220.166 170.585L220.575 169.193C220.886 169.277 221.162 169.313 221.405 169.301C221.647 169.29 221.861 169.199 222.047 169.028C222.236 168.858 222.403 168.58 222.547 168.193L222.757 167.614L219.564 158.773H221.382L223.592 165.545H223.683L225.893 158.773H227.717L224.121 168.665C223.954 169.119 223.742 169.504 223.484 169.818C223.227 170.136 222.92 170.375 222.564 170.534C222.208 170.693 221.795 170.773 221.325 170.773Z" fill="white"/>
<path d="M306 152C379.5 152 386 99 448 99" stroke="white" stroke-linecap="round" stroke-linejoin="round"/>
<path d="M306 152C379.5 152 386 204.5 448 204.5" stroke="white" stroke-linecap="round" stroke-linejoin="round"/>
<rect x="451" y="61" width="162" height="74" stroke="white"/>
<path d="M479.778 92.5V80.8636H486.994V82.375H481.534V85.9205H486.477V87.4261H481.534V92.5H479.778ZM489.017 92.5V83.7727H490.716V92.5H489.017ZM489.875 82.4261C489.58 82.4261 489.326 82.3277 489.114 82.1307C488.905 81.9299 488.801 81.6913 488.801 81.4148C488.801 81.1345 488.905 80.8958 489.114 80.6989C489.326 80.4981 489.58 80.3977 489.875 80.3977C490.17 80.3977 490.422 80.4981 490.631 80.6989C490.843 80.8958 490.949 81.1345 490.949 81.4148C490.949 81.6913 490.843 81.9299 490.631 82.1307C490.422 82.3277 490.17 82.4261 489.875 82.4261ZM494.7 87.3182V92.5H493.001V83.7727H494.632V85.1932H494.74C494.941 84.7311 495.255 84.3598 495.683 84.0795C496.115 83.7992 496.659 83.6591 497.314 83.6591C497.909 83.6591 498.429 83.7841 498.876 84.0341C499.323 84.2803 499.67 84.6477 499.916 85.1364C500.162 85.625 500.286 86.2292 500.286 86.9489V92.5H498.587V87.1534C498.587 86.5208 498.422 86.0265 498.092 85.6705C497.763 85.3106 497.31 85.1307 496.734 85.1307C496.34 85.1307 495.99 85.2159 495.683 85.3864C495.38 85.5568 495.14 85.8068 494.962 86.1364C494.787 86.4621 494.7 86.8561 494.7 87.3182ZM505.104 92.6932C504.551 92.6932 504.051 92.5909 503.604 92.3864C503.157 92.178 502.803 91.8769 502.541 91.483C502.284 91.089 502.155 90.6061 502.155 90.0341C502.155 89.5417 502.25 89.1364 502.439 88.8182C502.628 88.5 502.884 88.2481 503.206 88.0625C503.528 87.8769 503.888 87.7367 504.286 87.642C504.683 87.5473 505.089 87.4754 505.501 87.4261C506.024 87.3655 506.448 87.3163 506.774 87.2784C507.1 87.2367 507.337 87.1705 507.484 87.0795C507.632 86.9886 507.706 86.8409 507.706 86.6364V86.5966C507.706 86.1004 507.566 85.7159 507.286 85.4432C507.009 85.1705 506.596 85.0341 506.047 85.0341C505.475 85.0341 505.024 85.161 504.695 85.4148C504.369 85.6648 504.143 85.9432 504.018 86.25L502.422 85.8864C502.611 85.3561 502.888 84.928 503.251 84.6023C503.619 84.2727 504.041 84.0341 504.518 83.8864C504.996 83.7348 505.498 83.6591 506.024 83.6591C506.373 83.6591 506.742 83.7008 507.132 83.7841C507.526 83.8636 507.893 84.0114 508.234 84.2273C508.579 84.4432 508.861 84.7519 509.081 85.1534C509.301 85.5511 509.411 86.0682 509.411 86.7045V92.5H507.751V91.3068H507.683C507.573 91.5265 507.409 91.7424 507.189 91.9545C506.969 92.1667 506.687 92.3428 506.342 92.483C505.998 92.6231 505.585 92.6932 505.104 92.6932ZM505.473 91.3295C505.943 91.3295 506.344 91.2367 506.678 91.0511C507.015 90.8655 507.27 90.6231 507.445 90.3239C507.623 90.0208 507.712 89.697 507.712 89.3523V88.2273C507.651 88.2879 507.534 88.3447 507.359 88.3977C507.189 88.447 506.994 88.4905 506.774 88.5284C506.554 88.5625 506.34 88.5947 506.132 88.625C505.924 88.6515 505.75 88.6742 505.609 88.6932C505.28 88.7348 504.979 88.8049 504.706 88.9034C504.437 89.0019 504.221 89.1439 504.058 89.3295C503.899 89.5114 503.82 89.7538 503.82 90.0568C503.82 90.4773 503.975 90.7955 504.286 91.0114C504.596 91.2235 504.992 91.3295 505.473 91.3295ZM513.372 80.8636V92.5H511.673V80.8636H513.372ZM515.658 92.5V83.7727H517.357V92.5H515.658ZM516.516 82.4261C516.22 82.4261 515.966 82.3277 515.754 82.1307C515.546 81.9299 515.442 81.6913 515.442 81.4148C515.442 81.1345 515.546 80.8958 515.754 80.6989C515.966 80.4981 516.22 80.3977 516.516 80.3977C516.811 80.3977 517.063 80.4981 517.271 80.6989C517.483 80.8958 517.589 81.1345 517.589 81.4148C517.589 81.6913 517.483 81.9299 517.271 82.1307C517.063 82.3277 516.811 82.4261 516.516 82.4261ZM519.46 92.5V91.3352L524.188 85.3295V85.25H519.614V83.7727H526.307V85.0114L521.761 90.9432V91.0227H526.466V92.5H519.46ZM531.982 92.6761C531.122 92.6761 530.381 92.4924 529.76 92.125C529.143 91.7538 528.665 91.233 528.328 90.5625C527.995 89.8883 527.828 89.0985 527.828 88.1932C527.828 87.2992 527.995 86.5114 528.328 85.8295C528.665 85.1477 529.135 84.6155 529.737 84.233C530.343 83.8504 531.052 83.6591 531.862 83.6591C532.355 83.6591 532.832 83.7405 533.294 83.9034C533.756 84.0663 534.171 84.322 534.538 84.6705C534.906 85.0189 535.196 85.4716 535.408 86.0284C535.62 86.5814 535.726 87.2538 535.726 88.0455V88.6477H528.788V87.375H534.061C534.061 86.928 533.97 86.5322 533.788 86.1875C533.607 85.839 533.351 85.5644 533.021 85.3636C532.696 85.1629 532.313 85.0625 531.874 85.0625C531.396 85.0625 530.98 85.1799 530.624 85.4148C530.271 85.6458 529.999 85.9489 529.805 86.3239C529.616 86.6951 529.521 87.0985 529.521 87.5341V88.5284C529.521 89.1117 529.624 89.608 529.828 90.017C530.036 90.4261 530.326 90.7386 530.697 90.9545C531.069 91.1667 531.502 91.2727 531.999 91.2727C532.321 91.2727 532.614 91.2273 532.879 91.1364C533.144 91.0417 533.374 90.9015 533.567 90.7159C533.76 90.5303 533.908 90.3011 534.01 90.0284L535.618 90.3182C535.489 90.7917 535.258 91.2064 534.925 91.5625C534.595 91.9148 534.18 92.1894 533.68 92.3864C533.184 92.5795 532.618 92.6761 531.982 92.6761ZM540.878 92.6705C540.173 92.6705 539.545 92.4905 538.991 92.1307C538.442 91.767 538.01 91.25 537.696 90.5795C537.385 89.9053 537.23 89.0966 537.23 88.1534C537.23 87.2102 537.387 86.4034 537.702 85.733C538.02 85.0625 538.455 84.5492 539.009 84.1932C539.562 83.8371 540.188 83.6591 540.889 83.6591C541.431 83.6591 541.866 83.75 542.196 83.9318C542.529 84.1098 542.787 84.3182 542.969 84.5568C543.154 84.7955 543.298 85.0057 543.401 85.1875H543.503V80.8636H545.202V92.5H543.543V91.142H543.401C543.298 91.3277 543.151 91.5398 542.957 91.7784C542.768 92.017 542.507 92.2254 542.173 92.4034C541.84 92.5814 541.408 92.6705 540.878 92.6705ZM541.253 91.2216C541.741 91.2216 542.154 91.0928 542.491 90.8352C542.832 90.5739 543.09 90.2121 543.264 89.75C543.442 89.2879 543.531 88.75 543.531 88.1364C543.531 87.5303 543.444 87 543.27 86.5455C543.096 86.0909 542.84 85.7367 542.503 85.483C542.166 85.2292 541.749 85.1023 541.253 85.1023C540.741 85.1023 540.315 85.2348 539.974 85.5C539.634 85.7652 539.376 86.1269 539.202 86.5852C539.031 87.0436 538.946 87.5606 538.946 88.1364C538.946 88.7197 539.033 89.2443 539.207 89.7102C539.382 90.1761 539.639 90.5455 539.98 90.8182C540.325 91.0871 540.749 91.2216 541.253 91.2216ZM482.909 116.67C482.205 116.67 481.576 116.491 481.023 116.131C480.473 115.767 480.042 115.25 479.727 114.58C479.417 113.905 479.261 113.097 479.261 112.153C479.261 111.21 479.419 110.403 479.733 109.733C480.051 109.062 480.487 108.549 481.04 108.193C481.593 107.837 482.22 107.659 482.92 107.659C483.462 107.659 483.898 107.75 484.227 107.932C484.561 108.11 484.818 108.318 485 108.557C485.186 108.795 485.33 109.006 485.432 109.188H485.534V104.864H487.233V116.5H485.574V115.142H485.432C485.33 115.328 485.182 115.54 484.989 115.778C484.799 116.017 484.538 116.225 484.205 116.403C483.871 116.581 483.439 116.67 482.909 116.67ZM483.284 115.222C483.773 115.222 484.186 115.093 484.523 114.835C484.864 114.574 485.121 114.212 485.295 113.75C485.473 113.288 485.562 112.75 485.562 112.136C485.562 111.53 485.475 111 485.301 110.545C485.127 110.091 484.871 109.737 484.534 109.483C484.197 109.229 483.78 109.102 483.284 109.102C482.773 109.102 482.347 109.235 482.006 109.5C481.665 109.765 481.407 110.127 481.233 110.585C481.063 111.044 480.977 111.561 480.977 112.136C480.977 112.72 481.064 113.244 481.239 113.71C481.413 114.176 481.67 114.545 482.011 114.818C482.356 115.087 482.78 115.222 483.284 115.222ZM493.419 116.676C492.559 116.676 491.819 116.492 491.197 116.125C490.58 115.754 490.103 115.233 489.766 114.562C489.432 113.888 489.266 113.098 489.266 112.193C489.266 111.299 489.432 110.511 489.766 109.83C490.103 109.148 490.572 108.616 491.175 108.233C491.781 107.85 492.489 107.659 493.3 107.659C493.792 107.659 494.269 107.741 494.732 107.903C495.194 108.066 495.608 108.322 495.976 108.67C496.343 109.019 496.633 109.472 496.845 110.028C497.057 110.581 497.163 111.254 497.163 112.045V112.648H490.226V111.375H495.499C495.499 110.928 495.408 110.532 495.226 110.188C495.044 109.839 494.788 109.564 494.459 109.364C494.133 109.163 493.75 109.062 493.311 109.062C492.834 109.062 492.417 109.18 492.061 109.415C491.709 109.646 491.436 109.949 491.243 110.324C491.054 110.695 490.959 111.098 490.959 111.534V112.528C490.959 113.112 491.061 113.608 491.266 114.017C491.474 114.426 491.764 114.739 492.135 114.955C492.506 115.167 492.94 115.273 493.436 115.273C493.758 115.273 494.052 115.227 494.317 115.136C494.582 115.042 494.811 114.902 495.004 114.716C495.197 114.53 495.345 114.301 495.447 114.028L497.055 114.318C496.927 114.792 496.696 115.206 496.362 115.562C496.033 115.915 495.618 116.189 495.118 116.386C494.622 116.58 494.055 116.676 493.419 116.676ZM505.588 109.903L504.048 110.176C503.984 109.979 503.882 109.792 503.741 109.614C503.605 109.436 503.42 109.29 503.185 109.176C502.95 109.062 502.656 109.006 502.304 109.006C501.823 109.006 501.421 109.114 501.099 109.33C500.777 109.542 500.616 109.816 500.616 110.153C500.616 110.445 500.724 110.68 500.94 110.858C501.156 111.036 501.505 111.182 501.986 111.295L503.372 111.614C504.175 111.799 504.774 112.085 505.168 112.472C505.562 112.858 505.759 113.36 505.759 113.977C505.759 114.5 505.607 114.966 505.304 115.375C505.005 115.78 504.586 116.098 504.048 116.33C503.514 116.561 502.895 116.676 502.19 116.676C501.213 116.676 500.416 116.468 499.798 116.051C499.181 115.631 498.802 115.034 498.662 114.261L500.304 114.011C500.406 114.439 500.616 114.763 500.935 114.983C501.253 115.199 501.668 115.307 502.179 115.307C502.736 115.307 503.181 115.191 503.514 114.96C503.848 114.725 504.014 114.439 504.014 114.102C504.014 113.83 503.912 113.6 503.707 113.415C503.507 113.229 503.198 113.089 502.781 112.994L501.304 112.67C500.49 112.485 499.887 112.189 499.497 111.784C499.111 111.379 498.918 110.866 498.918 110.244C498.918 109.729 499.062 109.278 499.349 108.892C499.637 108.506 500.035 108.205 500.543 107.989C501.05 107.769 501.632 107.659 502.287 107.659C503.23 107.659 503.973 107.864 504.514 108.273C505.056 108.678 505.414 109.222 505.588 109.903ZM507.626 116.5V107.773H509.325V116.5H507.626ZM508.484 106.426C508.189 106.426 507.935 106.328 507.723 106.131C507.515 105.93 507.411 105.691 507.411 105.415C507.411 105.134 507.515 104.896 507.723 104.699C507.935 104.498 508.189 104.398 508.484 104.398C508.78 104.398 509.032 104.498 509.24 104.699C509.452 104.896 509.558 105.134 509.558 105.415C509.558 105.691 509.452 105.93 509.24 106.131C509.032 106.328 508.78 106.426 508.484 106.426ZM515.27 119.955C514.577 119.955 513.98 119.864 513.48 119.682C512.984 119.5 512.579 119.259 512.264 118.96C511.95 118.661 511.715 118.333 511.56 117.977L513.02 117.375C513.122 117.542 513.259 117.718 513.429 117.903C513.603 118.093 513.838 118.254 514.134 118.386C514.433 118.519 514.817 118.585 515.287 118.585C515.931 118.585 516.463 118.428 516.884 118.114C517.304 117.803 517.514 117.307 517.514 116.625V114.909H517.406C517.304 115.095 517.156 115.301 516.963 115.528C516.774 115.756 516.512 115.953 516.179 116.119C515.846 116.286 515.412 116.369 514.878 116.369C514.188 116.369 513.567 116.208 513.014 115.886C512.465 115.561 512.029 115.081 511.707 114.449C511.389 113.812 511.23 113.03 511.23 112.102C511.23 111.174 511.387 110.379 511.702 109.716C512.02 109.053 512.455 108.545 513.009 108.193C513.562 107.837 514.188 107.659 514.889 107.659C515.431 107.659 515.868 107.75 516.202 107.932C516.535 108.11 516.795 108.318 516.98 108.557C517.17 108.795 517.315 109.006 517.418 109.188H517.543V107.773H519.207V116.693C519.207 117.443 519.033 118.059 518.685 118.54C518.336 119.021 517.865 119.377 517.27 119.608C516.679 119.839 516.012 119.955 515.27 119.955ZM515.253 114.96C515.741 114.96 516.154 114.847 516.491 114.619C516.832 114.388 517.09 114.059 517.264 113.631C517.442 113.199 517.531 112.682 517.531 112.08C517.531 111.492 517.444 110.975 517.27 110.528C517.096 110.081 516.84 109.733 516.503 109.483C516.166 109.229 515.749 109.102 515.253 109.102C514.741 109.102 514.315 109.235 513.974 109.5C513.634 109.761 513.376 110.117 513.202 110.568C513.031 111.019 512.946 111.523 512.946 112.08C512.946 112.652 513.033 113.153 513.207 113.585C513.382 114.017 513.639 114.354 513.98 114.597C514.325 114.839 514.749 114.96 515.253 114.96ZM523.185 111.318V116.5H521.486V107.773H523.116V109.193H523.224C523.425 108.731 523.74 108.36 524.168 108.08C524.599 107.799 525.143 107.659 525.798 107.659C526.393 107.659 526.914 107.784 527.361 108.034C527.808 108.28 528.154 108.648 528.401 109.136C528.647 109.625 528.77 110.229 528.77 110.949V116.5H527.071V111.153C527.071 110.521 526.906 110.027 526.577 109.67C526.247 109.311 525.795 109.131 525.219 109.131C524.825 109.131 524.474 109.216 524.168 109.386C523.865 109.557 523.624 109.807 523.446 110.136C523.272 110.462 523.185 110.856 523.185 111.318Z" fill="white"/>
<rect x="451" y="165" width="162" height="74" stroke="white"/>
<path d="M480.534 184.864V196.5H478.778V184.864H480.534ZM484.653 191.318V196.5H482.955V187.773H484.585V189.193H484.693C484.894 188.731 485.208 188.36 485.636 188.08C486.068 187.799 486.612 187.659 487.267 187.659C487.862 187.659 488.383 187.784 488.83 188.034C489.277 188.28 489.623 188.648 489.869 189.136C490.116 189.625 490.239 190.229 490.239 190.949V196.5H488.54V191.153C488.54 190.521 488.375 190.027 488.045 189.67C487.716 189.311 487.263 189.131 486.688 189.131C486.294 189.131 485.943 189.216 485.636 189.386C485.333 189.557 485.093 189.807 484.915 190.136C484.741 190.462 484.653 190.856 484.653 191.318ZM496.591 187.773V189.136H491.824V187.773H496.591ZM493.102 185.682H494.801V193.938C494.801 194.267 494.85 194.515 494.949 194.682C495.047 194.845 495.174 194.956 495.33 195.017C495.489 195.074 495.661 195.102 495.847 195.102C495.983 195.102 496.102 195.093 496.205 195.074C496.307 195.055 496.386 195.04 496.443 195.028L496.75 196.432C496.652 196.47 496.511 196.508 496.33 196.545C496.148 196.587 495.92 196.61 495.648 196.614C495.201 196.621 494.784 196.542 494.398 196.375C494.011 196.208 493.699 195.951 493.46 195.602C493.222 195.254 493.102 194.816 493.102 194.29V185.682ZM502.138 196.676C501.278 196.676 500.537 196.492 499.916 196.125C499.299 195.754 498.821 195.233 498.484 194.562C498.151 193.888 497.984 193.098 497.984 192.193C497.984 191.299 498.151 190.511 498.484 189.83C498.821 189.148 499.291 188.616 499.893 188.233C500.5 187.85 501.208 187.659 502.018 187.659C502.511 187.659 502.988 187.741 503.45 187.903C503.912 188.066 504.327 188.322 504.695 188.67C505.062 189.019 505.352 189.472 505.564 190.028C505.776 190.581 505.882 191.254 505.882 192.045V192.648H498.945V191.375H504.217C504.217 190.928 504.126 190.532 503.945 190.188C503.763 189.839 503.507 189.564 503.178 189.364C502.852 189.163 502.469 189.062 502.03 189.062C501.553 189.062 501.136 189.18 500.78 189.415C500.428 189.646 500.155 189.949 499.962 190.324C499.772 190.695 499.678 191.098 499.678 191.534V192.528C499.678 193.112 499.78 193.608 499.984 194.017C500.193 194.426 500.482 194.739 500.854 194.955C501.225 195.167 501.659 195.273 502.155 195.273C502.477 195.273 502.77 195.227 503.036 195.136C503.301 195.042 503.53 194.902 503.723 194.716C503.916 194.53 504.064 194.301 504.166 194.028L505.774 194.318C505.645 194.792 505.414 195.206 505.081 195.562C504.751 195.915 504.337 196.189 503.837 196.386C503.34 196.58 502.774 196.676 502.138 196.676ZM507.767 196.5V187.773H509.409V189.159H509.5C509.659 188.689 509.939 188.32 510.341 188.051C510.746 187.778 511.205 187.642 511.716 187.642C511.822 187.642 511.947 187.646 512.091 187.653C512.239 187.661 512.354 187.67 512.438 187.682V189.307C512.369 189.288 512.248 189.267 512.074 189.244C511.9 189.218 511.725 189.205 511.551 189.205C511.15 189.205 510.792 189.29 510.477 189.46C510.167 189.627 509.92 189.86 509.739 190.159C509.557 190.455 509.466 190.792 509.466 191.17V196.5H507.767ZM516.369 196.693C515.816 196.693 515.316 196.591 514.869 196.386C514.422 196.178 514.068 195.877 513.807 195.483C513.549 195.089 513.42 194.606 513.42 194.034C513.42 193.542 513.515 193.136 513.705 192.818C513.894 192.5 514.15 192.248 514.472 192.062C514.794 191.877 515.153 191.737 515.551 191.642C515.949 191.547 516.354 191.475 516.767 191.426C517.29 191.366 517.714 191.316 518.04 191.278C518.366 191.237 518.602 191.17 518.75 191.08C518.898 190.989 518.972 190.841 518.972 190.636V190.597C518.972 190.1 518.831 189.716 518.551 189.443C518.275 189.17 517.862 189.034 517.312 189.034C516.741 189.034 516.29 189.161 515.96 189.415C515.634 189.665 515.409 189.943 515.284 190.25L513.688 189.886C513.877 189.356 514.153 188.928 514.517 188.602C514.884 188.273 515.307 188.034 515.784 187.886C516.261 187.735 516.763 187.659 517.29 187.659C517.638 187.659 518.008 187.701 518.398 187.784C518.792 187.864 519.159 188.011 519.5 188.227C519.845 188.443 520.127 188.752 520.347 189.153C520.566 189.551 520.676 190.068 520.676 190.705V196.5H519.017V195.307H518.949C518.839 195.527 518.674 195.742 518.455 195.955C518.235 196.167 517.953 196.343 517.608 196.483C517.263 196.623 516.85 196.693 516.369 196.693ZM516.739 195.33C517.208 195.33 517.61 195.237 517.943 195.051C518.28 194.866 518.536 194.623 518.71 194.324C518.888 194.021 518.977 193.697 518.977 193.352V192.227C518.917 192.288 518.799 192.345 518.625 192.398C518.455 192.447 518.259 192.491 518.04 192.528C517.82 192.562 517.606 192.595 517.398 192.625C517.189 192.652 517.015 192.674 516.875 192.693C516.545 192.735 516.244 192.805 515.972 192.903C515.703 193.002 515.487 193.144 515.324 193.33C515.165 193.511 515.085 193.754 515.085 194.057C515.085 194.477 515.241 194.795 515.551 195.011C515.862 195.223 516.258 195.33 516.739 195.33ZM526.615 196.676C525.77 196.676 525.043 196.485 524.433 196.102C523.827 195.716 523.361 195.184 523.036 194.506C522.71 193.828 522.547 193.051 522.547 192.176C522.547 191.29 522.714 190.508 523.047 189.83C523.38 189.148 523.85 188.616 524.456 188.233C525.062 187.85 525.776 187.659 526.598 187.659C527.261 187.659 527.852 187.782 528.371 188.028C528.89 188.271 529.308 188.612 529.626 189.051C529.948 189.491 530.14 190.004 530.2 190.591H528.547C528.456 190.182 528.248 189.83 527.922 189.534C527.6 189.239 527.168 189.091 526.626 189.091C526.153 189.091 525.738 189.216 525.382 189.466C525.03 189.712 524.755 190.064 524.558 190.523C524.361 190.977 524.263 191.515 524.263 192.136C524.263 192.773 524.359 193.322 524.553 193.784C524.746 194.246 525.018 194.604 525.371 194.858C525.727 195.112 526.145 195.239 526.626 195.239C526.948 195.239 527.24 195.18 527.501 195.062C527.767 194.941 527.988 194.769 528.166 194.545C528.348 194.322 528.475 194.053 528.547 193.739H530.2C530.14 194.303 529.956 194.807 529.649 195.25C529.342 195.693 528.931 196.042 528.416 196.295C527.905 196.549 527.304 196.676 526.615 196.676ZM536.091 187.773V189.136H531.324V187.773H536.091ZM532.602 185.682H534.301V193.938C534.301 194.267 534.35 194.515 534.449 194.682C534.547 194.845 534.674 194.956 534.83 195.017C534.989 195.074 535.161 195.102 535.347 195.102C535.483 195.102 535.602 195.093 535.705 195.074C535.807 195.055 535.886 195.04 535.943 195.028L536.25 196.432C536.152 196.47 536.011 196.508 535.83 196.545C535.648 196.587 535.42 196.61 535.148 196.614C534.701 196.621 534.284 196.542 533.898 196.375C533.511 196.208 533.199 195.951 532.96 195.602C532.722 195.254 532.602 194.816 532.602 194.29V185.682ZM537.97 196.5V187.773H539.669V196.5H537.97ZM538.828 186.426C538.533 186.426 538.279 186.328 538.067 186.131C537.858 185.93 537.754 185.691 537.754 185.415C537.754 185.134 537.858 184.896 538.067 184.699C538.279 184.498 538.533 184.398 538.828 184.398C539.124 184.398 539.375 184.498 539.584 184.699C539.796 184.896 539.902 185.134 539.902 185.415C539.902 185.691 539.796 185.93 539.584 186.131C539.375 186.328 539.124 186.426 538.828 186.426ZM549.42 187.773L546.256 196.5H544.438L541.267 187.773H543.091L545.301 194.489H545.392L547.597 187.773H549.42ZM554.482 196.676C553.622 196.676 552.881 196.492 552.26 196.125C551.643 195.754 551.165 195.233 550.828 194.562C550.495 193.888 550.328 193.098 550.328 192.193C550.328 191.299 550.495 190.511 550.828 189.83C551.165 189.148 551.635 188.616 552.237 188.233C552.843 187.85 553.552 187.659 554.362 187.659C554.855 187.659 555.332 187.741 555.794 187.903C556.256 188.066 556.671 188.322 557.038 188.67C557.406 189.019 557.696 189.472 557.908 190.028C558.12 190.581 558.226 191.254 558.226 192.045V192.648H551.288V191.375H556.561C556.561 190.928 556.47 190.532 556.288 190.188C556.107 189.839 555.851 189.564 555.521 189.364C555.196 189.163 554.813 189.062 554.374 189.062C553.896 189.062 553.48 189.18 553.124 189.415C552.771 189.646 552.499 189.949 552.305 190.324C552.116 190.695 552.021 191.098 552.021 191.534V192.528C552.021 193.112 552.124 193.608 552.328 194.017C552.536 194.426 552.826 194.739 553.197 194.955C553.569 195.167 554.002 195.273 554.499 195.273C554.821 195.273 555.114 195.227 555.379 195.136C555.644 195.042 555.874 194.902 556.067 194.716C556.26 194.53 556.408 194.301 556.51 194.028L558.118 194.318C557.989 194.792 557.758 195.206 557.425 195.562C557.095 195.915 556.68 196.189 556.18 196.386C555.684 196.58 555.118 196.676 554.482 196.676ZM488.443 212.648H486.67C486.602 212.269 486.475 211.936 486.29 211.648C486.104 211.36 485.877 211.116 485.608 210.915C485.339 210.714 485.038 210.562 484.705 210.46C484.375 210.358 484.025 210.307 483.653 210.307C482.983 210.307 482.383 210.475 481.852 210.812C481.326 211.15 480.909 211.644 480.602 212.295C480.299 212.947 480.148 213.742 480.148 214.682C480.148 215.629 480.299 216.428 480.602 217.08C480.909 217.731 481.328 218.223 481.858 218.557C482.388 218.89 482.985 219.057 483.648 219.057C484.015 219.057 484.364 219.008 484.693 218.909C485.027 218.807 485.328 218.657 485.597 218.46C485.866 218.263 486.093 218.023 486.278 217.739C486.468 217.451 486.598 217.121 486.67 216.75L488.443 216.756C488.348 217.328 488.165 217.854 487.892 218.335C487.623 218.812 487.277 219.225 486.852 219.574C486.432 219.919 485.951 220.186 485.409 220.375C484.867 220.564 484.277 220.659 483.636 220.659C482.629 220.659 481.731 220.42 480.943 219.943C480.155 219.462 479.534 218.775 479.08 217.881C478.629 216.987 478.403 215.92 478.403 214.682C478.403 213.439 478.631 212.373 479.085 211.483C479.54 210.589 480.161 209.903 480.949 209.426C481.737 208.945 482.633 208.705 483.636 208.705C484.254 208.705 484.83 208.794 485.364 208.972C485.902 209.146 486.384 209.403 486.812 209.744C487.241 210.081 487.595 210.494 487.875 210.983C488.155 211.468 488.345 212.023 488.443 212.648ZM494.084 220.676C493.266 220.676 492.552 220.489 491.942 220.114C491.332 219.739 490.858 219.214 490.521 218.54C490.184 217.866 490.016 217.078 490.016 216.176C490.016 215.271 490.184 214.479 490.521 213.801C490.858 213.123 491.332 212.597 491.942 212.222C492.552 211.847 493.266 211.659 494.084 211.659C494.902 211.659 495.616 211.847 496.226 212.222C496.836 212.597 497.309 213.123 497.646 213.801C497.983 214.479 498.152 215.271 498.152 216.176C498.152 217.078 497.983 217.866 497.646 218.54C497.309 219.214 496.836 219.739 496.226 220.114C495.616 220.489 494.902 220.676 494.084 220.676ZM494.089 219.25C494.62 219.25 495.059 219.11 495.408 218.83C495.756 218.549 496.014 218.176 496.18 217.71C496.351 217.244 496.436 216.731 496.436 216.17C496.436 215.614 496.351 215.102 496.18 214.636C496.014 214.167 495.756 213.79 495.408 213.506C495.059 213.222 494.62 213.08 494.089 213.08C493.555 213.08 493.112 213.222 492.76 213.506C492.411 213.79 492.152 214.167 491.982 214.636C491.815 215.102 491.732 215.614 491.732 216.17C491.732 216.731 491.815 217.244 491.982 217.71C492.152 218.176 492.411 218.549 492.76 218.83C493.112 219.11 493.555 219.25 494.089 219.25ZM500.048 220.5V211.773H501.679V213.193H501.787C501.969 212.712 502.266 212.337 502.679 212.068C503.092 211.795 503.586 211.659 504.162 211.659C504.745 211.659 505.234 211.795 505.628 212.068C506.026 212.341 506.319 212.716 506.509 213.193H506.599C506.808 212.727 507.139 212.356 507.594 212.08C508.048 211.799 508.59 211.659 509.219 211.659C510.01 211.659 510.656 211.907 511.156 212.403C511.66 212.9 511.912 213.648 511.912 214.648V220.5H510.213V214.807C510.213 214.216 510.052 213.788 509.73 213.523C509.408 213.258 509.024 213.125 508.577 213.125C508.024 213.125 507.594 213.295 507.287 213.636C506.98 213.973 506.827 214.407 506.827 214.938V220.5H505.134V214.699C505.134 214.225 504.986 213.845 504.69 213.557C504.395 213.269 504.01 213.125 503.537 213.125C503.215 213.125 502.918 213.21 502.645 213.381C502.376 213.547 502.158 213.78 501.991 214.08C501.829 214.379 501.747 214.725 501.747 215.119V220.5H500.048ZM514.189 223.773V211.773H515.848V213.188H515.99C516.089 213.006 516.231 212.795 516.416 212.557C516.602 212.318 516.859 212.11 517.189 211.932C517.518 211.75 517.954 211.659 518.496 211.659C519.2 211.659 519.829 211.837 520.382 212.193C520.935 212.549 521.369 213.062 521.683 213.733C522.001 214.403 522.161 215.21 522.161 216.153C522.161 217.097 522.003 217.905 521.689 218.58C521.375 219.25 520.943 219.767 520.393 220.131C519.844 220.491 519.217 220.67 518.513 220.67C517.982 220.67 517.549 220.581 517.212 220.403C516.878 220.225 516.617 220.017 516.428 219.778C516.238 219.54 516.092 219.328 515.99 219.142H515.888V223.773H514.189ZM515.854 216.136C515.854 216.75 515.943 217.288 516.121 217.75C516.299 218.212 516.556 218.574 516.893 218.835C517.231 219.093 517.643 219.222 518.132 219.222C518.64 219.222 519.064 219.087 519.405 218.818C519.746 218.545 520.003 218.176 520.178 217.71C520.356 217.244 520.445 216.72 520.445 216.136C520.445 215.561 520.357 215.044 520.183 214.585C520.013 214.127 519.755 213.765 519.411 213.5C519.07 213.235 518.643 213.102 518.132 213.102C517.64 213.102 517.223 213.229 516.882 213.483C516.545 213.737 516.289 214.091 516.115 214.545C515.941 215 515.854 215.53 515.854 216.136ZM527.74 220.676C526.922 220.676 526.208 220.489 525.598 220.114C524.988 219.739 524.515 219.214 524.178 218.54C523.84 217.866 523.672 217.078 523.672 216.176C523.672 215.271 523.84 214.479 524.178 213.801C524.515 213.123 524.988 212.597 525.598 212.222C526.208 211.847 526.922 211.659 527.74 211.659C528.558 211.659 529.272 211.847 529.882 212.222C530.492 212.597 530.965 213.123 531.303 213.801C531.64 214.479 531.808 215.271 531.808 216.176C531.808 217.078 531.64 217.866 531.303 218.54C530.965 219.214 530.492 219.739 529.882 220.114C529.272 220.489 528.558 220.676 527.74 220.676ZM527.746 219.25C528.276 219.25 528.715 219.11 529.064 218.83C529.412 218.549 529.67 218.176 529.837 217.71C530.007 217.244 530.092 216.731 530.092 216.17C530.092 215.614 530.007 215.102 529.837 214.636C529.67 214.167 529.412 213.79 529.064 213.506C528.715 213.222 528.276 213.08 527.746 213.08C527.212 213.08 526.768 213.222 526.416 213.506C526.068 213.79 525.808 214.167 525.638 214.636C525.471 215.102 525.388 215.614 525.388 216.17C525.388 216.731 525.471 217.244 525.638 217.71C525.808 218.176 526.068 218.549 526.416 218.83C526.768 219.11 527.212 219.25 527.746 219.25ZM535.403 215.318V220.5H533.705V211.773H535.335V213.193H535.443C535.644 212.731 535.958 212.36 536.386 212.08C536.818 211.799 537.362 211.659 538.017 211.659C538.612 211.659 539.133 211.784 539.58 212.034C540.027 212.28 540.373 212.648 540.619 213.136C540.866 213.625 540.989 214.229 540.989 214.949V220.5H539.29V215.153C539.29 214.521 539.125 214.027 538.795 213.67C538.466 213.311 538.013 213.131 537.438 213.131C537.044 213.131 536.693 213.216 536.386 213.386C536.083 213.557 535.843 213.807 535.665 214.136C535.491 214.462 535.403 214.856 535.403 215.318ZM547.028 220.676C546.169 220.676 545.428 220.492 544.807 220.125C544.189 219.754 543.712 219.233 543.375 218.562C543.042 217.888 542.875 217.098 542.875 216.193C542.875 215.299 543.042 214.511 543.375 213.83C543.712 213.148 544.182 212.616 544.784 212.233C545.39 211.85 546.098 211.659 546.909 211.659C547.402 211.659 547.879 211.741 548.341 211.903C548.803 212.066 549.218 212.322 549.585 212.67C549.953 213.019 550.242 213.472 550.455 214.028C550.667 214.581 550.773 215.254 550.773 216.045V216.648H543.835V215.375H549.108C549.108 214.928 549.017 214.532 548.835 214.188C548.653 213.839 548.398 213.564 548.068 213.364C547.742 213.163 547.36 213.062 546.92 213.062C546.443 213.062 546.027 213.18 545.67 213.415C545.318 213.646 545.045 213.949 544.852 214.324C544.663 214.695 544.568 215.098 544.568 215.534V216.528C544.568 217.112 544.67 217.608 544.875 218.017C545.083 218.426 545.373 218.739 545.744 218.955C546.116 219.167 546.549 219.273 547.045 219.273C547.367 219.273 547.661 219.227 547.926 219.136C548.191 219.042 548.42 218.902 548.614 218.716C548.807 218.53 548.955 218.301 549.057 218.028L550.665 218.318C550.536 218.792 550.305 219.206 549.972 219.562C549.642 219.915 549.227 220.189 548.727 220.386C548.231 220.58 547.665 220.676 547.028 220.676ZM554.357 215.318V220.5H552.658V211.773H554.288V213.193H554.396C554.597 212.731 554.911 212.36 555.339 212.08C555.771 211.799 556.315 211.659 556.97 211.659C557.565 211.659 558.086 211.784 558.533 212.034C558.98 212.28 559.326 212.648 559.572 213.136C559.819 213.625 559.942 214.229 559.942 214.949V220.5H558.243V215.153C558.243 214.521 558.078 214.027 557.749 213.67C557.419 213.311 556.966 213.131 556.391 213.131C555.997 213.131 555.646 213.216 555.339 213.386C555.036 213.557 554.796 213.807 554.618 214.136C554.444 214.462 554.357 214.856 554.357 215.318ZM566.294 211.773V213.136H561.527V211.773H566.294ZM562.805 209.682H564.504V217.938C564.504 218.267 564.554 218.515 564.652 218.682C564.75 218.845 564.877 218.956 565.033 219.017C565.192 219.074 565.364 219.102 565.55 219.102C565.686 219.102 565.805 219.093 565.908 219.074C566.01 219.055 566.089 219.04 566.146 219.028L566.453 220.432C566.355 220.47 566.214 220.508 566.033 220.545C565.851 220.587 565.624 220.61 565.351 220.614C564.904 220.621 564.487 220.542 564.101 220.375C563.714 220.208 563.402 219.951 563.163 219.602C562.925 219.254 562.805 218.816 562.805 218.29V209.682ZM574.572 213.903L573.033 214.176C572.968 213.979 572.866 213.792 572.726 213.614C572.589 213.436 572.404 213.29 572.169 213.176C571.934 213.062 571.641 213.006 571.288 213.006C570.807 213.006 570.406 213.114 570.084 213.33C569.762 213.542 569.601 213.816 569.601 214.153C569.601 214.445 569.709 214.68 569.925 214.858C570.141 215.036 570.489 215.182 570.97 215.295L572.357 215.614C573.16 215.799 573.758 216.085 574.152 216.472C574.546 216.858 574.743 217.36 574.743 217.977C574.743 218.5 574.591 218.966 574.288 219.375C573.989 219.78 573.571 220.098 573.033 220.33C572.499 220.561 571.879 220.676 571.175 220.676C570.197 220.676 569.4 220.468 568.783 220.051C568.165 219.631 567.786 219.034 567.646 218.261L569.288 218.011C569.391 218.439 569.601 218.763 569.919 218.983C570.237 219.199 570.652 219.307 571.163 219.307C571.72 219.307 572.165 219.191 572.499 218.96C572.832 218.725 572.999 218.439 572.999 218.102C572.999 217.83 572.896 217.6 572.692 217.415C572.491 217.229 572.182 217.089 571.766 216.994L570.288 216.67C569.474 216.485 568.872 216.189 568.482 215.784C568.095 215.379 567.902 214.866 567.902 214.244C567.902 213.729 568.046 213.278 568.334 212.892C568.622 212.506 569.019 212.205 569.527 211.989C570.035 211.769 570.616 211.659 571.271 211.659C572.214 211.659 572.957 211.864 573.499 212.273C574.04 212.678 574.398 213.222 574.572 213.903Z" fill="white"/>
</svg>
