<?xml version="1.0" encoding="UTF-8"?>
<svg id="_图层_2" data-name="图层 2" xmlns="http://www.w3.org/2000/svg" viewBox="0 0 240 240">
  <defs>
    <style>
      .cls-1 {
        fill: none;
        stroke-width: 0px;
      }

      .cls-2 {
        font-family: PingFangSC-Regular-GBpc-EUC-H, 'PingFang SC';
        font-size: 14px;
      }
    </style>
  </defs>
  <g id="_图层_1-2" data-name="图层 1">
    <g>
      <text class="cls-2" transform="translate(98.12 20.55) rotate(-8.39)"><tspan x="0" y="0">一</tspan></text>
      <text class="cls-2" transform="translate(114.8 18.54) rotate(-1.59)"><tspan x="0" y="0"> </tspan></text>
      <text class="cls-2" transform="translate(122.25 18.22) rotate(5.14)"><tspan x="0" y="0">个</tspan></text>
      <text class="cls-2" transform="translate(138.92 20.17) rotate(11.99)"><tspan x="0" y="0"> </tspan></text>
      <text class="cls-2" transform="translate(146.28 21.62) rotate(18.89)"><tspan x="0" y="0">结</tspan></text>
      <text class="cls-2" transform="translate(162 27.47) rotate(25.77)"><tspan x="0" y="0"> </tspan></text>
      <text class="cls-2" transform="translate(168.78 30.62) rotate(32.62)"><tspan x="0" y="0">合</tspan></text>
      <text class="cls-2" transform="translate(182.69 40.05) rotate(39.45)"><tspan x="0" y="0"> </tspan></text>
      <text class="cls-2" transform="translate(188.52 44.7) rotate(46.24)"><tspan x="0" y="0">数</tspan></text>
      <text class="cls-2" transform="translate(199.8 57.12) rotate(53.04)"><tspan x="0" y="0"> </tspan></text>
      <text class="cls-2" transform="translate(204.4 63.04) rotate(59.87)"><tspan x="0" y="0">字</tspan></text>
      <text class="cls-2" transform="translate(212.44 77.79) rotate(66.74)"><tspan x="0" y="0"> </tspan></text>
      <text class="cls-2" transform="translate(215.49 84.61) rotate(73.63)"><tspan x="0" y="0">媒</tspan></text>
      <text class="cls-2" transform="translate(219.79 100.82) rotate(80.5)"><tspan x="0" y="0"> </tspan></text>
      <text class="cls-2" transform="translate(221.13 108.19) rotate(87.32)"><tspan x="0" y="0">体</tspan></text>
      <text class="cls-2" transform="translate(221.47 124.97) rotate(94.06)"><tspan x="0" y="0"> </tspan></text>
      <text class="cls-2" transform="translate(221.06 132.43) rotate(100.89)"><tspan x="0" y="0">技</tspan></text>
      <text class="cls-2" transform="translate(217.44 148.84) rotate(107.79)"><tspan x="0" y="0"> </tspan></text>
      <text class="cls-2" transform="translate(215.27 155.98) rotate(114.67)"><tspan x="0" y="0">术</tspan></text>
      <text class="cls-2" transform="translate(207.86 171.04) rotate(121.52)"><tspan x="0" y="0"> </tspan></text>
      <text class="cls-2" transform="translate(204.04 177.49) rotate(128.36)"><tspan x="0" y="0">打</tspan></text>
      <text class="cls-2" transform="translate(193.28 190.36) rotate(135.15)"><tspan x="0" y="0"> </tspan></text>
      <text class="cls-2" transform="translate(188.07 195.71) rotate(141.94)"><tspan x="0" y="0">造</tspan></text>
      <text class="cls-2" transform="translate(174.56 205.71) rotate(148.78)"><tspan x="0" y="0"> </tspan></text>
      <text class="cls-2" transform="translate(168.24 209.67) rotate(155.63)"><tspan x="0" y="0">品</tspan></text>
      <text class="cls-2" transform="translate(152.76 216.2) rotate(162.52)"><tspan x="0" y="0"> </tspan></text>
      <text class="cls-2" transform="translate(145.68 218.54) rotate(169.4)"><tspan x="0" y="0">牌</tspan></text>
      <text class="cls-2" transform="translate(129.21 221.39) rotate(178.78)"><tspan x="0" y="0">、</tspan></text>
      <text class="cls-2" transform="translate(112.49 221.53) rotate(-171.9)"><tspan x="0" y="0">产</tspan></text>
      <text class="cls-2" transform="translate(95.96 218.73) rotate(-165.04)"><tspan x="0" y="0"> </tspan></text>
      <text class="cls-2" transform="translate(88.7 216.91) rotate(-158.14)"><tspan x="0" y="0">品</tspan></text>
      <text class="cls-2" transform="translate(73.29 210.24) rotate(-151.27)"><tspan x="0" y="0"> </tspan></text>
      <text class="cls-2" transform="translate(66.68 206.74) rotate(-144.43)"><tspan x="0" y="0">和</tspan></text>
      <text class="cls-2" transform="translate(53.29 196.62) rotate(-137.63)"><tspan x="0" y="0"> </tspan></text>
      <text class="cls-2" transform="translate(47.69 191.66) rotate(-130.83)"><tspan x="0" y="0">体</tspan></text>
      <text class="cls-2" transform="translate(37.06 178.69) rotate(-124.02)"><tspan x="0" y="0"> </tspan></text>
      <text class="cls-2" transform="translate(32.78 172.53) rotate(-117.16)"><tspan x="0" y="0">验</tspan></text>
      <text class="cls-2" transform="translate(25.51 157.4) rotate(-110.29)"><tspan x="0" y="0"> </tspan></text>
      <text class="cls-2" transform="translate(22.82 150.44) rotate(-103.4)"><tspan x="0" y="0">的</tspan></text>
      <text class="cls-2" transform="translate(19.37 134.02) rotate(-96.54)"><tspan x="0" y="0"> </tspan></text>
      <text class="cls-2" transform="translate(18.32 126.61) rotate(-89.07)"><tspan x="0" y="0">创</tspan></text>
      <text class="cls-2" transform="translate(18.91 109.81) rotate(-83)"><tspan x="0" y="0"> </tspan></text>
      <text class="cls-2" transform="translate(19.71 102.37) rotate(-76.13)"><tspan x="0" y="0">意</tspan></text>
      <text class="cls-2" transform="translate(24.16 86.2) rotate(-69.25)"><tspan x="0" y="0"> </tspan></text>
      <text class="cls-2" transform="translate(26.71 79.16) rotate(-62.37)"><tspan x="0" y="0">设</tspan></text>
      <text class="cls-2" transform="translate(34.89 64.5) rotate(-55.53)"><tspan x="0" y="0"> </tspan></text>
      <text class="cls-2" transform="translate(39.03 58.28) rotate(-48.72)"><tspan x="0" y="0">计</tspan></text>
      <text class="cls-2" transform="translate(50.43 45.97) rotate(-41.93)"><tspan x="0" y="0"> </tspan></text>
      <text class="cls-2" transform="translate(55.93 40.88) rotate(-35.11)"><tspan x="0" y="0">师</tspan></text>
      <rect class="cls-1" width="240" height="240"/>
    </g>
  </g>
</svg>