<svg width="32" height="32" viewBox="0 0 32 32" fill="none" xmlns="http://www.w3.org/2000/svg">
<path d="M24 0L32 0V0C32 6.57957 32 9.86935 30.8109 12.779C30.4504 13.6612 30.0118 14.5093 29.5003 15.3134C27.8133 17.9656 25.1287 19.8672 19.7596 23.6703L8 32H0V32C0 25.4204 0 22.1306 1.18913 19.221C1.54964 18.3388 1.98825 17.4907 2.49972 16.6866C4.18674 14.0344 6.87128 12.1328 12.2404 8.32974L24 0Z" fill="#6271FF"/>
<path d="M24 0H0V16L24 0Z" fill="#6271FF"/>
<path d="M32 16L8 32H32V16Z" fill="#6271FF"/>
</svg>
