<?xml version="1.0" encoding="UTF-8"?>
<svg id="_图层_2" data-name="图层 2" xmlns="http://www.w3.org/2000/svg" viewBox="0 0 240 240">
  <defs>
    <style>
      .cls-1 {
        fill: none;
        stroke-width: 0px;
      }

      .cls-2 {
        font-family: PingFangSC-Regular-GBpc-EUC-H, 'PingFang SC';
        font-size: 12px;
      }
    </style>
  </defs>
  <g id="_图层_1-2" data-name="图层 1">
    <g>
      <rect class="cls-1" width="240" height="240"/>
      <text class="cls-2" transform="translate(98.22 20.7) rotate(-10.08)"><tspan x="0" y="0">A</tspan></text>
      <text class="cls-2" transform="translate(106.95 19.24) rotate(-6.18)"><tspan x="0" y="0"> </tspan></text>
      <text class="cls-2" transform="translate(111.83 18.66) rotate(-2.11)"><tspan x="0" y="0">C</tspan></text>
      <text class="cls-2" transform="translate(121.48 18.36) rotate(3.07)"><tspan x="0" y="0">R</tspan></text>
      <text class="cls-2" transform="translate(130.5 18.9) rotate(8.01)"><tspan x="0" y="0">E</tspan></text>
      <text class="cls-2" transform="translate(138.94 20.12) rotate(12.91)"><tspan x="0" y="0">A</tspan></text>
      <text class="cls-2" transform="translate(147.52 22.13) rotate(17.79)"><tspan x="0" y="0">T</tspan></text>
      <text class="cls-2" transform="translate(155.48 24.79) rotate(21.26)"><tspan x="0" y="0">I</tspan></text>
      <text class="cls-2" transform="translate(159.04 26.13) rotate(24.78)"><tspan x="0" y="0">V</tspan></text>
      <text class="cls-2" transform="translate(166.8 29.75) rotate(29.62)"><tspan x="0" y="0">E</tspan></text>
      <text class="cls-2" transform="translate(174.23 34.08) rotate(33.44)"><tspan x="0" y="0"> </tspan></text>
      <text class="cls-2" transform="translate(178.38 36.77) rotate(37.48)"><tspan x="0" y="0">D</tspan></text>
      <text class="cls-2" transform="translate(185.78 42.52) rotate(42.5)"><tspan x="0" y="0">E</tspan></text>
      <text class="cls-2" transform="translate(192.07 48.33) rotate(47.28)"><tspan x="0" y="0">S</tspan></text>
      <text class="cls-2" transform="translate(197.79 54.68) rotate(50.75)"><tspan x="0" y="0">I</tspan></text>
      <text class="cls-2" transform="translate(200.25 57.58) rotate(54.6)"><tspan x="0" y="0">G</tspan></text>
      <text class="cls-2" transform="translate(205.92 65.64) rotate(60.06)"><tspan x="0" y="0">N</tspan></text>
      <text class="cls-2" transform="translate(210.63 73.94) rotate(65.18)"><tspan x="0" y="0">E</tspan></text>
      <text class="cls-2" transform="translate(214.19 81.72) rotate(70.17)"><tspan x="0" y="0">R</tspan></text>
      <text class="cls-2" transform="translate(217.17 90.27) rotate(74.14)"><tspan x="0" y="0"> </tspan></text>
      <text class="cls-2" transform="translate(218.62 94.97) rotate(78.96)"><tspan x="0" y="0">W</tspan></text>
      <text class="cls-2" transform="translate(220.82 106.79) rotate(85.2)"><tspan x="0" y="0">O</tspan></text>
      <text class="cls-2" transform="translate(221.63 116.85) rotate(90.93)"><tspan x="0" y="0">R</tspan></text>
      <text class="cls-2" transform="translate(221.48 125.88) rotate(95.58)"><tspan x="0" y="0">K</tspan></text>
      <text class="cls-2" transform="translate(220.47 135.05) rotate(99.25)"><tspan x="0" y="0">I</tspan></text>
      <text class="cls-2" transform="translate(219.92 138.81) rotate(103.04)"><tspan x="0" y="0">N</tspan></text>
      <text class="cls-2" transform="translate(217.74 148.08) rotate(108.55)"><tspan x="0" y="0">G</tspan></text>
      <text class="cls-2" transform="translate(214.46 157.44) rotate(112.77)"><tspan x="0" y="0"> </tspan></text>
      <text class="cls-2" transform="translate(212.62 162) rotate(117.03)"><tspan x="0" y="0">O</tspan></text>
      <text class="cls-2" transform="translate(207.97 170.98) rotate(122.58)"><tspan x="0" y="0">N</tspan></text>
      <text class="cls-2" transform="translate(202.72 178.98) rotate(126.66)"><tspan x="0" y="0"> </tspan></text>
      <text class="cls-2" transform="translate(199.82 182.95) rotate(130.58)"><tspan x="0" y="0">B</tspan></text>
      <text class="cls-2" transform="translate(193.91 189.79) rotate(135.64)"><tspan x="0" y="0">R</tspan></text>
      <text class="cls-2" transform="translate(187.42 196.07) rotate(140.64)"><tspan x="0" y="0">A</tspan></text>
      <text class="cls-2" transform="translate(180.61 201.62) rotate(145.79)"><tspan x="0" y="0">N</tspan></text>
      <text class="cls-2" transform="translate(172.69 206.95) rotate(151.12)"><tspan x="0" y="0">D</tspan></text>
      <text class="cls-2" transform="translate(164.4 211.39) rotate(154.85)"><tspan x="0" y="0">I</tspan></text>
      <text class="cls-2" transform="translate(160.99 213.06) rotate(158.65)"><tspan x="0" y="0">N</tspan></text>
      <text class="cls-2" transform="translate(152.12 216.49) rotate(164.15)"><tspan x="0" y="0">G</tspan></text>
      <text class="cls-2" transform="translate(142.52 219.07) rotate(168.14)"><tspan x="0" y="0">,</tspan></text>
      <text class="cls-2" transform="translate(138.46 219.91) rotate(170.73)"><tspan x="0" y="0"> </tspan></text>
      <text class="cls-2" transform="translate(133.58 220.74) rotate(174.56)"><tspan x="0" y="0">P</tspan></text>
      <text class="cls-2" transform="translate(125 221.5) rotate(179.07)"><tspan x="0" y="0">R</tspan></text>
      <text class="cls-2" transform="translate(116.01 221.59) rotate(-175.22)"><tspan x="0" y="0">O</tspan></text>
      <text class="cls-2" transform="translate(105.93 220.69) rotate(-169.73)"><tspan x="0" y="0">D</tspan></text>
      <text class="cls-2" transform="translate(96.73 218.98) rotate(-164.39)"><tspan x="0" y="0">U</tspan></text>
      <text class="cls-2" transform="translate(87.63 216.4) rotate(-158.96)"><tspan x="0" y="0">C</tspan></text>
      <text class="cls-2" transform="translate(78.64 212.87) rotate(-153.86)"><tspan x="0" y="0">T</tspan></text>
      <text class="cls-2" transform="translate(71.18 209.11) rotate(-150.1)"><tspan x="0" y="0"> </tspan></text>
      <text class="cls-2" transform="translate(66.87 206.67) rotate(-146.22)"><tspan x="0" y="0">A</tspan></text>
      <text class="cls-2" transform="translate(59.58 201.76) rotate(-141.07)"><tspan x="0" y="0">N</tspan></text>
      <text class="cls-2" transform="translate(52.19 195.74) rotate(-135.77)"><tspan x="0" y="0">D</tspan></text>
      <text class="cls-2" transform="translate(45.52 189.09) rotate(-131.74)"><tspan x="0" y="0"> </tspan></text>
      <text class="cls-2" transform="translate(42.21 185.42) rotate(-127.95)"><tspan x="0" y="0">E</tspan></text>
      <text class="cls-2" transform="translate(36.98 178.65) rotate(-123.14)"><tspan x="0" y="0">X</tspan></text>
      <text class="cls-2" transform="translate(32.33 171.47) rotate(-118.3)"><tspan x="0" y="0">P</tspan></text>
      <text class="cls-2" transform="translate(28.28 163.86) rotate(-113.43)"><tspan x="0" y="0">E</tspan></text>
      <text class="cls-2" transform="translate(24.9 155.98) rotate(-108.43)"><tspan x="0" y="0">R</tspan></text>
      <text class="cls-2" transform="translate(22.15 147.37) rotate(-104.79)"><tspan x="0" y="0">I</tspan></text>
      <text class="cls-2" transform="translate(21.13 143.67) rotate(-101.25)"><tspan x="0" y="0">E</tspan></text>
      <text class="cls-2" transform="translate(19.49 135.31) rotate(-96.16)"><tspan x="0" y="0">N</tspan></text>
      <text class="cls-2" transform="translate(18.51 125.8) rotate(-90.93)"><tspan x="0" y="0">C</tspan></text>
      <text class="cls-2" transform="translate(18.43 116.18) rotate(-85.75)"><tspan x="0" y="0">E</tspan></text>
      <text class="cls-2" transform="translate(19.16 107.62) rotate(-81.94)"><tspan x="0" y="0"> </tspan></text>
      <text class="cls-2" transform="translate(19.89 102.68) rotate(-79.45)"><tspan x="0" y="0">I</tspan></text>
      <text class="cls-2" transform="translate(20.52 98.95) rotate(-75.66)"><tspan x="0" y="0">N</tspan></text>
      <text class="cls-2" transform="translate(23.01 89.71) rotate(-71.54)"><tspan x="0" y="0"> </tspan></text>
      <text class="cls-2" transform="translate(24.52 85.02) rotate(-67.47)"><tspan x="0" y="0">D</tspan></text>
      <text class="cls-2" transform="translate(28.26 76.34) rotate(-63.71)"><tspan x="0" y="0">I</tspan></text>
      <text class="cls-2" transform="translate(29.87 72.93) rotate(-59.84)"><tspan x="0" y="0">G</tspan></text>
      <text class="cls-2" transform="translate(34.96 64.42) rotate(-55.98)"><tspan x="0" y="0">I</tspan></text>
      <text class="cls-2" transform="translate(37.07 61.24) rotate(-52.54)"><tspan x="0" y="0">T</tspan></text>
      <text class="cls-2" transform="translate(42.17 54.63) rotate(-47.73)"><tspan x="0" y="0">A</tspan></text>
      <text class="cls-2" transform="translate(48.12 48.15) rotate(-43.04)"><tspan x="0" y="0">L</tspan></text>
      <text class="cls-2" transform="translate(54.03 42.75) rotate(-39.4)"><tspan x="0" y="0"> </tspan></text>
      <text class="cls-2" transform="translate(57.77 39.53) rotate(-34.62)"><tspan x="0" y="0">W</tspan></text>
      <text class="cls-2" transform="translate(67.73 32.81) rotate(-28.77)"><tspan x="0" y="0">A</tspan></text>
      <text class="cls-2" transform="translate(75.46 28.6) rotate(-23.77)"><tspan x="0" y="0">Y</tspan></text>
    </g>
  </g>
</svg>