<svg width="1504" height="1864" viewBox="0 0 1504 1864" fill="none" xmlns="http://www.w3.org/2000/svg">
<rect width="1504" height="1864" fill="#202028"/>
<g clip-path="url(#clip0_2607_5188)">
<rect width="1376" height="1736" transform="translate(64 64)" fill="#202028"/>
<path d="M216.219 348.077C287.016 348.077 344.409 300.825 344.409 242.536C344.409 209.299 329.967 89.6511 240.845 152.516C151.722 215.38 88.0303 183.175 88.0303 242.536C88.0303 301.897 145.423 348.077 216.219 348.077Z" fill="white" fill-opacity="0.25"/>
<mask id="mask0_2607_5188" style="mask-type:alpha" maskUnits="userSpaceOnUse" x="81" y="75" width="269" height="274">
<path d="M216.219 348.076C287.016 348.076 344.408 300.824 344.408 242.536C344.408 209.299 367.336 124.431 313.409 89.8204C272.762 63.7332 158.05 82.3766 127.623 82.3766C56.8259 82.3766 88.0301 183 88.0301 242.536C88.0301 302.071 145.422 348.076 216.219 348.076Z" fill="#E6E6E6"/>
</mask>
<g mask="url(#mask0_2607_5188)">
<path d="M116.805 199.959C116.805 199.959 126.996 151.881 152.642 151.881C178.288 151.881 191.928 227.463 129.549 235.684L116.805 199.959Z" fill="#FF9C7A"/>
<path d="M298 100H138V298H298V100Z" fill="#E0E0E8"/>
<path d="M290 108H146V290H290V108Z" fill="white"/>
<path d="M235.318 98H200.682L193 114H243L235.318 98Z" fill="#FF9933"/>
<path d="M137.064 184.609C137.064 184.609 156.864 164.316 165.409 166.113C172.464 167.606 165.883 185.197 158.5 191.5C138 209 152.5 266 150 298H131C117.057 310.354 112.773 235.159 114.117 218.447C115.461 201.736 116.368 196.795 137.064 184.609Z" fill="black" fill-opacity="0.25"/>
<path d="M136.896 182.046C136.896 182.046 156.696 161.752 165.24 163.549C172.296 165.043 172.307 179.115 156.931 190.84C153.809 193.193 151.229 196.192 149.364 199.634C147.499 203.075 146.394 206.878 146.124 210.785C145.687 217.333 143.525 225.127 136.896 231C122.953 243.354 112.605 232.595 113.948 215.884C115.292 199.173 116.2 194.231 136.896 182.046Z" fill="#FF9C7A"/>
<path d="M109.415 222.243L112.378 213.271L144.474 223.869L142.001 231.359L109.415 222.243Z" fill="#66B2FF"/>
<path d="M144.601 228.35L137.153 331.616L76.1182 319.88L106.815 216.861L144.601 228.35Z" fill="#2E2E99"/>
<path d="M202 130H178V154H202V130Z" fill="#FF6666"/>
<path d="M184 142L188 146L197 137" stroke="white" stroke-width="4" stroke-linecap="round" stroke-linejoin="round"/>
<path opacity="0.21" d="M234 132H210V140H234V132Z" fill="#A0A0A8"/>
<path opacity="0.21" d="M258 144H210V152H258V144Z" fill="#A0A0A8"/>
<path d="M202 170H178V194H202V170Z" fill="#FF6666"/>
<path d="M184 182L188 186L197 177" stroke="white" stroke-width="4" stroke-linecap="round" stroke-linejoin="round"/>
<path opacity="0.21" d="M234 172H210V180H234V172Z" fill="#A0A0A8"/>
<path opacity="0.21" d="M258 184H210V192H258V184Z" fill="#A0A0A8"/>
<path d="M202 210H178V234H202V210Z" fill="#FF6666"/>
<path d="M184 222L188 226L197 217" stroke="white" stroke-width="4" stroke-linecap="round" stroke-linejoin="round"/>
<path opacity="0.21" d="M234 212H210V220H234V212Z" fill="#A0A0A8"/>
<path opacity="0.21" d="M258 224H210V232H258V224Z" fill="#A0A0A8"/>
<path d="M202 250H178V274H202V250Z" fill="#FF6666"/>
<path d="M184 262L188 266L197 257" stroke="white" stroke-width="4" stroke-linecap="round" stroke-linejoin="round"/>
<path opacity="0.21" d="M234 252H210V260H234V252Z" fill="#A0A0A8"/>
<path opacity="0.21" d="M258 264H210V272H258V264Z" fill="#A0A0A8"/>
<path d="M285.589 218.514C285.589 218.514 268.247 185.087 239.189 188.66C210.132 192.234 203.354 252.425 274.893 250.74L285.589 218.514Z" fill="#FF9C7A"/>
<path fill-rule="evenodd" clip-rule="evenodd" d="M283.176 225.511C277.352 240.049 260.852 247.114 246.321 241.293C231.783 235.469 224.724 218.971 230.539 204.437C234.265 195.141 242.354 188.904 251.499 187.136L251.018 183.759L249.818 183.933L248.822 176.975L253.876 176.244L254.876 183.212L253.68 183.379L254.164 186.75C257.714 186.411 261.373 186.737 264.955 187.808L267.142 182.34L264.15 181.144L266.682 174.834L277.463 179.149L274.931 185.459L271.939 184.263L269.751 189.731C282.676 196.307 288.673 211.792 283.176 225.511Z" fill="#66B2FF"/>
<path fill-rule="evenodd" clip-rule="evenodd" d="M278.971 223.83C274.079 236.044 260.214 241.979 248.001 237.087C235.789 232.197 229.854 218.331 234.745 206.118C239.636 193.906 253.502 187.971 265.714 192.862C277.927 197.753 283.863 211.619 278.971 223.83Z" fill="#84C2FF"/>
<path fill-rule="evenodd" clip-rule="evenodd" d="M258.494 217.212C259.251 216.84 259.662 216.05 259.588 215.258L277.223 206.005L258.973 214.005C258.392 213.46 257.515 213.301 256.759 213.672C256.029 214.03 255.619 214.779 255.658 215.542L246.811 219.648L247.678 221.417L256.341 216.937C256.922 217.435 257.764 217.571 258.494 217.212Z" fill="white"/>
<path fill-rule="evenodd" clip-rule="evenodd" d="M271.941 184.262L269.752 189.729C268.991 189.341 268.206 188.983 267.396 188.659C266.588 188.335 265.772 188.051 264.954 187.807L267.143 182.34L271.941 184.262Z" fill="#5252CC"/>
<path fill-rule="evenodd" clip-rule="evenodd" d="M254.161 186.751C253.267 186.836 252.379 186.964 251.501 187.135L251.018 183.763L253.678 183.38L254.161 186.751Z" fill="#5252CC"/>
<path d="M284.98 223.329C284.98 223.329 283.804 201.977 281 200.5C281 223.329 267 222.5 272 237C272.473 244.106 273.537 239.258 277.658 233.805C281.779 228.351 287.333 231.986 284.98 223.329Z" fill="black" fill-opacity="0.25"/>
<path d="M295.25 192.972C295.25 192.972 293.131 182.425 287.121 179.202C282.154 176.547 277.802 180.283 280.254 195.654C281.234 201.594 281.474 215.199 277.517 220.354C274.112 224.767 269.456 232.197 270.056 239.349C271.316 254.39 279.349 250.323 287.905 238.941C296.461 227.559 300.56 211.36 295.25 192.972Z" fill="#FF9C7A"/>
<path d="M305.799 243.14L288.16 223.467L272.026 248.024L280.033 256.794L305.799 243.14Z" fill="#FF9C7A"/>
<path d="M281.804 260.288L274.881 253.856L296.552 230.529L302.331 235.898L281.804 260.288Z" fill="#66B2FF"/>
<path d="M277.452 258.278L330.654 352.213L373 301.5L299.847 231.942L277.452 258.278Z" fill="#2E2E99"/>
<path d="M253.679 183.379L252.066 183.607L253.951 185.249L253.679 183.379Z" fill="black" fill-opacity="0.25"/>
<path d="M271.938 184.252L267.584 182.525L270.606 187.593L271.938 184.252Z" fill="black" fill-opacity="0.25"/>
</g>
<path d="M151.48 693.526C223.082 693.526 362.374 693.337 345.645 611.085C312.579 448.514 135.773 435.752 90.2424 581.357C73.4677 635.002 79.8774 693.526 151.48 693.526Z" fill="white" fill-opacity="0.25"/>
<path d="M138.586 586.277C138.586 586.277 136.07 542.98 157.956 536.988C179.841 530.997 209.093 592.127 157.784 613.699L138.586 586.277Z" fill="#FF9C7A"/>
<path d="M285.188 460.977L153.391 476.156L171.586 634.142L303.383 618.962L285.188 460.977Z" fill="#C0C0C8"/>
<path d="M280.536 457.001L152.453 471.753L170.649 629.739L298.732 614.987L280.536 457.001Z" fill="#E0E0E8"/>
<path d="M275.378 453.311L147.295 468.062L165.491 626.048L293.574 611.297L275.378 453.311Z" fill="white"/>
<path d="M205.868 474.56L162.876 479.512L168.608 529.279L211.6 524.328L205.868 474.56Z" fill="white"/>
<path d="M184.318 490.014L183.358 503.988L192.068 508.019L188.693 493.803L184.318 490.014Z" fill="#FF9C7A"/>
<path d="M188.747 500.466C188.747 500.466 189.186 500.638 190.349 500.795L190.669 502.154C189.684 501.876 188.841 500.795 188.747 500.466Z" fill="black" fill-opacity="0.25"/>
<path d="M167.616 520.589C167.616 520.589 168.94 509.707 178.973 505.554C189.007 501.401 203.294 500.603 210.6 515.658L211.61 524.338L168.627 529.289L167.616 520.589Z" fill="#9999FF"/>
<path d="M192.816 489.148C193.768 492.109 194.32 495.184 194.456 498.291C194.441 498.663 194.352 499.028 194.194 499.365C194.036 499.702 193.813 500.005 193.537 500.255C193.261 500.504 192.939 500.697 192.588 500.821C192.237 500.945 191.864 500.998 191.493 500.976C190.298 501.014 189.118 500.707 188.093 500.092C187.068 499.478 186.241 498.581 185.711 497.51L183.039 493.118C182.583 492.182 182.43 491.128 182.601 490.101C182.772 489.075 183.258 488.127 183.991 487.389C186.558 484.465 191.903 485.775 192.816 489.148Z" fill="#FF9C7A"/>
<path d="M183.872 498.86L181.133 491.795C181.133 491.795 176.834 491.543 177.786 488.646C178.739 485.748 180.644 487.323 180.353 484.214C180.062 481.104 182.562 480.112 184.587 481.687C186.611 483.261 185.486 480.88 187.722 480.284C189.958 479.689 190.672 480.641 190.911 482.361C191.149 484.081 194.231 481.885 195.316 483.975C196.401 486.066 196.785 488.13 191.149 489.148C185.513 490.167 190.17 494.295 183.872 498.86Z" fill="#CC7621"/>
<path d="M188.066 495.076C188.066 495.076 187.55 492.985 186.002 493.515C184.454 494.044 185.208 497.06 187.417 496.862L188.066 495.076Z" fill="#FF9C7A"/>
<path d="M247.541 471.263L215.781 474.921L216.632 482.309L248.392 478.651L247.541 471.263Z" fill="#C0C0C8"/>
<path opacity="0.5" d="M249.193 485.62L217.434 489.278L218.284 496.666L250.044 493.008L249.193 485.62Z" fill="white"/>
<path opacity="0.11" d="M212.67 533.552L184.413 536.807L185.264 544.195L213.521 540.94L212.67 533.552Z" fill="#C0C0C8"/>
<path opacity="0.11" d="M215.168 555.362L186.911 558.616L187.762 566.004L216.019 562.75L215.168 555.362Z" fill="#C0C0C8"/>
<path opacity="0.11" d="M267.087 527.276L238.83 530.53L239.681 537.918L267.938 534.664L267.087 527.276Z" fill="#C0C0C8"/>
<path opacity="0.11" d="M269.596 549.095L241.34 552.35L242.191 559.737L270.447 556.483L269.596 549.095Z" fill="#C0C0C8"/>
<path opacity="0.36" d="M267.582 498.054L219.089 503.639L221.342 523.202L269.835 517.617L267.582 498.054Z" fill="#C0C0C8"/>
<path opacity="0.36" d="M275.761 569.073L174.689 580.714L177.933 608.88L279.005 597.239L275.761 569.073Z" fill="#E0E0E8"/>
<path d="M179.685 535.941L169.517 537.112L170.688 547.281L180.856 546.11L179.685 535.941Z" fill="#66B2FF"/>
<path d="M233.378 529.758L223.21 530.929L224.381 541.097L234.549 539.926L233.378 529.758Z" fill="#FF9933"/>
<path d="M182.194 557.751L172.025 558.922L173.197 569.09L183.365 567.919L182.194 557.751Z" fill="#5252CC"/>
<path d="M235.899 551.566L225.73 552.737L226.902 562.906L237.07 561.735L235.899 551.566Z" fill="white"/>
<path d="M277.891 587.08L247.446 590.587L248.617 600.755L279.062 597.249L277.891 587.08Z" fill="#66B2FF"/>
<path d="M251.37 456.043L251.067 453.79C250.873 452.077 251.366 450.357 252.438 449.006C253.51 447.656 255.073 446.786 256.786 446.585V446.585C257.633 446.487 258.493 446.556 259.314 446.79C260.135 447.024 260.902 447.417 261.571 447.947C262.24 448.477 262.798 449.134 263.213 449.88C263.628 450.626 263.892 451.446 263.99 452.294L266.536 474.443C266.609 475.069 266.558 475.703 266.386 476.309C266.214 476.915 265.924 477.481 265.532 477.974C265.141 478.468 264.656 478.88 264.105 479.186C263.554 479.492 262.949 479.686 262.323 479.758V479.758C261.059 479.903 259.79 479.54 258.794 478.75C257.797 477.96 257.155 476.807 257.008 475.544L255.634 463.621" stroke="#5252CC" stroke-width="2" stroke-miterlimit="10"/>
<path d="M152.955 571.474C149.976 562.762 177.996 543.495 177.324 554.484C176.336 570.658 165.892 580.493 176.609 595.635C187.325 610.778 185.746 632.457 185.746 632.457L169.275 634.336C159.494 629.606 142.51 612.271 141.265 605.647C138.527 591.077 138.133 586.671 152.955 571.474Z" fill="black" fill-opacity="0.25"/>
<path d="M151.571 566.391C151.571 566.391 163.696 544.485 171.446 544.02C177.811 543.646 181.095 555.62 170.708 569.19C168.595 571.922 167.093 575.076 166.303 578.438C165.514 581.801 165.455 585.294 166.131 588.681C167.293 594.359 167.262 601.503 162.978 608.061C153.965 621.853 142.618 615.134 139.88 600.563C137.142 585.993 136.748 581.588 151.571 566.391Z" fill="#FF9C7A"/>
<path fill-rule="evenodd" clip-rule="evenodd" d="M186.599 693.234C173.909 693.523 161.968 693.527 151.48 693.527C144.338 693.527 137.845 692.894 131.959 691.697L133.666 617.61L177.457 615.589L186.599 693.234Z" fill="#2E2E99"/>
<path d="M137.051 617.457V606.141H175.184V615.588L137.051 617.457Z" fill="#84C2FF"/>
<path d="M137.051 617.457V606.141H175.184V615.588L137.051 617.457Z" fill="#66B2FF"/>
<path d="M290.335 1054.82C216.494 1065.46 72.818 1085.95 77.8536 998.642C87.8063 826.077 268.245 786.655 336.826 930.05C362.093 982.881 364.176 1044.19 290.335 1054.82Z" fill="white" fill-opacity="0.25"/>
<path d="M73.969 843.851C72.3011 834.144 75.6626 824.311 84.3886 819.743C100.802 811.149 134.22 799.212 193.216 799.212C252.213 799.212 285.631 811.149 302.044 819.743C310.77 824.311 314.132 834.144 312.464 843.851L285.368 1001.55C283.719 1011.15 275.396 1018.16 265.657 1018.16H120.776C111.037 1018.16 102.714 1011.15 101.065 1001.55L73.969 843.851Z" fill="#CCCCFF"/>
<path d="M99.8976 838.399C96.9957 834.163 97.9324 828.587 102.548 826.339C114.485 820.526 141.537 811.27 192.778 811.27C244.046 811.27 271.859 820.536 284.262 826.348C289.025 828.58 290.072 834.309 287.099 838.648L275.879 855.025C274.015 857.746 270.928 859.373 267.63 859.373H119.538C116.24 859.373 113.153 857.746 111.289 855.025L99.8976 838.399Z" fill="white"/>
<path d="M191.377 848.419C169.286 848.419 151.378 853.318 151.378 859.362H231.376C231.376 853.318 213.468 848.419 191.377 848.419Z" fill="white"/>
<path d="M191.445 824.78L194.524 853.786C194.65 854.967 193.724 855.997 192.536 855.997H190.353C189.165 855.997 188.239 854.967 188.365 853.786L191.445 824.78Z" fill="#FF9933"/>
<ellipse cx="36.0243" cy="2.22555" rx="36.0243" ry="2.22555" transform="matrix(-1 0 0 1 288.645 1039.69)" fill="black" fill-opacity="0.25"/>
<path d="M222.262 1040.02L229.129 1036.72C231.338 1035.66 232.744 1033.43 232.744 1030.98H238.877L238.395 1032.96C237.909 1034.96 237.991 1037.05 238.632 1039L238.73 1039.3C239.155 1040.59 238.191 1041.92 236.83 1041.92H222.695C221.631 1041.92 221.303 1040.48 222.262 1040.02Z" fill="#2E2E99"/>
<path d="M271.572 1024.55L265.186 1016.32L270.746 1011.78L275.511 1019.98L271.572 1024.55Z" fill="#FF9C7A"/>
<path d="M233.167 1031.02L233.444 1020.55H240.145L238.425 1031.02H233.167Z" fill="#FF9C7A"/>
<path d="M233.865 1001.42L237.997 962.659L249.756 981.285L243.443 1001.42L240.287 1021.34H233.212L233.865 1001.42Z" fill="#2E2E99"/>
<path d="M245.423 995.092C246.314 991.975 236.107 976.142 238.016 964.057L247.526 988.388L245.423 995.092Z" fill="black" fill-opacity="0.25"/>
<path d="M238.097 961.728L240.062 949.866L255.533 953.579L251.652 964.141L238.097 961.728Z" fill="#FF9C7A"/>
<path d="M253.98 1000.93L240.44 974.716C238.299 970.571 237.501 965.862 238.155 961.243L251.219 962.959C254.217 964.272 256.21 967.173 256.362 970.443L256.541 974.288C256.639 976.39 256.992 978.472 257.591 980.489L262.395 996.65L270.811 1011.8L264.996 1016.39L253.98 1000.93Z" fill="#5252CC"/>
<path d="M275.649 1029.64L271.321 1024.61L275.649 1019.71L278.037 1024.31C278.502 1025.2 279.559 1025.61 280.504 1025.26L280.869 1025.13C282.185 1024.64 283.579 1025.63 283.561 1027.03L283.374 1041.06C283.36 1042.11 281.941 1042.43 281.477 1041.48L275.649 1029.64Z" fill="#2E2E99"/>
<path d="M240.562 934.366C240.846 931.123 248.318 924.458 255.062 926.866C259.995 928.627 260.091 932.125 259.296 934.366C257.905 938.286 255.731 953.329 255.731 953.329C255.731 953.329 244.424 955.932 238.649 950.238C240.149 940.238 240.402 936.193 240.562 934.366Z" fill="#9999FF"/>
<path d="M256.801 935.207L257.454 957.161L247.409 975.326L248.938 961C249.364 957.016 249.499 953.008 249.345 949.005L248.822 935.48C248.729 933.075 250.768 931.136 253.165 931.349C255.179 931.528 256.741 933.186 256.801 935.207Z" fill="black" fill-opacity="0.25"/>
<path d="M252.819 955.19L249.919 935.634C249.538 933.063 251.41 930.705 254.001 930.494C256.566 930.285 258.783 932.269 258.859 934.841L259.477 955.608C256.153 963.09 249.663 977.832 249.132 978.613C248.612 979.378 245.818 982.82 244.998 982.663C244.519 982.571 240.795 984.65 239.325 983.77C238.466 983.256 241.419 981.07 243.089 979.53C244.785 977.967 246.376 976.55 247.089 975.245L252.819 955.19Z" fill="#FF9C7A"/>
<path d="M254.791 928.964L248.95 932.224L250.716 944.109L259.681 943.429V932.224L254.791 928.964Z" fill="#9999FF"/>
<path d="M253.255 926.393C254.936 925.483 254.65 923.595 254.65 923.595L262.9 921.231L257.578 929.47C257.578 929.47 253.517 928.083 253.255 926.393Z" fill="#FF9C7A"/>
<path d="M251.559 922.062C250.673 920.702 250.132 917.66 255.546 912.17C257.805 908.107 263.662 905.899 267.074 910.358C270.487 914.817 268.208 918.214 262.702 922.024C257.196 925.834 252.444 923.422 251.559 922.062Z" fill="#FF9C7A"/>
<path d="M257.786 923.633C257.537 923.77 255.21 924.017 254.689 923.854C254.689 923.854 254.628 924.483 254.549 924.758C255.984 925.178 257.935 923.551 257.786 923.633Z" fill="black" fill-opacity="0.25"/>
<path d="M258.83 907.343C258.83 907.343 253.17 910.213 257.605 913.228C262.041 916.243 262.659 917.556 260.051 922.338C257.442 927.12 250.582 931.437 255.649 937.321C260.717 943.205 255.938 945.538 254.461 952.151C252.985 958.764 256.842 965.437 265.853 964.367C274.864 963.296 283.928 954.518 278.934 944.777C273.939 935.037 264.867 929.317 269.303 918.991C273.739 908.664 265.899 904.683 258.83 907.343Z" fill="#995612"/>
<path d="M264.781 919.218C264.553 917.927 263.319 917.065 262.025 917.292C260.73 917.519 259.866 918.749 260.094 920.04C260.323 921.331 261.557 922.194 262.851 921.967C264.145 921.74 265.01 920.509 264.781 919.218Z" fill="#FF9C7A"/>
<path d="M531.066 298.442C594.379 312.616 688.967 305.691 704.378 246.617C719.789 187.543 684.566 112.367 559.503 111.539C434.44 110.71 367.837 261.899 531.066 298.442Z" fill="white" fill-opacity="0.25"/>
<path d="M518.538 102.26C596.296 228.271 635.894 141.415 565.381 127.289C494.868 113.163 440.631 146.034 508.558 181.681" stroke="white" stroke-width="2" stroke-linecap="round" stroke-linejoin="round" stroke-dasharray="3 10"/>
<path d="M649.844 166H569L570.074 245H681V197.154C681.089 179.925 667.123 166 649.844 166Z" fill="#66B2FF"/>
<path d="M569 166C586.143 166 600 179.925 600 197.154V245H538V197.154C538.089 179.925 551.946 166 569 166Z" fill="#255F99"/>
<path d="M569 324C551.857 324 538 310.075 538 292.846V245H600V292.846C600 310.075 586.143 324 569 324Z" fill="#66B2FF"/>
<path d="M627.236 130.806C628.221 130.806 629.026 131.609 629.026 132.591V198.364H625.355V132.591C625.355 131.609 626.161 130.806 627.236 130.806Z" fill="white"/>
<path d="M627.325 205.324C631.182 205.324 634.308 202.208 634.308 198.363C634.308 194.519 631.182 191.402 627.325 191.402C623.468 191.402 620.341 194.519 620.341 198.363C620.341 202.208 623.468 205.324 627.325 205.324Z" fill="white"/>
<path d="M628.43 132.591H645.531V139.373L628.43 143.657V132.591Z" fill="#FF6666"/>
<path d="M642 245H612V255H642V245Z" fill="#5252CC"/>
<path fill-rule="evenodd" clip-rule="evenodd" d="M634 300.325V255H620V302.732C624.75 302.093 629.428 301.294 634 300.325Z" fill="#84C2FF"/>
<path d="M535.522 168.7L576.611 214.038L515.686 201.197L535.522 168.7Z" fill="#FF6666"/>
<path d="M529.868 177.958L514.578 185.552L521.917 191L522.92 189.426L576.605 214.03L529.868 177.958Z" fill="#CC2D2D"/>
<path d="M634 274L620 255H634V274Z" fill="black" fill-opacity="0.25"/>
<path d="M564.082 679.84C630.112 689.832 684.928 675.352 670.853 598.726C643.035 447.274 494.284 435.384 455.978 571.031C441.866 621.007 498.052 669.847 564.082 679.84Z" fill="white" fill-opacity="0.25"/>
<path fill-rule="evenodd" clip-rule="evenodd" d="M645.971 611.922L711.966 524.255L615.991 471.061L622.28 500.609L505.666 525.428L523.068 607.193L639.682 582.374L645.971 611.922Z" fill="#8080FF"/>
<path fill-rule="evenodd" clip-rule="evenodd" d="M602.482 590.292L536.552 562.129L548.745 533.586L510.059 546.068L523.068 607.194L602.482 590.292Z" fill="black" fill-opacity="0.25"/>
<path fill-rule="evenodd" clip-rule="evenodd" d="M530.838 533.517L429.925 576.614L486.604 670.572L497.243 637.61L611.784 674.578L634.742 603.445L520.2 566.478L530.838 533.517Z" fill="#FF9933"/>
<path d="M569.466 1053.74C495.504 1053.74 435.546 1004.38 435.546 943.482C435.546 882.588 467.859 841.587 541.821 841.587C615.783 841.587 703.386 882.588 703.386 943.482C703.386 1004.38 643.428 1053.74 569.466 1053.74Z" fill="white" fill-opacity="0.25"/>
<mask id="mask1_2607_5188" style="mask-type:alpha" maskUnits="userSpaceOnUse" x="431" y="776" width="280" height="278">
<path d="M569.466 1053.74C495.504 1053.74 435.546 1004.38 435.546 943.481C435.546 908.759 414.684 847.285 471.022 811.127C513.486 783.873 630.236 776.162 662.024 776.162C735.986 776.162 703.386 882.587 703.386 943.481C703.386 1004.38 643.428 1053.74 569.466 1053.74Z" fill="#E6E6E6"/>
</mask>
<g mask="url(#mask1_2607_5188)">
<path d="M589.233 967.629L542.869 980.052C538.601 981.196 534.215 978.663 533.071 974.396L512.624 898.088C511.481 893.82 514.013 889.433 518.281 888.29L564.646 875.866C568.913 874.723 573.3 877.255 574.444 881.523L594.89 957.831C596.034 962.099 593.501 966.486 589.233 967.629Z" fill="#C0C0C8"/>
<path d="M588.198 963.765L541.834 976.188C537.566 977.332 533.179 974.799 532.036 970.531L511.072 892.291C509.928 888.024 512.461 883.637 516.728 882.493L563.093 870.07C567.361 868.927 571.747 871.459 572.891 875.727L593.855 953.967C594.999 958.235 592.466 962.621 588.198 963.765Z" fill="#E0E0E8"/>
<path d="M587.163 959.902L540.798 972.325C538.664 972.897 536.471 971.631 535.899 969.497L514.935 891.257C514.363 889.123 515.63 886.929 517.763 886.358L564.128 873.934C566.262 873.363 568.455 874.629 569.027 876.763L589.991 955.003C590.563 957.137 589.297 959.33 587.163 959.902Z" fill="white"/>
<path d="M564.064 927.786L544.746 932.963C541.545 933.82 538.255 931.921 537.397 928.72C536.54 925.519 538.439 922.229 541.64 921.372L560.958 916.195C564.159 915.338 567.449 917.237 568.307 920.438C569.165 923.639 567.265 926.929 564.064 927.786Z" fill="#FF9933"/>
<path d="M558 976L545.502 992.088V1062.94L493.332 1050.68L503.962 974.616C503.962 974.616 498.597 949.211 505.298 932.679C508.284 925.015 509.607 916.804 509.181 908.59C508.847 901.023 519.712 899.29 521.705 906.607C522.53 909.738 523.104 916 523.041 922.346C523.019 925.02 523.582 927.667 524.69 930.101C527.352 936.008 531.682 947.498 529 954L532.869 973.697C533.755 978.206 538.247 981.043 542.698 979.907L558 976Z" fill="#FF9C7A"/>
<path d="M579 956.5C579 956.5 560.829 931.283 560.078 925.74C559.326 920.198 564.117 918.111 570.369 921.983C576.621 925.855 588.833 940.447 588.833 940.447C588.833 940.447 609.707 930.615 617.712 937.461C618.782 943.789 587.684 962.402 582 966.5C575.523 971.17 567.5 963 579 956.5Z" fill="black" fill-opacity="0.25"/>
<path d="M632.57 1045.55L603.513 991.639C603.513 991.639 595.163 987.464 585.341 983.289C575.52 979.114 570.949 972.382 572.264 967.226C573.579 962.07 583.285 955.849 583.285 955.849C583.285 955.849 564.206 928.285 563.455 922.742C562.703 917.2 567.494 915.113 573.746 918.985C579.998 922.857 592.209 937.448 592.209 937.448C592.209 937.448 613.084 927.617 621.089 934.463C629.094 941.31 653.146 1004.66 664.554 1023.63L632.57 1045.55Z" fill="#FF9C7A"/>
</g>
<circle cx="629" cy="849" r="36" fill="#FF9933"/>
<path fill-rule="evenodd" clip-rule="evenodd" d="M633.933 848.2C634.467 848.6 634.467 849.4 633.933 849.8L616.6 862.8C615.941 863.294 615 862.824 615 862V836C615 835.176 615.941 834.706 616.6 835.2L633.933 848.2Z" fill="white"/>
<rect x="633" y="835" width="10" height="28" rx="1" fill="white"/>
<path d="M300.499 1402.34C251.325 1431.79 89.2942 1402.2 81.1546 1321.86C62.1229 1134.01 386.576 1350.78 300.499 1402.34Z" fill="white" fill-opacity="0.25"/>
<ellipse cx="269.242" cy="1393.78" rx="15.7752" ry="2.22555" fill="black" fill-opacity="0.25"/>
<path d="M218.91 1228.83L235.187 1256.06L263.788 1253.43C263.656 1248.61 268.419 1248.25 271.124 1246.01C271.432 1245.75 271.886 1245.62 272.166 1245.9C273.002 1246.75 271.608 1248.21 271.608 1248.21C273.573 1246.95 275.809 1245.52 277.634 1244.51C278.833 1243.85 280.334 1244.07 281.285 1245.06C283.099 1246.97 283.122 1250.81 278.608 1253.43C271.89 1257.32 272.526 1257.87 267.547 1258.13C265.484 1258.24 242.788 1266.33 231.525 1267.21C220.262 1268.09 205.863 1236.32 205.863 1236.32L218.91 1228.83Z" fill="#FF9C7A"/>
<path d="M177.371 1306.52L167.197 1328.76C167.197 1328.76 162.285 1324.99 159.768 1323.44C157.251 1321.88 129.298 1311.22 129.298 1311.22L125.075 1318.46L167.953 1346.66C170.588 1348.39 174.109 1347.72 175.924 1345.15L195.019 1318.19L177.371 1306.52Z" fill="#FF9C7A"/>
<path d="M125.453 1320.05C122.091 1317.85 118.138 1316.71 114.117 1316.81L98.5705 1317.16C97.1233 1317.16 96 1316.03 96 1314.64C96 1313.68 96.5292 1312.82 97.3825 1312.39L121.273 1300.3C121.662 1300.11 122.083 1300 122.515 1300C123.887 1300 125.064 1301.03 125.248 1302.39L130.907 1310.7L125.453 1320.05V1320.05Z" fill="#2E2E99"/>
<path d="M186.508 1273.37L220.264 1284.14C220.264 1284.14 246.833 1242.78 232.444 1230.91C218.054 1219.04 202.688 1219.25 194.944 1222.41C184.165 1226.8 186.508 1273.37 186.508 1273.37Z" fill="#9999FF"/>
<path d="M174 1305.29C174.819 1310.97 193.781 1320.04 193.781 1320.04L215.981 1286.52C215.981 1286.52 198.158 1270.72 192.242 1275C186.326 1279.28 183.733 1295 174 1305.29Z" fill="#2E2E99"/>
<path d="M189.39 1326.08C198.148 1313.29 180.924 1292.78 185.007 1287.55C185.007 1287.55 210.42 1294.38 202.772 1306.42C195.124 1318.45 189.39 1326.08 189.39 1326.08Z" fill="black" fill-opacity="0.25"/>
<path d="M254.666 1318.08C254.374 1316.89 253.694 1315.84 252.743 1315.08L232.55 1297.05L220.871 1314.3L240.182 1326.24C240.182 1326.24 240.539 1329.7 241.859 1334.83C243.179 1339.97 259.461 1371.9 259.461 1371.9L266.86 1367.04L254.666 1318.08Z" fill="#FF9C7A"/>
<path d="M265.303 1385.28C263.521 1385.28 262.009 1384.07 261.631 1382.33L257.83 1370.1L267.282 1365.52V1365.52C268.113 1368 270.599 1369.54 273.192 1369.17L286.321 1367.31C286.472 1367.29 286.613 1367.27 286.753 1367.27C287.984 1367.27 289.108 1368.01 289.605 1369.15C290.253 1370.63 289.669 1372.35 288.255 1373.13L267.118 1384.8C266.556 1385.12 265.93 1385.28 265.303 1385.28Z" fill="#2E2E99"/>
<path d="M213.957 1280.72L235.5 1299.57C235.5 1299.57 227.182 1315.15 219.6 1318.07C212.818 1310.47 202.974 1304.72 194.923 1300.91C187.287 1297.3 182.519 1288.93 184.487 1280.72V1280.72L213.957 1280.72Z" fill="#5252CC"/>
<path d="M246.182 1239.95H154.117V1284.14H246.182V1239.95Z" fill="#66B2FF"/>
<path d="M217.87 1284.14L189.465 1284.14L223.198 1288.83L217.87 1284.14Z" fill="black" fill-opacity="0.25"/>
<path d="M229.844 1262.04L202.688 1248.43V1255.81H174.188V1267.98H202.688V1275.67L229.844 1262.04Z" fill="white"/>
<path d="M184.517 1273.13C182.451 1267.18 179.853 1255.39 178.121 1252.68C176.388 1249.97 178.999 1248.71 179.727 1248.59L191.834 1245.93C197.343 1244.99 200.804 1239.46 199.245 1234.09C197.8 1229.12 192.539 1226.2 187.897 1228.5C180.212 1232.31 175.033 1236.99 167.85 1239.65C164.56 1240.87 162.945 1244.61 164.315 1247.85L181.388 1284.14H195.654C190.086 1281.53 190.36 1277.42 184.517 1273.13Z" fill="black" fill-opacity="0.25"/>
<path d="M173.922 1248.2C173.922 1248.2 175.151 1250.92 175.778 1253.22C176.405 1255.52 180.384 1272.6 180.384 1272.6C181.019 1274.68 181.587 1274.85 184.759 1276.74C187.932 1278.62 187.515 1279.18 188.193 1280.88C188.871 1282.58 188.169 1282.88 186.653 1281.98C185.149 1281.09 185.183 1279.9 183.649 1279.63C182.109 1279.34 184.127 1282.33 186.5 1284.14L189.456 1284.14C189.913 1286.05 188.685 1286.06 187.549 1286.43C186.406 1286.81 181.523 1286.53 181.523 1286.53C181.523 1286.53 179.96 1285.59 178.594 1282.87C178.071 1281.84 177.63 1279.63 177.137 1276.74C174.816 1272.04 169.012 1263.51 167.057 1259.04C164.506 1253.2 164.92 1252 162.924 1247.3C161.553 1244.06 161.921 1242.23 165.21 1241.01C173.036 1238.11 178.866 1231.64 187.907 1227.25C191.497 1225.51 195.569 1227.66 196.837 1231.44V1231.44C198.085 1235.17 196.217 1239.22 192.575 1240.69L173.922 1248.2Z" fill="#FF9C7A"/>
<path d="M186.701 1245.27L180.677 1230.9L194.617 1222.54L200.718 1226.5L202.571 1238.32L186.701 1245.27Z" fill="#9999FF"/>
<path d="M218.233 1205.12L224.315 1205.94V1218.1L222.446 1226.19C220.79 1226.9 213.253 1223.86 212.214 1221.7L218.233 1205.12Z" fill="#FF9C7A"/>
<path d="M228.298 1194.9C223.039 1193.82 213.925 1191.03 217.738 1204.46C216.701 1207.94 221.265 1218.87 224.464 1221.25C227.663 1223.64 230.614 1223.43 232.524 1220.48C234.433 1217.54 235.289 1214.15 237.395 1208.42C238.572 1205.18 243.819 1198.12 228.298 1194.9Z" fill="#FF9C7A"/>
<path d="M221.378 1217.57C221.378 1217.57 222.892 1219.83 223.761 1220.62C223.629 1221.02 223.316 1222.39 223.316 1222.39C222.662 1221.6 221.292 1218.16 221.378 1217.57Z" fill="black" fill-opacity="0.25"/>
<path d="M216.529 1209.19C216.068 1210.63 218.771 1211.54 219.62 1211.54C221.085 1211.54 222.472 1211.11 223.544 1210.34C224.778 1209.53 225.678 1208.4 226.111 1207.09C226.545 1205.78 226.516 1204.34 226.008 1202.98C228.812 1204.39 231.77 1205.55 234.815 1206.41C235.841 1206.7 236.89 1206.86 237.937 1206.87L242.478 1201.61C242.478 1201.61 248.526 1196.85 244.66 1194.15C240.795 1191.46 237.392 1194.87 234.902 1190.81C232.413 1186.74 231.984 1185.4 227.831 1185.82C223.667 1186.23 227.418 1192.22 221.531 1190.28C215.633 1188.34 214.293 1189.24 213.481 1191.45C212.431 1197.75 218.748 1202.58 216.529 1209.19Z" fill="#995612"/>
<path d="M226.584 1210.25C227.162 1208.62 226.309 1206.83 224.68 1206.25C223.05 1205.67 221.26 1206.51 220.682 1208.14C220.104 1209.77 220.957 1211.56 222.587 1212.14C224.216 1212.72 226.006 1211.87 226.584 1210.25Z" fill="#FF9C7A"/>
<path d="M126.528 1183.63L112.017 1176.35V1180.18H91.6211V1187.63H112.017V1190.91L126.528 1183.63Z" fill="white" fill-opacity="0.25"/>
<path d="M357.045 1305.62L329.871 1292V1299.16H291.681V1313.11H329.871V1319.26L357.045 1305.62Z" fill="white" fill-opacity="0.25"/>
<path opacity="0.5" d="M188.417 1210.06C192.294 1210.06 195.437 1206.91 195.437 1203.03C195.437 1199.14 192.294 1196 188.417 1196C184.539 1196 181.396 1199.14 181.396 1203.03C181.396 1206.91 184.539 1210.06 188.417 1210.06Z" fill="white" fill-opacity="0.25"/>
<path opacity="0.5" d="M228.616 1167.92C230.409 1167.92 231.856 1166.47 231.856 1164.67C231.856 1162.87 230.409 1161.42 228.616 1161.42C226.823 1161.42 225.376 1162.87 225.376 1164.67C225.376 1166.47 226.823 1167.92 228.616 1167.92Z" fill="white" fill-opacity="0.25"/>
<path opacity="0.5" d="M285.135 1216.14C288.753 1216.14 291.68 1213.2 291.68 1209.59C291.68 1205.96 288.742 1203.03 285.135 1203.03C281.517 1203.03 278.59 1205.97 278.59 1209.59C278.59 1213.2 281.517 1216.14 285.135 1216.14Z" fill="white" fill-opacity="0.25"/>
<path opacity="0.5" d="M281.83 1284.46C283.623 1284.46 285.07 1283.01 285.07 1281.21C285.07 1279.41 283.623 1277.96 281.83 1277.96C280.037 1277.96 278.59 1279.41 278.59 1281.21C278.59 1283.01 280.037 1284.46 281.83 1284.46Z" fill="white" fill-opacity="0.25"/>
<path d="M172.832 1248.6L173.927 1248.2C173.927 1248.2 174.715 1250.02 175.07 1251.05C174.313 1250.71 173.383 1248.8 172.832 1248.6Z" fill="black" fill-opacity="0.25"/>
<path fill-rule="evenodd" clip-rule="evenodd" d="M1064.86 230.673C1048.97 270.325 1003.97 289.595 964.33 273.717C924.678 257.832 905.425 212.835 921.285 173.193C931.448 147.838 953.51 130.827 978.455 126.005L977.142 116.793L973.87 117.268L971.152 98.2899L984.938 96.297L987.667 115.3L984.402 115.758L985.722 124.952C995.407 124.027 1005.39 124.917 1015.16 127.838L1021.12 112.923L1012.96 109.66L1019.87 92.4494L1049.27 104.22L1042.37 121.43L1034.2 118.167L1028.24 133.082C1063.49 151.019 1079.85 193.254 1064.86 230.673Z" fill="#66B2FF"/>
<path fill-rule="evenodd" clip-rule="evenodd" d="M1053.39 226.09C1040.04 259.402 1002.23 275.592 968.913 262.249C935.606 248.91 919.417 211.091 932.758 177.778C946.098 144.471 983.918 128.282 1017.22 141.622C1050.54 154.963 1066.73 192.783 1053.39 226.09Z" fill="#84C2FF"/>
<path fill-rule="evenodd" clip-rule="evenodd" d="M997.537 208.039C999.6 207.025 1000.72 204.868 1000.52 202.709L1048.62 177.471L998.843 199.29C997.257 197.806 994.865 197.372 992.803 198.382C990.812 199.359 989.694 201.404 989.802 203.485L965.67 214.682L968.035 219.507L991.662 207.288C993.248 208.647 995.545 209.016 997.537 208.039Z" fill="white"/>
<path fill-rule="evenodd" clip-rule="evenodd" d="M1034.21 118.167L1028.24 133.077C1026.17 132.019 1024.02 131.043 1021.82 130.159C1019.61 129.276 1017.39 128.502 1015.15 127.835L1021.13 112.925L1034.21 118.167Z" fill="#5252CC"/>
<path fill-rule="evenodd" clip-rule="evenodd" d="M985.715 124.953C983.276 125.185 980.856 125.537 978.46 126.001L977.143 116.804L984.398 115.76L985.715 124.953Z" fill="#5252CC"/>
<path d="M898.247 335.901C961.56 340.109 1056.15 338.053 1071.56 320.514C1086.97 302.974 1051.75 280.653 926.684 280.407C801.62 280.161 735.018 325.051 898.247 335.901Z" fill="white" fill-opacity="0.25"/>
<path d="M982.239 284.362L943.237 266.237L949.551 242.068L984.641 266.057C984.641 266.057 993.142 267.145 998.838 269.424C1004.53 271.702 1036.3 285.535 1036.3 285.535L1033.65 294.552L982.239 284.362Z" fill="#FF9C7A"/>
<path d="M1000.11 300.339L988.852 286.907C987.532 285.333 985.272 284.937 983.496 285.968L979.717 276.969L984.91 274.808L991.031 271.255C993.308 269.933 996.219 271.134 996.902 273.677L1003.58 298.535C1004.13 300.603 1001.49 301.98 1000.11 300.339Z" fill="#2E2E99"/>
<path d="M946.969 272.012L925.042 261.421L927.449 224.559L957.372 247.001L946.969 272.012Z" fill="#2E2E99"/>
<path d="M922.893 302.651L914.882 274.597L937.945 272.081L939.801 288.824C939.801 288.824 941.405 286.156 946.319 284.325C951.233 282.494 979.784 277.193 979.784 277.193L983.366 285.627L937.945 309.164C932.028 312.817 924.281 309.465 922.893 302.651Z" fill="#FF9C7A"/>
<path d="M948.418 268.678L953.511 270.993C944.751 267.004 941.708 242.454 936.08 236.164L938.735 267.982L946.968 272.041L948.418 268.678Z" fill="black" fill-opacity="0.25"/>
<path d="M914.99 275.527L908.957 248.646L911.001 222.23L919.63 222.23C936.657 223.136 942.492 231.612 938.833 248.646C937.666 258.261 940.307 273.446 940.307 273.446L914.99 275.527Z" fill="#5252CC"/>
<path d="M863.809 252.652C849.006 253.106 846.909 236.533 847.651 229.524C849.156 215.309 850.809 215.342 860.517 215.539L860.583 215.54C867.104 215.673 910.595 221.459 914.317 222.233C918.04 223.008 908.129 258.954 904.693 259.208C901.257 259.461 878.613 252.199 863.809 252.652Z" fill="#9999FF"/>
<path d="M851.695 216.708L833.259 211.84L832.699 225.417L847.989 227.878C853.267 219.3 851.695 216.708 851.695 216.708Z" fill="#FF9C7A"/>
<path d="M844.544 227.323L842.047 226.927C840.665 225.793 838.165 222.925 840.627 223.294C843.088 223.662 844.421 226.345 844.544 227.323Z" fill="black" fill-opacity="0.25"/>
<path d="M819.725 232.319C811.825 231.571 809.571 228.526 810.641 218.098C812.197 202.934 821.804 204.68 827.92 206.695C835.276 209.12 841.728 221.566 843.119 227.3C844.45 232.789 843.017 233.72 841.692 234.573C840.368 235.427 827.625 233.068 819.725 232.319Z" fill="#FF9C7A"/>
<path d="M840.439 213.334C842.238 214.103 840.834 217.529 840.11 218.361C838.861 219.796 837.267 220.797 835.6 221.193C833.751 221.71 831.878 221.631 830.22 220.936C828.572 220.251 827.186 219 826.278 217.339C825.28 221.292 823.896 225.177 822.15 228.896C821.561 230.149 820.826 231.313 819.945 232.35L810.918 232.322C810.918 232.322 801.106 234.202 801.755 228.119C802.404 222.037 808.645 221.604 806.779 215.704C804.913 209.805 803.962 208.243 807.901 204.522C811.85 200.79 814.533 209.568 817.638 202.142C820.753 194.706 822.777 194.159 825.634 195.244C832.706 199.577 832.074 209.887 840.439 213.334Z" fill="#995612"/>
<path d="M832.917 224.09C830.83 223.272 829.8 220.913 830.616 218.82C831.433 216.727 833.787 215.693 835.874 216.511C837.961 217.329 838.991 219.689 838.174 221.782C837.358 223.874 835.004 224.908 832.917 224.09Z" fill="#FF9C7A"/>
<path d="M868.203 252.53C859.795 251.865 868.365 230.454 868.365 230.454C876.419 236.255 871.004 251.034 891.034 256.29C891.034 256.29 876.61 253.195 868.203 252.53Z" fill="black" fill-opacity="0.25"/>
<path d="M869 314C869 315.105 862.557 316 854.609 316C846.661 316 840 315.105 840 314C840 312.895 846.661 312 854.609 312C862.557 312 869 312.895 869 314Z" fill="black" fill-opacity="0.25"/>
<path d="M841.01 313.759L865.958 313.759C868.112 313.756 867.74 308.721 866.604 308.209C861.089 305.722 857.318 310.658 851.344 310.601C842.967 310.52 840.717 311.99 841.01 313.759Z" fill="#FF9C7A"/>
<path d="M858.409 275.229L853.041 254.741C851.576 249.698 855.128 244.587 860.365 244.201C864.71 243.882 868.555 246.992 869.151 251.308L869.869 267.748C870.521 272.47 870.69 272.149 869.869 276.844L867.969 311.56C867.825 312.387 867.352 313.081 866.703 313.523C865.686 314.216 864.534 313.26 864.176 312.083L863.372 309.436L858.409 275.229Z" fill="#FF9C7A"/>
<path d="M852.678 254.436L848.721 240.772L867.684 223.762C867.684 223.762 869.997 243.374 869.672 254.173C868.618 256.587 855.292 257.007 852.678 254.436Z" fill="#9999FF"/>
<ellipse cx="1049.17" cy="313.565" rx="9.12335" ry="1.0041" fill="black" fill-opacity="0.25"/>
<path d="M1033.44 295.147L1036.49 285.098L1038.5 285.842C1041.15 286.817 1044.02 286.973 1046.75 286.29L1048.17 285.936C1050.79 285.28 1053.29 287.356 1053.12 290.053C1052.51 299.707 1051.63 311.558 1050.9 312.27C1049.35 313.781 1042.98 314.862 1040.97 312.554C1039.44 310.805 1041.59 310.234 1043.38 309.163C1044.84 308.291 1044.76 306.428 1043.97 304.922L1039.22 295.896L1033.44 295.147Z" fill="#2E2E99"/>
<path d="M1034.21 118.209L1021.57 113.094L1029.62 129.621L1034.21 118.209Z" fill="black" fill-opacity="0.25"/>
<path d="M984.405 115.752L977.707 116.727L985.61 124.158L984.405 115.752Z" fill="black" fill-opacity="0.25"/>
<path d="M940.061 292.385L939.816 288.802C941.684 286.208 944.757 285.007 944.757 285.007C943.341 286.163 941.317 290.502 940.061 292.385Z" fill="black" fill-opacity="0.25"/>
<path d="M804.234 656.767C773.8 604.255 880.058 536.59 953.096 534.367C997.276 548.853 1007.2 485.14 1057.46 594.031C1125.41 741.265 834.667 709.279 804.234 656.767Z" fill="white" fill-opacity="0.25"/>
<rect x="848.234" y="441.767" width="201" height="216" fill="#66B2FF"/>
<rect x="980.234" y="634.767" width="64" height="10" fill="#84C2FF"/>
<rect x="948.234" y="620.767" width="96" height="10" fill="#84C2FF"/>
<rect x="853.487" y="446.874" width="190.816" height="152.458" fill="white"/>
<rect x="999.971" y="456.701" width="28.1967" height="132.468" fill="#E0E0E8"/>
<path d="M852.87 562.194L922.375 511.587L946.478 528.145L1001.56 491.037" stroke="#66B2FF" stroke-width="2" stroke-linecap="round"/>
<circle cx="1013.73" cy="485.268" r="3.5" fill="black" fill-opacity="0.25"/>
<circle cx="1013.77" cy="484.067" r="4" fill="#5252CC"/>
<circle cx="922.219" cy="511.687" r="3.05065" fill="#66B2FF"/>
<circle cx="946.475" cy="527.657" r="3.05065" fill="#66B2FF"/>
<path d="M937.321 595.394L944.159 582.609L955.386 588.742L945.511 601.216L916.887 625.053L914.276 620.595C914.276 620.595 927.387 602.946 930.157 600.07C932.927 597.193 937.321 595.394 937.321 595.394Z" fill="#FF9C7A"/>
<path d="M911.091 620.285L912.824 621.043C913.271 621.239 913.795 621.083 914.062 620.674L915.352 618.699L918.886 624.04L918.845 624.066C916.766 625.375 915.039 627.175 913.819 629.308L909.492 636.867C908.682 638.282 906.515 637.572 906.7 635.952L908.303 621.891C908.455 620.554 909.858 619.746 911.091 620.285Z" fill="#2E2E99"/>
<path d="M941.859 582.431L951.178 571.753L972.457 569.767L953.958 590.554C951.721 591.06 941.859 582.431 941.859 582.431Z" fill="#2E2E99"/>
<path d="M960.789 576.866C956.403 576.914 951.878 573.989 951.878 571.586L971.758 570.587L965.854 577.145C965.425 576.954 964.298 576.828 960.789 576.866Z" fill="black" fill-opacity="0.25"/>
<path d="M992.287 511.927L977.736 526.269L982.991 531.987L998.573 515.83C1001.11 508.956 1006.32 494.807 1006.83 493.208C1007.48 491.209 1007.19 492.28 1009.76 489.46C1012.33 486.64 1012.37 485.783 1011.44 485.783C1010.51 485.783 1008.58 487.996 1008.12 487.889C1007.65 487.782 1007.44 484.141 1009.76 482.963C1012.08 481.785 1012.47 481 1012.08 480.5C1010.94 481.012 1008.55 482.099 1008.12 482.356C1007.58 482.677 1006.48 482.749 1005.8 482.963C1005.26 483.134 1004.27 488.24 1003.85 490.771L992.287 511.927Z" fill="#FF9C7A"/>
<path d="M983.473 520.595L967.692 525.225L982.512 534.145L989.809 528.933C988.441 520.595 983.473 520.595 983.473 520.595Z" fill="#9999FF"/>
<path d="M987.171 530.827C984.954 530.33 980.67 527.777 974.647 526.836L982.8 533.968C983.089 533.823 985.94 531.788 987.171 530.827Z" fill="black" fill-opacity="0.25"/>
<path d="M963.023 525.946C959.961 528.6 954.204 551.546 949.526 562.813C955.267 562.813 969.937 562.099 973.713 562.813C978.059 551.355 984.125 539.955 982.73 533.103C981.334 526.252 966.85 522.63 963.023 525.946Z" fill="#9999FF"/>
<path d="M953.294 552.146L967.865 534.726L957.49 539.217L953.294 552.146Z" fill="black" fill-opacity="0.25"/>
<path d="M947.187 544.666L966.696 535.471C969.165 534.307 970.231 531.37 969.084 528.894C967.844 526.216 964.554 525.206 962.024 526.725L941.44 539.089C939.392 545.423 934.851 559.046 933.079 562.865C930.863 567.639 929.917 568.897 929.685 570.571C929.497 571.93 929.682 572.432 930.336 574.203L930.34 574.214C930.988 575.97 932.009 575.728 933.036 575.484L933.079 575.474C934.12 575.227 934.117 574.214 934.284 571.585C934.469 568.669 935.495 567.585 934.751 570.413C934.479 571.448 934.861 571.448 934.996 571.448C935.379 571.448 935.543 570.625 936.5 568.571C936.5 567.129 936.028 564.776 936.028 563.948C936.028 563.948 941.819 556.463 943.464 553.584C945.109 550.705 947.187 544.666 947.187 544.666Z" fill="#FF9C7A"/>
<path d="M953.512 531.851L963.536 525.588L970.368 526.667V536.18C970.368 536.18 959.153 539.865 958.51 540.782C955.281 539.992 953.512 531.851 953.512 531.851Z" fill="#9999FF"/>
<path d="M991.166 553.226L976.32 555.665L976.371 568.937L985.612 566.282C985.612 566.282 983.04 568.841 982.346 572.035C981.653 575.229 977.916 585.825 977.916 585.825L982.215 589.169L997.375 562.076C999.83 557.69 996.126 552.411 991.166 553.226Z" fill="#FF9C7A"/>
<path d="M972.958 603.016L980.894 592.137L983.294 588.956L977.751 584.461L977.035 587.008C976.947 587.318 976.594 587.466 976.312 587.31L975.582 586.907C974.38 586.243 972.881 586.959 972.644 588.312L970.269 601.873C969.995 603.438 972.022 604.3 972.958 603.016Z" fill="#2E2E99"/>
<path d="M979.035 555.223L955.129 559.158C951.212 559.802 948.318 563.158 948.256 567.127C948.119 575.824 955.882 577.519 960.381 575.433C964.879 573.347 972.115 571.261 977.334 570.73C981.048 567.519 979.035 555.223 979.035 555.223Z" fill="#5252CC"/>
<path d="M973.88 519.387L968.915 516.806C968.915 516.806 967.46 523.707 967.017 524.922C967.374 526.073 972.673 526.497 972.931 524.776C973.189 523.055 973.88 519.387 973.88 519.387Z" fill="#FF9C7A"/>
<path d="M971.872 520.844C972.053 520.955 972.984 521.258 973.502 521.433L973.338 522.307C972.186 521.891 971.727 520.755 971.872 520.844Z" fill="black" fill-opacity="0.25"/>
<path d="M967.941 503.159C964.062 504.416 956.998 505.99 964.55 513.429C965.172 516.118 971.445 521.351 974.452 521.727C977.458 522.102 979.901 520.165 980.059 517.506C980.217 514.847 979.775 513.251 979.016 508.674C978.58 506.096 979.396 499.462 967.941 503.159Z" fill="#FF9C7A"/>
<path d="M965.686 516.646C966.656 517.532 967.544 518.198 968.43 518.805C969.397 518.255 970.172 516.048 970.591 515.138C971.101 514.137 971.272 513.054 971.064 512.023C970.862 510.999 970.304 510.06 969.456 509.348C971.838 509.231 974.225 508.886 976.559 508.314C977.346 508.121 978.098 507.833 978.794 507.448L979.819 502.269C979.819 502.269 982.029 496.859 978.466 496.53C974.903 496.2 973.936 499.729 970.768 497.978C967.6 496.228 966.814 495.503 964.226 497.332C961.631 499.166 966.355 501.717 961.739 502.641C957.116 503.57 956.569 504.667 956.861 506.431C958.53 510.985 963.368 514.528 965.686 516.646Z" fill="#995612"/>
<path d="M972.562 513.933C972.333 512.642 971.099 511.779 969.805 512.006C968.511 512.233 967.646 513.464 967.875 514.755C968.103 516.046 969.337 516.909 970.632 516.682C971.926 516.455 972.79 515.224 972.562 513.933Z" fill="#FF9C7A"/>
<path d="M986.818 565.819C986.818 565.819 986.167 566.134 985.614 566.28C985.103 566.716 984.22 567.963 984.22 567.963C984.684 567.89 986.642 566.28 986.818 565.819Z" fill="black" fill-opacity="0.25"/>
<path d="M872.234 430.767H824.234V494.767H872.234V430.767V430.767Z" fill="#8080FF"/>
<path fill-rule="evenodd" clip-rule="evenodd" d="M857.761 460.267L848.234 446.767L838.708 460.267L842.234 460.267L842.234 478.767L854.234 478.767L854.234 460.267L857.761 460.267Z" fill="white"/>
<path d="M932.845 1053.74C1006.81 1053.74 1066.76 1004.38 1066.76 943.482C1066.76 882.588 1034.45 841.587 960.49 841.587C886.528 841.587 798.925 882.588 798.925 943.482C798.925 1004.38 858.883 1053.74 932.845 1053.74Z" fill="white" fill-opacity="0.25"/>
<mask id="mask2_2607_5188" style="mask-type:alpha" maskUnits="userSpaceOnUse" x="791" y="776" width="280" height="278">
<path d="M932.845 1053.74C1006.81 1053.74 1066.77 1004.38 1066.77 943.481C1066.77 908.759 1087.63 847.285 1031.29 811.127C988.825 783.873 872.076 776.162 840.288 776.162C766.326 776.162 798.925 882.587 798.925 943.481C798.925 1004.38 858.883 1053.74 932.845 1053.74Z" fill="#E6E6E6"/>
</mask>
<g mask="url(#mask2_2607_5188)">
<path d="M998.463 894.363C998.463 894.363 1028.53 902.306 1034.78 875.806C1041.04 849.306 1013.05 829.391 993.714 833.222C974.374 837.052 989.268 885.679 950.097 898.611C950.097 898.611 920.466 923.212 901.7 916.354C882.934 909.497 903.12 864.959 879 859C854.88 853.04 852.5 852 852.5 852" stroke="white" stroke-width="2" stroke-linecap="round" stroke-linejoin="round" stroke-dasharray="3 10"/>
<path d="M938.574 872.901L984.939 885.324C989.206 886.468 991.739 890.854 990.595 895.122L969.89 972.396C968.746 976.664 964.36 979.196 960.092 978.053L913.728 965.63C909.46 964.486 906.927 960.099 908.071 955.832L928.776 878.558C929.92 874.29 934.306 871.757 938.574 872.901Z" fill="#C0C0C8"/>
<path d="M939.868 868.071L986.233 880.494C990.5 881.637 993.033 886.024 991.889 890.292L970.925 968.532C969.782 972.8 965.395 975.332 961.127 974.189L914.763 961.765C910.495 960.622 907.962 956.235 909.106 951.967L930.07 873.727C931.214 869.46 935.6 866.927 939.868 868.071Z" fill="#E0E0E8"/>
<path d="M938.832 871.934L985.197 884.357C987.331 884.929 988.597 887.122 988.025 889.256L967.061 967.496C966.489 969.63 964.296 970.896 962.162 970.325L915.798 957.901C913.664 957.33 912.397 955.136 912.969 953.002L933.933 874.762C934.505 872.629 936.699 871.362 938.832 871.934Z" fill="white"/>
<path d="M940.709 919.025L960.028 924.201C963.228 925.059 965.128 928.349 964.27 931.549C963.413 934.75 960.123 936.65 956.922 935.792L937.603 930.616C934.403 929.758 932.503 926.468 933.361 923.267C934.218 920.066 937.508 918.167 940.709 919.025Z" fill="#FF9933"/>
<path d="M972.192 894.332L945.146 887.085L940.229 905.438L967.275 912.684L972.192 894.332Z" fill="#FF6666"/>
<path d="M972.192 894.332L945.146 887.085L956.321 899.397L972.192 894.332Z" fill="#FF8484"/>
<path d="M945.001 974L956.809 992.088V999.853L1000.57 995.939L998.35 974.616C998.35 974.616 1003.71 949.211 997.014 932.679C994.027 925.015 992.704 916.804 993.131 908.59C993.465 901.023 982.6 899.29 980.606 906.607C979.782 909.738 979.208 916 979.27 922.346C979.292 925.02 978.729 927.667 977.621 930.101C974.96 936.008 970.493 947.604 973.175 954.106L969.665 971.356C968.765 975.783 964.38 978.587 959.983 977.546L945.001 974Z" fill="#FF9C7A"/>
<path d="M925.542 953.875C925.542 953.875 939.474 932.219 940.225 926.677C940.977 921.135 936.186 919.047 929.934 922.92C923.682 926.792 911.471 941.383 911.471 941.383C911.471 941.383 890.596 931.551 882.591 938.398C886.577 959.784 948.06 993.228 925.542 953.875Z" fill="black" fill-opacity="0.25"/>
<path d="M894.03 1002.59L898.799 991.639C898.799 991.639 907.149 987.464 916.971 983.289C926.792 979.114 931.363 972.382 930.048 967.226C928.733 962.07 919.027 955.849 919.027 955.849C919.027 955.849 938.106 928.285 938.857 922.742C939.609 917.2 934.818 915.113 928.566 918.985C922.314 922.857 910.103 937.448 910.103 937.448C910.103 937.448 889.228 927.617 881.223 934.463C873.218 941.31 870.619 963.312 859.211 982.287L894.03 1002.59Z" fill="#FF9C7A"/>
<path d="M851.874 992.361L857.506 980.507L897.45 999.483L892.749 1009.38L851.874 992.361Z" fill="#66B2FF"/>
<path d="M957.29 1012.36L955.769 998.203L1001.59 993.277L1002.86 1005.09L957.29 1012.36Z" fill="#66B2FF"/>
<path d="M851.69 988.97L894.785 1007.83L878.993 1060.17L818.27 1058.72L851.69 988.97Z" fill="#2E2E99"/>
<path d="M954.417 1053.74V1003.72L1004.44 999.248L1013.38 1053.74H954.417Z" fill="#2E2E99"/>
<path d="M848.318 832.322L809.611 828.852L839.441 854.815L848.318 832.322Z" fill="#FF6666"/>
<path d="M845.79 838.731L847.794 849.387L842.223 847.753L842.477 847.106L809.662 828.867L845.79 838.731Z" fill="#CC2D2D"/>
</g>
<path d="M1280.27 330.361C1336.19 338.823 1417.75 315.818 1402.65 233.613C1372.81 71.136 1213.23 58.3811 1172.13 203.903C1156.99 257.517 1224.35 321.9 1280.27 330.361Z" fill="white" fill-opacity="0.25"/>
<rect x="1194.33" y="325.866" width="83.5062" height="70.9878" rx="4" transform="rotate(-120 1194.33 325.866)" fill="#5252CC"/>
<rect x="1369.79" y="224.567" width="83.5062" height="70.9875" rx="4" transform="rotate(-120 1369.79 224.567)" fill="#5252CC"/>
<path fill-rule="evenodd" clip-rule="evenodd" d="M1364.63 179.333C1341.45 139.176 1290.1 125.417 1249.94 148.602C1209.79 171.786 1196.03 223.135 1219.21 263.291C1242.4 303.448 1293.75 317.207 1333.9 294.022C1374.06 270.838 1387.82 219.489 1364.63 179.333ZM1348.91 188.409C1330.74 156.934 1290.49 146.15 1259.02 164.322C1227.55 182.494 1216.76 222.74 1234.93 254.215C1253.11 285.689 1293.35 296.473 1324.83 278.301C1356.3 260.129 1367.08 219.883 1348.91 188.409Z" fill="#8080FF"/>
<path fill-rule="evenodd" clip-rule="evenodd" d="M1298.67 137.61C1282.28 136.289 1265.34 139.758 1250.02 148.601C1223.04 164.178 1207.98 192.467 1208.03 221.535L1204.98 223.293C1205.48 224.261 1206 225.222 1206.55 226.174C1213.18 237.661 1222.76 246.392 1233.77 251.965C1217.36 220.847 1228.37 182.063 1259.1 164.321C1279.08 152.781 1302.61 152.919 1321.77 162.617C1321.38 161.863 1320.96 161.113 1320.53 160.368C1315 150.787 1307.42 143.124 1298.67 137.61Z" fill="black" fill-opacity="0.25"/>
<circle cx="1267.38" cy="178.798" r="65.8059" transform="rotate(-120 1267.38 178.798)" fill="#66B2FF"/>
<circle cx="1267.38" cy="178.799" r="47.7088" transform="rotate(-120 1267.38 178.799)" fill="#4187CC"/>
<rect x="1323.05" y="281.735" width="5.47739" height="18.5489" rx="2.7387" transform="rotate(-30 1323.05 281.735)" fill="#FF9933"/>
<rect x="1285.66" y="216.975" width="5.47739" height="18.5489" rx="2.7387" transform="rotate(-30 1285.66 216.975)" fill="#FF9933"/>
<path d="M1344.52 298.03L1338.2 296.632L1338.62 295.33L1344.48 295.031L1344.52 298.03Z" fill="white"/>
<path d="M1281.3 209.502L1286.45 213.434L1285.51 214.436L1280.08 212.241L1281.3 209.502Z" fill="white"/>
<path d="M1339.43 304.186L1336.69 298.32L1337.98 297.864L1341.78 302.324L1339.43 304.186Z" fill="white"/>
<path d="M1288.51 206.062L1288.53 212.538L1287.17 212.407L1285.6 206.76L1288.51 206.062Z" fill="white"/>
<path d="M1321.18 273.225L1310.18 266.876L1321.18 260.528L1321.18 273.225Z" fill="#FF9933"/>
<path d="M1302.64 241.118L1318.41 262.719L1313.47 265.573L1302.64 241.118Z" fill="#FF9933"/>
<path d="M1232.37 713.825C1299.83 713.825 1431.06 713.647 1415.3 636.154C1384.15 482.99 1217.57 470.966 1174.67 608.146C1158.87 658.687 1164.91 713.825 1232.37 713.825Z" fill="white" fill-opacity="0.25"/>
<path d="M1324.57 680.838H1316.22C1316.22 680.838 1310.07 645.723 1308.77 639.017C1307.46 632.31 1306.68 624.626 1305.79 619.53C1304.9 614.434 1288.91 564.502 1288.91 564.502L1314.73 556.191C1320.26 570.925 1320.75 574.093 1321.57 586.215C1323.46 614.011 1324.57 680.838 1324.57 680.838Z" fill="#FF9C7A"/>
<path d="M1260.09 680.553H1268.82C1268.82 680.553 1275.33 645.723 1276.63 639.017C1277.94 632.31 1278.72 624.626 1279.61 619.53C1280.5 614.434 1296.49 564.502 1296.49 564.502L1270.67 556.191C1265.14 570.925 1264.65 574.093 1263.83 586.215C1261.94 614.011 1260.09 680.553 1260.09 680.553Z" fill="#FF9C7A"/>
<ellipse cx="1292.38" cy="698.394" rx="44.0551" ry="2.22555" fill="black" fill-opacity="0.25"/>
<path d="M1259.68 684.861V680.105H1269.52L1269.41 680.604C1268.4 685.141 1268.59 689.86 1269.95 694.304L1270.01 694.519C1270.6 696.447 1269.16 698.394 1267.14 698.394H1256.31C1254.73 698.394 1253.77 696.636 1254.63 695.306L1258.23 689.759C1259.18 688.301 1259.68 686.599 1259.68 684.861Z" fill="#2E2E99"/>
<path d="M1324.92 684.861V680.105H1315.09L1315.2 680.604C1316.2 685.141 1316.01 689.86 1314.66 694.304L1314.59 694.519C1314 696.447 1315.45 698.394 1317.46 698.394H1328.29C1329.88 698.394 1330.83 696.636 1329.97 695.306L1326.37 689.759C1325.42 688.301 1324.92 686.599 1324.92 684.861Z" fill="#2E2E99"/>
<path d="M1289.44 601.079C1285.72 604.654 1263 597.496 1263 597.496C1263 597.496 1263.89 576.852 1264.57 571.133C1265.25 565.415 1268.65 558.939 1268.65 558.939L1297.06 555.001L1295.28 573.341L1289.44 601.079Z" fill="#2E2E99"/>
<path d="M1278.41 560.014C1280.63 559.978 1284.17 556.61 1288.39 556.625L1297.58 562.788L1291.66 590.32C1291.66 590.35 1291.65 590.379 1291.64 590.407L1291.66 590.32C1292.51 586.036 1287.37 563.951 1278.41 560.014Z" fill="black" fill-opacity="0.25"/>
<path d="M1259.59 536.902L1263.34 500.242C1263.74 496.294 1267.23 493.391 1271.18 493.706C1275.43 494.045 1278.49 497.942 1277.81 502.154L1271.83 539.005C1269 543.397 1269.23 545.342 1265.44 551.331C1259.68 560.431 1250.12 573.296 1249.84 574.319C1249.25 576.439 1250.57 578.201 1250.66 581.763C1250.77 585.798 1249.65 586.306 1248.89 585.524C1248.15 584.766 1248.85 582.327 1247.99 579.456C1246.81 579.329 1245.84 581.677 1245.84 583.812C1246.9 587.873 1249.81 587.717 1247.76 592.621C1246.55 595.52 1242.66 588.935 1241.34 586.361C1240.28 584.302 1241.24 579.154 1241.94 576.528L1259.59 536.902Z" fill="#FF9C7A"/>
<path d="M1257.99 516.728C1257.99 516.728 1263.39 497.445 1265.05 495.388C1266.72 493.332 1277.68 490.812 1277.68 490.812L1284.25 493.295L1283.28 498.767L1272.61 522.247L1257.99 516.728Z" fill="#9999FF"/>
<path d="M1297.16 601.249C1303.4 602.453 1322.39 597.852 1322.39 597.852C1322.39 597.852 1321.54 573.016 1321.26 567.336C1320.99 561.657 1316.94 554.084 1316.94 554.084L1278.26 560.304C1285.33 560.304 1291.33 565.486 1292.4 572.473C1293.93 582.554 1296.05 596.041 1297.16 601.249Z" fill="#5252CC"/>
<path d="M1267.85 547.052C1269.03 538.299 1267.85 507.566 1267.85 507.566L1272.43 536.773C1272.43 536.773 1269.27 544.217 1267.85 547.052Z" fill="black" fill-opacity="0.25"/>
<path d="M1270.95 492.593C1276.33 489.933 1285.95 486.968 1291.43 486.968C1301.9 486.968 1310.63 489.713 1316.33 492.375C1320.09 494.132 1321.89 498.212 1321.52 502.348L1316.92 554.269C1287.92 564.22 1268.66 558.926 1268.66 558.926C1274.24 520.649 1261.6 497.215 1270.95 492.593Z" fill="#9999FF"/>
<path d="M1290.82 479.774H1298.65L1299.37 488.001C1298.05 489.038 1290.99 488.959 1290.16 488.001L1290.82 479.774Z" fill="#FF9C7A"/>
<path d="M1299.3 487.152C1297.31 487.152 1293.85 486.478 1292.65 484.991L1299 484.035L1299.3 487.152Z" fill="black" fill-opacity="0.25"/>
<path d="M1294.71 485.529C1283.06 485.529 1282.94 467.025 1282.94 461.31C1282.94 450.425 1293.45 448.792 1295.98 448.792C1298.51 448.792 1307.75 450.969 1307.75 461.31C1307.75 471.651 1306.36 485.529 1294.71 485.529Z" fill="#FF9C7A"/>
<path d="M1303.39 468.758C1303.21 466.834 1304.63 465.128 1306.55 464.947C1308.48 464.766 1310.19 466.179 1310.37 468.103C1310.54 470.026 1309.13 471.732 1307.2 471.913C1305.27 472.094 1303.56 470.681 1303.39 468.758Z" fill="#FF9C7A"/>
<path d="M1280.72 468.758C1280.54 466.834 1281.96 465.128 1283.89 464.947C1285.82 464.766 1287.52 466.179 1287.7 468.103C1287.88 470.026 1286.46 471.732 1284.53 471.913C1282.6 472.094 1280.9 470.681 1280.72 468.758Z" fill="#FF9C7A"/>
<path d="M1285.15 448.746C1280.93 445.469 1279.96 452.295 1280.56 458.766C1280.86 461.957 1281.68 466.707 1283.66 470.235C1283.42 467.464 1283.56 463.956 1284.2 463.869C1291.33 464.667 1300.24 461.965 1307.07 461.283C1308.16 462.386 1307.33 468.656 1306.99 470.368C1310.15 464.596 1311.38 460.007 1310.31 454.534C1309.37 449.723 1303.32 451.72 1302.82 448.14C1302.32 444.56 1299.53 443.15 1296.33 444.002C1291.68 445.241 1289.36 452.023 1285.15 448.746Z" fill="#995612"/>
<path d="M1317.86 544.324L1309.46 501.667C1309.07 499.695 1310 497.697 1311.76 496.721C1314.73 495.07 1318.41 497.077 1318.63 500.47L1319.89 519.903C1319.91 520.207 1319.91 520.512 1319.88 520.815L1317.86 544.324Z" fill="black" fill-opacity="0.25"/>
<path d="M1326.53 537.677L1309.67 505.6C1307.6 501.654 1309.18 496.774 1313.18 494.807C1317.31 492.778 1322.29 494.675 1324.02 498.933L1337.48 532.071C1338.05 533.471 1338.29 534.982 1338.19 536.489L1335.67 574.959C1335.42 577.908 1335.39 582.727 1335.17 584.136C1334.91 585.897 1333.14 589.573 1332.99 590.186C1332.84 590.799 1327.55 593.9 1326.71 593.9C1325.87 593.9 1324.39 592.008 1324.39 591.104C1324.39 587.783 1327.32 587.499 1328.75 585.988C1329.7 584.987 1330.3 582.856 1330.3 581.214C1329.29 580.961 1327.61 582.609 1327.32 583.805C1326.71 586.287 1326.44 586.906 1325.12 586.535C1324.69 584.293 1325.81 579.412 1329.71 575.658C1329.71 575.658 1326.53 550.448 1326.53 546.427V537.677Z" fill="#FF9C7A"/>
<path d="M1325.44 672.88L1325.46 676.541L1314.97 676.6L1314.34 672.939L1325.44 672.88Z" fill="#5252CC"/>
<path d="M1324.5 678.735C1323.2 678.747 1322.14 676.949 1322.13 674.718C1322.13 672.487 1323.17 670.669 1324.47 670.657C1325.77 670.645 1326.82 672.444 1326.83 674.675C1326.84 676.905 1325.79 678.723 1324.5 678.735Z" fill="#84C2FF"/>
<path d="M1325.29 678.335C1324.12 678.346 1323.17 676.725 1323.16 674.716C1323.15 672.706 1324.1 671.068 1325.26 671.058C1326.43 671.047 1327.38 672.667 1327.39 674.677C1327.4 676.686 1326.45 678.324 1325.29 678.335Z" fill="#4187CC"/>
<path d="M1259.46 672.88L1259.44 676.541L1269.95 676.6L1270.56 672.939L1259.46 672.88Z" fill="#5252CC"/>
<path d="M1260.4 678.735C1261.7 678.747 1262.76 676.949 1262.76 674.718C1262.77 672.487 1261.72 670.669 1260.43 670.657C1259.13 670.645 1258.07 672.444 1258.07 674.675C1258.06 676.905 1259.11 678.723 1260.4 678.735Z" fill="#84C2FF"/>
<path d="M1259.61 678.335C1260.78 678.346 1261.73 676.725 1261.74 674.716C1261.74 672.706 1260.8 671.068 1259.63 671.058C1258.46 671.047 1257.51 672.667 1257.51 674.677C1257.5 676.686 1258.44 678.324 1259.61 678.335Z" fill="#4187CC"/>
<path d="M1235.2 684.79L1225.27 676.154L1235.2 667.519V672.274L1249.49 676.154L1235.2 680.034V684.79Z" fill="#FF9933"/>
<path d="M1349.7 684.79L1359.63 676.154L1349.7 667.519V672.274L1335.4 676.154L1349.7 680.034V684.79Z" fill="#FF9933"/>
<path d="M1330.71 514.791C1330.71 514.791 1324.86 498.505 1323.19 496.448C1321.52 494.392 1317.69 493.167 1317.69 493.167L1309.63 494.159L1304.96 499.827L1316.57 522.924L1330.71 514.791Z" fill="#9999FF"/>
<path d="M1417.61 909.425C1421.19 794.281 1230.06 784.517 1174.49 909.425C1118.92 1034.33 1410.56 1136.21 1417.61 909.425Z" fill="white" fill-opacity="0.25"/>
<path d="M1340.23 849.342L1423.3 871.6C1427.57 872.744 1430.1 877.131 1428.96 881.398L1393.5 1013.73C1392.36 1018 1387.97 1020.53 1383.7 1019.39L1300.63 997.129C1296.36 995.985 1293.83 991.598 1294.97 987.331L1330.43 854.999C1331.58 850.731 1335.96 848.198 1340.23 849.342Z" fill="#C0C0C8"/>
<path d="M1342.3 841.614L1425.37 863.873C1429.64 865.016 1432.17 869.403 1431.03 873.671L1395.05 1007.93C1393.91 1012.2 1389.52 1014.73 1385.25 1013.59L1302.18 991.333C1297.92 990.189 1295.38 985.803 1296.53 981.535L1332.5 847.271C1333.65 843.003 1338.03 840.471 1342.3 841.614Z" fill="#E0E0E8"/>
<path d="M1342.68 847.927L1421.89 869.15C1424.02 869.722 1425.29 871.915 1424.71 874.049L1389.77 1004.45C1389.2 1006.58 1387.01 1007.85 1384.87 1007.28L1305.67 986.054C1303.53 985.483 1302.27 983.289 1302.84 981.156L1337.78 850.756C1338.35 848.622 1340.55 847.355 1342.68 847.927Z" fill="white"/>
<path d="M1365.57 886.153L1361.7 885.118C1352.63 882.688 1343.31 888.07 1340.88 897.139V897.139C1338.45 906.207 1343.83 915.529 1352.9 917.959L1356.77 918.994" stroke="#87D935" stroke-width="6" stroke-linecap="round" stroke-linejoin="round"/>
<path d="M1373.19 923.395L1378.02 924.689C1387.09 927.119 1396.41 921.737 1398.84 912.668V912.668C1401.27 903.599 1395.89 894.277 1386.82 891.847L1381.99 890.553" stroke="#87D935" stroke-width="6" stroke-linecap="round" stroke-linejoin="round"/>
<path d="M1353.44 900.503L1386.28 909.303" stroke="#87D935" stroke-width="6" stroke-linecap="round" stroke-linejoin="round"/>
<path d="M1219.05 925.571C1298.88 968.959 1303.17 898.122 1271.29 904.32C1239.42 910.519 1280.7 956.214 1298.88 962.249" stroke="white" stroke-width="2" stroke-linecap="round" stroke-linejoin="round" stroke-dasharray="3 10"/>
<circle cx="1209.02" cy="875.04" r="25" transform="rotate(-15 1209.02 875.04)" fill="#5252CC"/>
<rect x="1185.59" y="837.836" width="26" height="80" transform="rotate(-15 1185.59 837.836)" fill="#5252CC"/>
<circle cx="1208.5" cy="873.108" r="25" transform="rotate(-15 1208.5 873.108)" fill="#66B2FF"/>
<circle cx="1208.24" cy="872.142" r="20" transform="rotate(-15 1208.24 872.142)" fill="#5252CC"/>
<circle cx="1186.38" cy="944.376" r="25" transform="rotate(-45 1186.38 944.376)" fill="#5252CC"/>
<rect x="1147.49" y="923.87" width="26" height="80" transform="rotate(-45 1147.49 923.87)" fill="#5252CC"/>
<circle cx="1184.96" cy="942.962" r="25" transform="rotate(-45 1184.96 942.962)" fill="#66B2FF"/>
<circle cx="1184.26" cy="942.255" r="20" transform="rotate(-45 1184.26 942.255)" fill="#5252CC"/>
<path d="M448.702 1356.15C432.941 1433.65 564.173 1433.83 631.632 1433.83C699.091 1433.83 705.13 1378.69 689.326 1328.15C646.43 1190.97 479.854 1202.99 448.702 1356.15Z" fill="white" fill-opacity="0.25"/>
<path d="M583.518 1421.75C612.783 1421.75 636.507 1420.76 636.507 1419.53C636.507 1418.3 612.783 1417.3 583.518 1417.3C554.253 1417.3 530.529 1418.3 530.529 1419.53C530.529 1420.76 554.253 1421.75 583.518 1421.75Z" fill="black" fill-opacity="0.25"/>
<path d="M548.798 1345.44C548.716 1344.38 548.67 1343.3 548.662 1342.21" stroke="white" stroke-width="8" stroke-linecap="round"/>
<path d="M614.03 1223.86L612.352 1257.9L615.243 1293.92C615.529 1296.62 615.677 1301.85 614.31 1303.72C612.601 1306.06 607.727 1311.95 606.977 1308.9C605.709 1303.74 606.844 1305.17 608.532 1301.32C608.86 1299.21 609.985 1295.92 608.801 1295.86C607.501 1298.56 607.811 1301.08 606.964 1301.72C606.091 1302.37 605.061 1301.69 605.792 1297.72C606.438 1294.22 608.019 1292.69 607.768 1290.5C607.567 1288.75 605.248 1270.11 599.908 1258.07L600.402 1223.42C600.467 1218.84 604.956 1215.63 609.321 1217.05C612.251 1218 614.181 1220.79 614.03 1223.86Z" fill="#FF9B7A"/>
<path d="M603.886 1214.09C609.934 1216.64 613.433 1218.61 613.944 1220.85C614.456 1223.09 613.764 1236.32 613.515 1240.63L608.918 1241.62L603.886 1214.09Z" fill="#9999FF"/>
<path d="M610.563 1226.74C610.563 1226.74 609.458 1258.08 609.389 1267.17C609.319 1276.27 609.771 1299.02 609.771 1299.02L602.447 1263.76L610.563 1226.74Z" fill="black" fill-opacity="0.25"/>
<path d="M604.688 1315.09L598.048 1348.5C598.048 1348.5 581.092 1348.17 580.921 1341.2C580.749 1334.23 583.154 1307.85 583.154 1307.85L604.688 1315.09Z" fill="#FF9B7A"/>
<path d="M594.435 1350.1C586.593 1349.38 536.945 1347.4 536.945 1347.4L537.471 1338.77C537.471 1338.77 571.348 1333.47 578.947 1332.27C586.546 1331.06 590.299 1333.52 597.026 1331.67C599.484 1330.99 600.476 1350.66 594.435 1350.1Z" fill="#FF9B7A"/>
<path d="M530.503 1352.62L523.394 1365.96C522.383 1367.85 519.503 1367.04 519.634 1364.9L521.244 1338.43C521.363 1336.47 523.41 1335.25 525.188 1336.07C529.685 1338.14 534.699 1338.83 539.589 1338.06L538.991 1347.87C535.477 1347.66 532.16 1349.52 530.503 1352.62Z" fill="#2D2D99"/>
<path d="M544.401 1337.37L548.067 1337.4L547.965 1347.96L544.307 1347.85L544.401 1337.37Z" fill="#5252CC"/>
<path d="M608.766 1281.8L605.895 1315.07C600.023 1321.62 580.265 1316.64 580.265 1316.64L582.164 1293.26L581.281 1274.86L608.766 1281.8Z" fill="#2D2D99"/>
<path d="M596.795 1277.13C594.584 1276.98 595.049 1277.03 590.824 1276.83L580.479 1284.32L581.303 1313.36C580.605 1309.1 587.562 1281.11 596.795 1277.13Z" fill="black" fill-opacity="0.25"/>
<path d="M588.292 1208.27C593.769 1208.55 602.099 1212.87 607.348 1215.8C616.466 1220.88 604.614 1243.29 608.311 1281.78C608.311 1281.78 588.016 1285.57 559.511 1274.17L557.46 1222.11C557.296 1217.96 559.292 1213.98 563.138 1212.42C568.968 1210.05 577.833 1207.74 588.292 1208.27Z" fill="#9999FF"/>
<path d="M583.661 1196.45L590.36 1197.65C590.36 1197.65 591.098 1207.04 591.46 1208.95C591.822 1210.87 582.218 1208.49 582.218 1208.49L583.661 1196.45Z" fill="#FF9B7A"/>
<path d="M569.114 1403.13L560.533 1401.92C560.533 1401.92 558.022 1377.94 556.72 1356.37C556.387 1350.84 557.414 1347.95 557.097 1342.33C556.386 1329.76 578.292 1338.7 577.926 1343.86C577.56 1349.02 569.114 1403.13 569.114 1403.13Z" fill="#FF9B7A"/>
<path d="M574.869 1408.8L588.611 1415.08C590.565 1415.98 589.927 1418.9 587.779 1418.9L561.261 1418.9C559.303 1418.9 557.956 1416.93 558.666 1415.11C560.46 1410.49 560.847 1405.45 559.779 1400.61L569.613 1400.61C569.613 1404.13 571.667 1407.33 574.869 1408.8Z" fill="#2D2D99"/>
<path d="M560.132 1393.48L560.438 1389.83L570.963 1390.73L570.578 1394.36L560.132 1393.48Z" fill="#5252CC"/>
<path d="M562.969 1391.83C562.788 1394.05 561.592 1395.76 560.299 1395.65C559.006 1395.53 558.105 1393.64 558.286 1391.42C558.468 1389.19 559.663 1387.49 560.956 1387.6C562.249 1387.72 563.151 1389.61 562.969 1391.83Z" fill="#84C2FF"/>
<path d="M561.946 1391.75C561.782 1393.75 560.706 1395.29 559.541 1395.19C558.376 1395.08 557.564 1393.38 557.728 1391.37C557.892 1389.37 558.967 1387.83 560.133 1387.94C561.298 1388.04 562.11 1389.75 561.946 1391.75Z" fill="#4186CC"/>
<path d="M557.12 1342.32C555.56 1329.82 555.786 1317.6 555.485 1308.89C555.065 1296.74 555.234 1293.54 559.229 1278.33L583.044 1283.85C583.044 1283.85 578.479 1338.71 577.951 1343.85C577.522 1348.02 558.384 1352.44 557.12 1342.32Z" fill="#FF9B7A"/>
<path d="M577.994 1279.57L559.487 1274.21C554.449 1284.9 552.654 1292.73 554.078 1318.11C563.346 1321.46 580.171 1320.34 580.171 1320.34L584.594 1295.19C585.143 1292.06 586.431 1289.11 588.352 1286.58L592.556 1281.94L577.994 1279.57Z" fill="#5252CC"/>
<path d="M591.107 1206.2L590.905 1204.08L587.833 1202.36C587.79 1203.24 589.931 1206.04 591.107 1206.2Z" fill="black" fill-opacity="0.25"/>
<path d="M580.467 1187.89C572.705 1172.87 584.198 1174 590.705 1174.03C609.907 1174.13 605.38 1183.77 604.762 1187.89C603.642 1195.2 603.522 1197.83 601.963 1201.78C600.405 1205.73 595.739 1207.44 591.366 1205.38C586.992 1203.31 580.076 1192.27 580.467 1187.89Z" fill="#FF9B7A"/>
<path d="M583.689 1197.95C582.648 1196.59 581.632 1195.14 580.601 1193.32C578.137 1188.96 572.559 1181.19 572.287 1173.47C572.718 1170.65 574.092 1169.26 581.561 1170.16C589.019 1171.05 583.122 1164.84 587.966 1163.36C592.797 1161.88 593.629 1163.37 597.564 1167.59C601.499 1171.82 604.717 1166.96 609.955 1169.23C615.193 1171.5 609.16 1178.59 609.16 1178.59L605.036 1185.92C603.79 1186.15 602.507 1186.21 601.218 1186.11C597.396 1185.82 593.606 1185.16 589.937 1184.15C590.869 1185.65 591.249 1187.35 591.048 1189C590.851 1190.66 590.054 1192.21 588.785 1193.48C587.698 1194.64 585.428 1197.6 583.689 1197.95Z" fill="#995512"/>
<path d="M589.14 1188.36C591.215 1188.66 592.659 1190.57 592.365 1192.64C592.071 1194.71 590.15 1196.14 588.075 1195.84C586 1195.54 584.556 1193.62 584.85 1191.56C585.144 1189.49 587.065 1188.05 589.14 1188.36Z" fill="#FF9B7A"/>
<path fill-rule="evenodd" clip-rule="evenodd" d="M563.603 1254.36C571.027 1238.41 572.707 1219.27 572.707 1219.27C572.157 1217.23 568.774 1216.71 566.668 1216.68C563.285 1216.63 560.943 1220.04 562.215 1223.18L557.526 1223.8L559.087 1263.43C560.664 1260.45 562.184 1257.41 563.603 1254.36Z" fill="black" fill-opacity="0.25"/>
<path d="M552.167 1256.08L570.776 1224.79C573.043 1220.95 571.693 1216 567.791 1213.83C563.768 1211.6 558.697 1213.25 556.759 1217.41L541.384 1250.38C540.114 1253.1 541.023 1256.35 543.525 1258.02C546.435 1259.97 550.381 1259.08 552.167 1256.08Z" fill="#FF9B7A"/>
<path d="M557.582 1215.35C555.815 1217.32 549.857 1231.91 549.857 1231.91L563.014 1239.99C563.014 1239.99 574.765 1223.64 574.77 1220.66C574.775 1217.68 573.044 1214.9 570.769 1213.29C568.495 1211.67 563.244 1212.35 563.244 1212.35C563.244 1212.35 559.35 1213.38 557.582 1215.35Z" fill="#9999FF"/>
<path d="M541.169 1250.86C541.169 1250.86 541.528 1250.25 541.737 1249.48C545.545 1245.07 554.459 1248.64 553.061 1254.26C552.695 1255.19 552.26 1255.97 552.26 1255.97C552.26 1255.97 552.675 1263.5 551.674 1267.86C550.672 1272.22 547.211 1293.74 547.211 1293.74C550.928 1297.68 551.808 1302.61 551.266 1304.83C549.933 1305.13 549.689 1304.5 549.204 1301.99C548.971 1300.78 547.373 1299.05 546.345 1299.26C546.264 1300.9 546.768 1303.05 547.667 1304.1C549.022 1305.68 551.938 1306.11 551.774 1309.43C551.73 1310.33 550.157 1312.15 549.315 1312.1C548.472 1312.06 543.337 1308.7 543.214 1308.08C543.091 1307.46 541.509 1303.7 541.327 1301.93C541.182 1300.51 541.385 1295.7 541.287 1292.74L540.653 1254.2C540.628 1252.68 540.531 1252.23 541.169 1250.86Z" fill="#FF9B7A"/>
<path d="M991.632 1433.83C924.173 1433.83 792.94 1433.65 808.701 1356.15C839.854 1202.99 1006.43 1190.97 1049.33 1328.15C1065.13 1378.69 1059.09 1433.83 991.632 1433.83Z" fill="white" fill-opacity="0.25"/>
<path d="M996.507 1418.03C996.507 1419.26 972.783 1420.25 943.518 1420.25C914.253 1420.25 890.529 1419.26 890.529 1418.03C890.529 1416.8 914.253 1415.8 943.518 1415.8C972.783 1415.8 996.507 1416.8 996.507 1418.03Z" fill="black" fill-opacity="0.25"/>
<path d="M964.711 1256.63L964.711 1222.54C964.711 1219.47 962.65 1216.78 959.683 1215.98C955.262 1214.78 950.945 1218.2 951.105 1222.78L952.315 1257.42C958.23 1269.18 961.457 1287.68 961.743 1289.42C962.101 1291.59 960.6 1293.2 960.129 1296.74C959.595 1300.74 960.655 1301.36 961.493 1300.66C962.307 1299.99 961.872 1297.49 963.036 1294.73C964.219 1294.73 963.259 1298.07 963.036 1300.19C961.543 1304.12 960.341 1302.75 961.859 1307.84C962.757 1310.85 967.325 1304.72 968.914 1302.3C970.185 1300.37 969.78 1295.15 969.362 1292.46L964.711 1256.63Z" fill="#FF9C7A"/>
<path d="M964.466 1219.54C963.847 1217.33 960.26 1215.54 954.103 1213.3L960.471 1240.55L965.009 1239.33C965.046 1235.01 965.086 1221.76 964.466 1219.54Z" fill="#9999FF"/>
<path d="M990.453 1414.58L976.711 1408.29C973.509 1406.82 971.455 1403.63 971.455 1400.11H961.621C962.689 1404.94 962.303 1409.99 960.508 1414.6C959.799 1416.43 961.145 1418.39 963.104 1418.39H989.621C991.769 1418.39 992.407 1415.47 990.453 1414.58Z" fill="#2E2E99"/>
<path d="M962.21 1266.04C961.831 1256.95 961.39 1225.6 961.39 1225.6L955.125 1262.98L964.159 1297.83C964.159 1297.83 962.589 1275.13 962.21 1266.04Z" fill="black" fill-opacity="0.25"/>
<path d="M970.31 1344.63L965.974 1310.83H943.271C943.271 1310.83 949.381 1336.6 951.761 1343.16C954.14 1349.72 951.794 1353.66 953.454 1361.17C955.114 1368.68 962.142 1400.11 962.142 1400.11H970.789L970.31 1344.63Z" fill="#FF9C7A"/>
<path d="M966.482 1314.3L961.818 1280.67L934.053 1275.11L935.836 1293.45L941.967 1320.35C941.967 1320.35 960.943 1321.14 966.482 1314.3Z" fill="#2E2E99"/>
<path d="M943.662 1276.6C947.886 1276.59 947.42 1276.56 949.633 1276.6C940.619 1281.04 939.967 1309.84 940.872 1314.07L933.71 1284.61L943.662 1276.6Z" fill="black" fill-opacity="0.25"/>
<path d="M920.103 1400.67L928.724 1401.45C928.724 1401.45 930.819 1367.47 931.098 1360.65C931.376 1353.82 930.987 1346.11 931.098 1340.93C931.209 1335.76 939.48 1283.99 939.48 1283.99L912.702 1279.67C909.464 1295.07 909.454 1298.27 910.469 1310.38C912.795 1338.15 920.103 1400.67 920.103 1400.67Z" fill="#FF9C7A"/>
<path d="M919.814 1404.86V1400.11H929.648L929.538 1400.6C928.535 1405.14 928.721 1409.86 930.076 1414.3L930.142 1414.52C930.729 1416.45 929.287 1418.39 927.272 1418.39H916.444C914.858 1418.39 913.903 1416.64 914.766 1415.31L918.364 1409.76C919.31 1408.3 919.814 1406.6 919.814 1404.86Z" fill="#2E2E99"/>
<path d="M912.752 1275.54L936.86 1279.09L946.759 1279.73L942.166 1286.45C940.373 1289.07 939.232 1292.09 938.837 1295.24L935.656 1320.6C935.656 1320.6 918.92 1322.56 909.505 1319.69C906.841 1294.39 908.248 1286.48 912.752 1275.54Z" fill="#5252CC"/>
<path d="M918.793 1390.92L918.667 1394.57L929.141 1394.94L929.346 1391.29L918.793 1390.92Z" fill="#5252CC"/>
<path d="M919.564 1396.79C920.86 1396.84 921.969 1395.08 922.041 1392.85C922.113 1390.62 921.12 1388.77 919.824 1388.72C918.527 1388.67 917.418 1390.44 917.346 1392.67C917.275 1394.9 918.267 1396.75 919.564 1396.79Z" fill="#84C2FF"/>
<path d="M918.784 1396.37C919.952 1396.42 920.951 1394.82 921.015 1392.82C921.08 1390.81 920.186 1389.14 919.018 1389.1C917.85 1389.05 916.851 1390.64 916.786 1392.65C916.722 1394.66 917.616 1396.33 918.784 1396.37Z" fill="#4187CC"/>
<path d="M957.628 1214.8C952.247 1212.14 943.722 1208.24 938.243 1208.24C927.779 1208.24 919.045 1210.98 913.344 1213.64C909.582 1215.4 907.786 1219.48 908.152 1223.62L912.751 1275.54C941.756 1285.49 961.823 1280.68 961.823 1280.68C956.247 1242.41 966.977 1219.42 957.628 1214.8Z" fill="#9999FF"/>
<path d="M911.988 1267L921.758 1224.71C922.232 1222.66 921.291 1220.54 919.449 1219.52C916.491 1217.88 912.816 1219.78 912.456 1223.15L910.191 1244.36C910.146 1244.79 910.141 1245.22 910.177 1245.65L911.988 1267Z" fill="black" fill-opacity="0.25"/>
<path d="M892.947 1256.49C892.848 1254.98 892.73 1254.53 893.299 1253.13L904.604 1257.68C904.604 1257.68 905.388 1265.18 904.604 1269.58C903.82 1273.99 901.427 1295.66 901.427 1295.66C905.326 1299.41 906.446 1304.29 906.015 1306.54C904.7 1306.91 904.427 1306.29 903.82 1303.8C903.527 1302.61 901.85 1300.96 900.835 1301.21C900.835 1302.86 901.443 1304.99 902.39 1305.99C903.82 1307.5 906.746 1307.78 906.746 1311.1C906.746 1312.01 905.269 1313.9 904.427 1313.9C903.584 1313.9 898.3 1310.8 898.147 1310.19C897.994 1309.57 896.232 1305.9 895.964 1304.14C895.75 1302.73 895.715 1297.91 895.472 1294.96L892.947 1256.49Z" fill="#FF9C7A"/>
<path d="M921.543 1225.61L904.51 1257.81C902.874 1260.9 898.98 1261.99 895.981 1260.19C893.402 1258.64 892.337 1255.45 893.47 1252.66L907.195 1218.94C908.925 1214.68 913.904 1212.79 918.028 1214.82C922.028 1216.78 923.618 1221.66 921.543 1225.61Z" fill="#FF9C7A"/>
<path d="M894.631 1290.18L894.611 1293.85L902.067 1293.89L902.087 1290.22L894.631 1290.18Z" fill="#5252CC"/>
<path d="M895.572 1296.04C896.869 1296.05 897.926 1294.25 897.933 1292.02C897.94 1289.79 896.894 1287.97 895.597 1287.96C894.3 1287.95 893.242 1289.75 893.235 1291.98C893.228 1294.21 894.274 1296.03 895.572 1296.04Z" fill="#84C2FF"/>
<path d="M894.779 1295.64C895.948 1295.65 896.9 1294.03 896.907 1292.02C896.913 1290.01 895.971 1288.37 894.802 1288.36C893.633 1288.35 892.681 1289.97 892.675 1291.98C892.669 1293.99 893.611 1295.63 894.779 1295.64Z" fill="#4187CC"/>
<path d="M939.764 1197.54L933.02 1196.68L932.169 1208.78C932.169 1208.78 941.869 1210.68 941.414 1208.78C940.96 1206.89 939.764 1197.54 939.764 1197.54Z" fill="#FF9C7A"/>
<path d="M940.626 1203.94L940.931 1206.05C939.748 1205.95 937.476 1203.26 937.476 1202.38L940.626 1203.94Z" fill="black" fill-opacity="0.25"/>
<path d="M938.945 1173.93C932.45 1174.23 920.924 1173.68 929.407 1188.3C929.231 1192.69 936.676 1203.38 941.141 1205.23C945.607 1207.07 950.179 1205.12 951.541 1201.09C952.904 1197.07 952.896 1194.43 953.654 1187.07C954.07 1182.93 958.116 1173.07 938.945 1173.93Z" fill="#FF9C7A"/>
<path d="M929.799 1193.72C930.918 1195.49 932.003 1196.89 933.11 1198.2C934.828 1197.76 936.949 1194.69 937.978 1193.47C939.182 1192.14 939.901 1190.55 940.016 1188.88C940.136 1187.22 939.673 1185.54 938.669 1184.09C942.381 1184.91 946.198 1185.38 950.027 1185.49C951.318 1185.52 952.596 1185.39 953.829 1185.09L957.585 1177.56C957.585 1177.56 963.26 1170.17 957.92 1168.17C952.58 1166.16 949.607 1171.18 945.472 1167.15C941.337 1163.13 940.434 1161.68 935.684 1163.41C930.921 1165.13 937.111 1171.05 929.624 1170.52C922.123 1170.01 920.82 1171.46 920.527 1174.3C921.177 1182 927.126 1189.49 929.799 1193.72Z" fill="#995612"/>
<path d="M941.514 1192.44C941.707 1190.36 940.172 1188.52 938.086 1188.32C936 1188.13 934.153 1189.65 933.961 1191.74C933.768 1193.82 935.303 1195.66 937.389 1195.86C939.475 1196.06 941.322 1194.53 941.514 1192.44Z" fill="#FF9C7A"/>
<path d="M901.016 1233.79C901.016 1233.79 906.246 1218.9 907.914 1216.85C909.582 1214.79 913.418 1213.57 913.418 1213.57L921.474 1214.56L926.141 1220.23L914.542 1241.2L901.016 1233.79Z" fill="#9999FF"/>
<path d="M209.466 1773.74C135.504 1773.74 75.5457 1724.38 75.5457 1663.48C75.5457 1602.59 107.859 1561.59 181.821 1561.59C255.783 1561.59 343.386 1602.59 343.386 1663.48C343.386 1724.38 283.428 1773.74 209.466 1773.74Z" fill="white" fill-opacity="0.25"/>
<path d="M121.154 1644.62C151.593 1631.59 186.893 1645.71 199.931 1676.15C212.969 1706.59 198.84 1741.89 168.401 1754.93C137.961 1767.97 102.661 1753.84 89.6234 1723.4C76.5856 1692.96 90.7144 1657.66 121.154 1644.62Z" fill="#A0A0A8"/>
<path d="M121.154 1644.62C151.593 1631.59 186.893 1645.71 199.931 1676.15C212.969 1706.59 198.84 1741.89 168.401 1754.93C137.961 1767.97 102.661 1753.84 89.6234 1723.4C76.5856 1692.96 90.7144 1657.66 121.154 1644.62Z" fill="#A0A0A8"/>
<path d="M122.335 1647.38C121.319 1647.82 120.848 1648.99 121.284 1650.01L127.189 1663.8C127.624 1664.81 128.8 1665.28 129.815 1664.85C130.831 1664.41 131.301 1663.24 130.866 1662.22L124.96 1648.43C124.525 1647.42 123.35 1646.95 122.335 1647.38Z" fill="#606068"/>
<path d="M107.089 1715.92C98.4373 1695.72 107.264 1672.43 126.815 1662.92L127.19 1663.8C127.625 1664.81 128.8 1665.28 129.816 1664.85C130.831 1664.41 131.302 1663.24 130.867 1662.22L130.492 1661.35C150.863 1653.75 173.814 1663.44 182.465 1683.63C191.381 1704.45 181.735 1728.55 160.92 1737.47C140.105 1746.38 116.004 1736.73 107.089 1715.92Z" fill="#808088"/>
<path d="M158.957 1689.07C159.89 1687.74 160.035 1687.48 159.271 1686.71C158.72 1686.15 150.207 1678.72 137.898 1684.23C128.064 1688.64 126.282 1689.62 126.282 1689.62L138.733 1718.68L150.499 1713.64L143.087 1696.34C142.702 1695.44 143.31 1694.92 143.967 1695.38L162.265 1708.61L168.148 1706.09C168.148 1706.09 158.989 1699.6 157.031 1697.86C154.294 1695.43 155.303 1694.31 158.957 1689.07Z" stroke="white" stroke-opacity="0.75" stroke-width="2"/>
<path d="M237 1526C270.114 1526 297 1552.89 297 1586C297 1619.11 270.114 1646 237 1646C203.886 1646 177 1619.11 177 1586C177 1552.89 203.886 1526 237 1526Z" fill="#A0A0A8"/>
<path d="M237 1526C270.114 1526 297 1552.89 297 1586C297 1619.11 270.114 1646 237 1646C203.886 1646 177 1619.11 177 1586C177 1552.89 203.886 1526 237 1526Z" fill="#A0A0A8"/>
<path d="M237 1529C235.895 1529 235 1529.9 235 1531V1546C235 1547.1 235.895 1548 237 1548C238.105 1548 239 1547.1 239 1546V1531C239 1529.9 238.105 1529 237 1529Z" fill="#606068"/>
<path d="M196 1586C196 1564.03 213.285 1546.09 235 1545.05V1546C235 1547.1 235.895 1548 237 1548C238.105 1548 239 1547.1 239 1546V1545.05C260.715 1546.09 278 1564.03 278 1586C278 1608.64 259.644 1627 237 1627C214.356 1627 196 1608.64 196 1586Z" fill="#808088"/>
<path d="M254.249 1581.74C255.632 1580.88 255.869 1580.7 255.469 1579.69C255.181 1578.97 250.282 1568.78 236.796 1569C226.022 1569.18 224 1569.38 224 1569.38V1601H236.8V1582.18C236.8 1581.2 237.563 1580.96 237.985 1581.64L249.6 1601H256C256 1601 250.134 1591.43 249.019 1589.06C247.46 1585.75 248.83 1585.11 254.249 1581.74Z" stroke="white" stroke-opacity="0.75" stroke-width="2"/>
<path d="M314.778 1623.99C339.069 1646.49 340.518 1684.49 318.012 1708.78C295.507 1733.07 257.512 1734.52 233.221 1712.01C208.931 1689.51 207.481 1651.51 229.987 1627.22C252.493 1602.93 290.488 1601.48 314.778 1623.99Z" fill="#A0A0A8"/>
<path d="M314.778 1623.99C339.069 1646.49 340.518 1684.49 318.012 1708.78C295.507 1733.07 257.512 1734.52 233.221 1712.01C208.931 1689.51 207.481 1651.51 229.987 1627.22C252.493 1602.93 290.488 1601.48 314.778 1623.99Z" fill="#A0A0A8"/>
<path d="M312.74 1626.19C311.929 1625.44 310.664 1625.49 309.913 1626.3L299.719 1637.3C298.968 1638.11 299.016 1639.37 299.826 1640.13C300.637 1640.88 301.902 1640.83 302.653 1640.02L312.847 1629.01C313.598 1628.2 313.55 1626.94 312.74 1626.19Z" fill="#606068"/>
<path d="M243.924 1640.13C258.858 1624.02 283.727 1622.61 300.365 1636.6L299.718 1637.3C298.967 1638.11 299.015 1639.37 299.826 1640.13C300.636 1640.88 301.901 1640.83 302.652 1640.02L303.299 1639.32C318.519 1654.84 319.008 1679.75 304.075 1695.87C288.685 1712.48 262.744 1713.47 246.134 1698.08C229.524 1682.69 228.534 1656.75 243.924 1640.13Z" fill="#808088"/>
<path d="M289.545 1676.6C291.144 1676.91 291.444 1676.94 291.834 1675.93C292.117 1675.2 295.444 1664.4 285.402 1655.39C277.378 1648.2 275.762 1646.97 275.762 1646.97L254.269 1670.17L263.659 1678.87L276.452 1665.06C277.118 1664.34 277.839 1664.69 277.684 1665.47L273.048 1687.57L277.743 1691.92C277.743 1691.92 279.942 1680.91 280.734 1678.42C281.841 1674.93 283.279 1675.39 289.545 1676.6Z" stroke="white" stroke-opacity="0.75" stroke-width="2"/>
<path d="M593.487 1561.77C486.66 1540.41 403.086 1689.46 511.834 1756.26C620.582 1823.06 809.028 1604.86 593.487 1561.77Z" fill="white" fill-opacity="0.25"/>
<circle cx="506.5" cy="1696.5" r="3.5" fill="white" fill-opacity="0.75"/>
<path fill-rule="evenodd" clip-rule="evenodd" d="M506 1665.11C501.903 1665.11 499 1668.2 499 1671.51C499 1673.47 497.433 1675.07 495.5 1675.07C493.567 1675.07 492 1673.47 492 1671.51C492 1663.82 498.499 1658 506 1658C513.376 1658 520 1663.19 520 1671.51C520 1677.11 516.584 1680.11 514.088 1682.14C513.917 1682.27 513.752 1682.41 513.592 1682.54C511.148 1684.51 509.859 1685.55 509.381 1687.36C508.881 1689.26 506.962 1690.39 505.094 1689.88C503.227 1689.37 502.119 1687.42 502.619 1685.52C503.735 1681.29 506.938 1678.77 509.059 1677.1C509.296 1676.92 509.519 1676.74 509.725 1676.57C512.041 1674.7 513 1673.56 513 1671.51C513 1667.8 510.222 1665.11 506 1665.11Z" fill="white" fill-opacity="0.75"/>
<path d="M506 1619C539.114 1619 566 1645.89 566 1679C566 1712.11 539.114 1739 506 1739C472.886 1739 446 1712.11 446 1679C446 1645.89 472.886 1619 506 1619Z" stroke="#808088" stroke-width="4" stroke-linecap="round" stroke-dasharray="8 16"/>
<circle cx="619.074" cy="1626.08" r="3.5" transform="rotate(24.9424 619.074 1626.08)" fill="white" fill-opacity="0.75"/>
<path fill-rule="evenodd" clip-rule="evenodd" d="M631.857 1597.41C628.141 1595.68 624.205 1597.26 622.811 1600.26C621.983 1602.04 619.89 1602.82 618.138 1602.01C616.385 1601.19 615.635 1599.09 616.464 1597.31C619.706 1590.33 628.054 1587.8 634.855 1590.96C641.543 1594.07 645.361 1601.57 641.852 1609.11C639.492 1614.19 635.127 1615.47 632.011 1616.25C631.798 1616.31 631.592 1616.36 631.392 1616.41C628.345 1617.17 626.737 1617.57 625.538 1619.01C624.285 1620.52 622.07 1620.73 620.591 1619.48C619.112 1618.23 618.93 1616 620.183 1614.49C622.979 1611.12 626.946 1610.19 629.573 1609.57C629.867 1609.5 630.143 1609.44 630.4 1609.37C633.29 1608.65 634.641 1608.02 635.505 1606.16C637.068 1602.8 635.685 1599.19 631.857 1597.41Z" fill="white" fill-opacity="0.75"/>
<path d="M651.302 1555.6C681.328 1569.56 694.368 1605.28 680.404 1635.3C666.439 1665.33 630.723 1678.37 600.697 1664.4C570.672 1650.44 557.632 1614.72 571.596 1584.7C585.56 1554.67 621.277 1541.63 651.302 1555.6Z" stroke="#808088" stroke-width="4" stroke-linecap="round" stroke-dasharray="8 16"/>
<path d="M645.713 1706.62L652.641 1702.62L666.641 1726.87C667.746 1728.78 667.09 1731.23 665.177 1732.33V1732.33C663.264 1733.44 660.817 1732.78 659.713 1730.87L645.713 1706.62Z" fill="#C4C4C4"/>
<rect x="643.222" y="1706.31" width="12" height="5" transform="rotate(-30 643.222 1706.31)" fill="#C4C4C4"/>
<path fill-rule="evenodd" clip-rule="evenodd" d="M650.177 1706.35C667.395 1696.41 673.295 1674.4 663.354 1657.18C653.413 1639.96 631.395 1634.06 614.177 1644C596.958 1653.94 591.059 1675.96 601 1693.18C610.941 1710.4 632.958 1716.29 650.177 1706.35ZM647.177 1701.16C661.526 1692.87 666.442 1674.53 658.158 1660.18C649.873 1645.83 631.526 1640.91 617.177 1649.2C602.828 1657.48 597.912 1675.83 606.196 1690.18C614.48 1704.53 632.828 1709.44 647.177 1701.16Z" fill="#A0A0A8"/>
<path d="M956.426 1560.01C834.549 1517.3 781.344 1712.7 887.855 1746.66C994.365 1780.62 1098.88 1609.93 956.426 1560.01Z" fill="white" fill-opacity="0.25"/>
<path d="M872 1540C905.114 1540 932 1566.89 932 1600C932 1633.11 905.114 1660 872 1660C838.886 1660 812 1633.11 812 1600C812 1566.89 838.886 1540 872 1540Z" fill="#A0A0A8"/>
<path d="M872 1540C905.114 1540 932 1566.89 932 1600C932 1633.11 905.114 1660 872 1660C838.886 1660 812 1633.11 812 1600C812 1566.89 838.886 1540 872 1540Z" fill="#A0A0A8"/>
<path d="M872 1543C870.895 1543 870 1543.9 870 1545V1560C870 1561.1 870.895 1562 872 1562C873.105 1562 874 1561.1 874 1560V1545C874 1543.9 873.105 1543 872 1543Z" fill="#606068"/>
<path d="M831 1600C831 1578.03 848.285 1560.09 870 1559.05V1560C870 1561.1 870.895 1562 872 1562C873.105 1562 874 1561.1 874 1560V1559.05C895.715 1560.09 913 1578.03 913 1600C913 1622.64 894.644 1641 872 1641C849.356 1641 831 1622.64 831 1600Z" fill="#808088"/>
<path fill-rule="evenodd" clip-rule="evenodd" d="M868 1585C868 1583.9 868.895 1583 870 1583H874C875.105 1583 876 1583.9 876 1585H878C879.105 1585 880 1585.9 880 1587V1615C880 1616.1 879.105 1617 878 1617H866C864.895 1617 864 1616.1 864 1615V1587C864 1585.9 864.895 1585 866 1585H868ZM872 1591L872 1599H876L872 1611V1603H868L872 1591Z" fill="white" fill-opacity="0.75"/>
<path d="M1008.51 1639.55C1036.32 1657.52 1044.32 1694.69 1026.36 1722.51C1008.39 1750.32 971.217 1758.32 943.401 1740.36C915.585 1722.39 907.587 1685.22 925.553 1657.4C943.519 1629.58 980.691 1621.59 1008.51 1639.55Z" fill="#A0A0A8"/>
<path d="M1008.51 1639.55C1036.32 1657.52 1044.32 1694.69 1026.36 1722.51C1008.39 1750.32 971.217 1758.32 943.401 1740.36C915.585 1722.39 907.587 1685.22 925.553 1657.4C943.519 1629.58 980.691 1621.59 1008.51 1639.55Z" fill="#A0A0A8"/>
<path d="M1006.88 1642.07C1005.95 1641.47 1004.71 1641.74 1004.12 1642.67L995.977 1655.27C995.377 1656.2 995.643 1657.43 996.572 1658.03C997.5 1658.63 998.737 1658.37 999.337 1657.44L1007.48 1644.84C1008.07 1643.91 1007.81 1642.67 1006.88 1642.07Z" fill="#606068"/>
<path d="M941.514 1667.71C953.435 1649.25 977.686 1643.56 996.493 1654.47L995.977 1655.27C995.377 1656.2 995.643 1657.43 996.572 1658.03C997.5 1658.63 998.737 1658.37 999.337 1657.44L999.853 1656.64C1017.53 1669.3 1022.32 1693.74 1010.4 1712.2C998.11 1731.22 972.731 1736.68 953.71 1724.4C934.688 1712.11 929.228 1686.73 941.514 1667.71Z" fill="#808088"/>
<path fill-rule="evenodd" clip-rule="evenodd" d="M980.733 1675.18C981.332 1674.26 982.57 1673.99 983.498 1674.59L986.858 1676.76C987.786 1677.36 988.052 1678.6 987.453 1679.52L989.133 1680.61C990.061 1681.21 990.327 1682.45 989.728 1683.37L974.537 1706.9C973.937 1707.82 972.699 1708.09 971.771 1707.49L961.691 1700.98C960.763 1700.38 960.497 1699.14 961.096 1698.21L976.288 1674.69C976.887 1673.77 978.125 1673.5 979.053 1674.1L980.733 1675.18ZM980.838 1682.39L976.497 1689.11L979.857 1691.28L969.987 1699.19L974.327 1692.47L970.967 1690.3L980.838 1682.39Z" fill="white" fill-opacity="0.75"/>
</g>
<defs>
<clipPath id="clip0_2607_5188">
<rect width="1376" height="1736" fill="white" transform="translate(64 64)"/>
</clipPath>
</defs>
</svg>
