<svg width="712" height="468" viewBox="0 0 712 468" fill="none" xmlns="http://www.w3.org/2000/svg">
<g clip-path="url(#clip0_2492_6411)">
<circle opacity="0.1" cx="356" cy="150" r="150" fill="white"/>
<circle opacity="0.1" cx="256" cy="318" r="150" fill="white"/>
<circle opacity="0.1" cx="456" cy="318" r="150" fill="white"/>
<rect width="139" height="54" rx="14.134" transform="matrix(-1 0 0 1 430 344)" fill="#5ABFA6"/>
<path d="M308.449 365.576H309.761V370.536H316.369V365.576H317.681V377H316.369V371.672H309.761V377H308.449V365.576ZM323.405 368.504C324.589 368.504 325.453 368.808 326.029 369.432C326.509 369.976 326.765 370.728 326.765 371.688V377H325.565V375.608C325.245 376.056 324.813 376.424 324.301 376.712C323.693 377.048 323.005 377.224 322.237 377.224C321.405 377.224 320.749 377.016 320.253 376.6C319.741 376.168 319.485 375.608 319.485 374.936C319.485 373.992 319.853 373.288 320.621 372.808C321.293 372.36 322.253 372.12 323.501 372.104L325.485 372.072V371.64C325.485 370.248 324.765 369.56 323.325 369.56C322.717 369.56 322.221 369.672 321.837 369.928C321.405 370.184 321.133 370.584 321.005 371.112L319.741 371.016C319.917 370.152 320.349 369.496 321.021 369.08C321.629 368.696 322.413 368.504 323.405 368.504ZM325.485 373.032L323.581 373.064C321.725 373.096 320.797 373.704 320.797 374.904C320.797 375.288 320.941 375.592 321.261 375.848C321.581 376.088 321.997 376.216 322.509 376.216C323.293 376.216 323.981 375.96 324.589 375.448C325.181 374.952 325.485 374.376 325.485 373.736V373.032ZM332.374 368.504C332.822 368.504 333.206 368.568 333.51 368.696V369.976C333.094 369.848 332.678 369.8 332.278 369.8C331.638 369.8 331.094 370.072 330.662 370.648C330.214 371.192 330.006 371.848 330.006 372.616V377H328.742V368.728H330.006V370.168C330.23 369.688 330.518 369.304 330.87 369.032C331.302 368.68 331.798 368.504 332.374 368.504ZM340.698 365.352H341.978V377H340.778V375.64C340.202 376.696 339.274 377.224 338.026 377.224C336.81 377.224 335.866 376.776 335.194 375.912C334.57 375.112 334.266 374.088 334.266 372.84C334.266 371.624 334.57 370.632 335.194 369.832C335.866 368.936 336.778 368.504 337.962 368.504C339.146 368.504 340.058 369.08 340.698 370.248V365.352ZM338.234 369.56C337.322 369.56 336.634 369.88 336.186 370.52C335.77 371.08 335.578 371.848 335.578 372.84C335.578 373.832 335.77 374.616 336.17 375.192C336.618 375.832 337.29 376.168 338.186 376.168C339.018 376.168 339.658 375.848 340.122 375.208C340.522 374.632 340.73 373.88 340.73 372.952V372.792C340.73 371.832 340.49 371.048 340.042 370.456C339.578 369.848 338.97 369.56 338.234 369.56ZM343.769 372.312H351.849V373.4H343.769V372.312ZM352.736 365.576H354.208L356.72 375.16H356.784L359.392 365.576H360.816L363.408 375.16H363.472L365.984 365.576H367.456L364.176 377H362.72L360.128 367.48H360.08L357.472 377H356.016L352.736 365.576ZM372.219 368.504C373.451 368.504 374.443 368.92 375.179 369.784C375.883 370.6 376.235 371.624 376.235 372.872C376.235 374.104 375.883 375.128 375.195 375.928C374.443 376.792 373.451 377.224 372.219 377.224C370.971 377.224 369.995 376.792 369.259 375.928C368.555 375.128 368.203 374.104 368.203 372.872C368.203 371.624 368.555 370.6 369.259 369.784C369.995 368.92 370.971 368.504 372.219 368.504ZM372.219 369.576C371.339 369.576 370.651 369.912 370.171 370.584C369.723 371.192 369.515 371.944 369.515 372.872C369.515 373.784 369.723 374.536 370.171 375.144C370.651 375.816 371.339 376.152 372.219 376.152C373.083 376.152 373.771 375.816 374.283 375.144C374.715 374.536 374.939 373.768 374.939 372.872C374.939 371.944 374.715 371.192 374.283 370.584C373.771 369.912 373.083 369.576 372.219 369.576ZM381.53 368.504C381.978 368.504 382.362 368.568 382.666 368.696V369.976C382.25 369.848 381.834 369.8 381.434 369.8C380.794 369.8 380.25 370.072 379.818 370.648C379.37 371.192 379.162 371.848 379.162 372.616V377H377.898V368.728H379.162V370.168C379.386 369.688 379.674 369.304 380.026 369.032C380.458 368.68 380.954 368.504 381.53 368.504ZM383.742 365.352H385.022V372.568L389.166 368.728H390.862L387.214 372.056L391.214 377H389.566L386.334 372.888L385.022 374.072V377H383.742V365.352ZM393.267 365.608C393.539 365.608 393.763 365.688 393.955 365.88C394.147 366.04 394.243 366.264 394.243 366.552C394.243 366.824 394.147 367.048 393.955 367.24C393.763 367.416 393.539 367.512 393.267 367.512C392.995 367.512 392.771 367.416 392.579 367.24C392.387 367.048 392.307 366.824 392.307 366.552C392.307 366.264 392.387 366.04 392.579 365.88C392.771 365.688 392.995 365.608 393.267 365.608ZM392.627 368.728H393.907V377H392.627V368.728ZM400.177 368.504C402.225 368.504 403.265 369.64 403.265 371.912V377H401.985V372.008C401.985 370.392 401.249 369.592 399.809 369.592C399.233 369.592 398.737 369.8 398.321 370.216C397.873 370.664 397.633 371.256 397.585 372.008V377H396.305V368.728H397.585V369.944C397.873 369.48 398.241 369.128 398.689 368.888C399.137 368.632 399.633 368.504 400.177 368.504ZM408.65 368.504C409.898 368.504 410.826 369.048 411.434 370.152V368.728H412.714V376.424C412.714 379.064 411.45 380.392 408.938 380.392C407.818 380.392 406.954 380.168 406.378 379.72C405.786 379.272 405.418 378.6 405.274 377.704H406.554C406.65 378.264 406.89 378.68 407.258 378.936C407.626 379.208 408.186 379.352 408.938 379.352C410.602 379.352 411.434 378.424 411.434 376.6V375.144C410.826 376.248 409.898 376.808 408.65 376.808C407.498 376.808 406.586 376.408 405.914 375.624C405.242 374.856 404.922 373.88 404.922 372.68C404.922 371.464 405.242 370.488 405.914 369.72C406.586 368.904 407.498 368.504 408.65 368.504ZM408.842 369.56C408.01 369.56 407.37 369.848 406.906 370.456C406.458 371 406.234 371.752 406.234 372.68C406.234 373.544 406.426 374.264 406.826 374.808C407.274 375.416 407.93 375.736 408.826 375.736C409.658 375.736 410.298 375.448 410.778 374.872C411.226 374.312 411.45 373.576 411.45 372.68C411.45 371.752 411.226 371 410.778 370.456C410.298 369.848 409.658 369.56 408.842 369.56Z" fill="white" fill-opacity="0.75"/>
<rect width="86" height="54" rx="14.134" transform="matrix(-1 0 0 1 542 290)" fill="#CE7ADC"/>
<path d="M473.457 311.576H478.129C480.753 311.576 482.065 312.696 482.065 314.936C482.065 317.192 480.737 318.328 478.113 318.328H474.769V323H473.457V311.576ZM474.769 312.712V317.192H478.049C478.977 317.192 479.649 317 480.097 316.632C480.529 316.264 480.753 315.704 480.753 314.936C480.753 314.168 480.529 313.608 480.081 313.272C479.633 312.888 478.961 312.712 478.049 312.712H474.769ZM483.818 311.352H485.082V323H483.818V311.352ZM490.928 314.504C492.112 314.504 492.976 314.808 493.552 315.432C494.032 315.976 494.288 316.728 494.288 317.688V323H493.088V321.608C492.768 322.056 492.336 322.424 491.824 322.712C491.216 323.048 490.528 323.224 489.76 323.224C488.928 323.224 488.272 323.016 487.776 322.6C487.264 322.168 487.008 321.608 487.008 320.936C487.008 319.992 487.376 319.288 488.144 318.808C488.816 318.36 489.776 318.12 491.024 318.104L493.008 318.072V317.64C493.008 316.248 492.288 315.56 490.848 315.56C490.24 315.56 489.744 315.672 489.36 315.928C488.928 316.184 488.656 316.584 488.528 317.112L487.264 317.016C487.44 316.152 487.872 315.496 488.544 315.08C489.152 314.696 489.936 314.504 490.928 314.504ZM493.008 319.032L491.104 319.064C489.248 319.096 488.32 319.704 488.32 320.904C488.32 321.288 488.464 321.592 488.784 321.848C489.104 322.088 489.52 322.216 490.032 322.216C490.816 322.216 491.504 321.96 492.112 321.448C492.704 320.952 493.008 320.376 493.008 319.736V319.032ZM495.353 314.728H496.745L499.273 321.256L501.721 314.728H503.129L498.601 326.168H497.209L498.633 322.808L495.353 314.728ZM505.259 311.608C505.531 311.608 505.755 311.688 505.947 311.88C506.139 312.04 506.235 312.264 506.235 312.552C506.235 312.824 506.139 313.048 505.947 313.24C505.755 313.416 505.531 313.512 505.259 313.512C504.987 313.512 504.763 313.416 504.571 313.24C504.379 313.048 504.299 312.824 504.299 312.552C504.299 312.264 504.379 312.04 504.571 311.88C504.763 311.688 504.987 311.608 505.259 311.608ZM504.619 314.728H505.899V323H504.619V314.728ZM512.169 314.504C514.217 314.504 515.257 315.64 515.257 317.912V323H513.977V318.008C513.977 316.392 513.241 315.592 511.801 315.592C511.225 315.592 510.729 315.8 510.313 316.216C509.865 316.664 509.625 317.256 509.577 318.008V323H508.297V314.728H509.577V315.944C509.865 315.48 510.233 315.128 510.681 314.888C511.129 314.632 511.625 314.504 512.169 314.504ZM520.642 314.504C521.89 314.504 522.818 315.048 523.426 316.152V314.728H524.706V322.424C524.706 325.064 523.442 326.392 520.93 326.392C519.81 326.392 518.946 326.168 518.37 325.72C517.778 325.272 517.41 324.6 517.266 323.704H518.546C518.642 324.264 518.882 324.68 519.25 324.936C519.618 325.208 520.178 325.352 520.93 325.352C522.594 325.352 523.426 324.424 523.426 322.6V321.144C522.818 322.248 521.89 322.808 520.642 322.808C519.49 322.808 518.578 322.408 517.906 321.624C517.234 320.856 516.914 319.88 516.914 318.68C516.914 317.464 517.234 316.488 517.906 315.72C518.578 314.904 519.49 314.504 520.642 314.504ZM520.834 315.56C520.002 315.56 519.362 315.848 518.898 316.456C518.45 317 518.226 317.752 518.226 318.68C518.226 319.544 518.418 320.264 518.818 320.808C519.266 321.416 519.922 321.736 520.818 321.736C521.65 321.736 522.29 321.448 522.77 320.872C523.218 320.312 523.442 319.576 523.442 318.68C523.442 317.752 523.218 317 522.77 316.456C522.29 315.848 521.65 315.56 520.834 315.56Z" fill="white" fill-opacity="0.75"/>
<rect width="124" height="54" rx="14.134" transform="matrix(-1 0 0 1 418 87)" fill="#8E6ADA"/>
<path d="M311.605 108.576H316.277C318.901 108.576 320.213 109.696 320.213 111.936C320.213 114.192 318.885 115.328 316.261 115.328H312.917V120H311.605V108.576ZM312.917 109.712V114.192H316.197C317.125 114.192 317.797 114 318.245 113.632C318.677 113.264 318.901 112.704 318.901 111.936C318.901 111.168 318.677 110.608 318.229 110.272C317.781 109.888 317.109 109.712 316.197 109.712H312.917ZM325.119 111.504C326.447 111.504 327.455 111.952 328.127 112.848C328.735 113.648 329.055 114.784 329.087 116.224H322.559C322.623 117.152 322.863 117.872 323.311 118.384C323.759 118.896 324.383 119.152 325.167 119.152C325.839 119.152 326.399 118.976 326.815 118.64C327.167 118.352 327.439 117.92 327.647 117.344H328.927C328.735 118.144 328.367 118.784 327.807 119.296C327.119 119.904 326.239 120.224 325.167 120.224C323.983 120.224 323.023 119.824 322.319 119.056C321.583 118.256 321.231 117.2 321.231 115.856C321.231 114.64 321.567 113.616 322.271 112.8C322.975 111.936 323.919 111.504 325.119 111.504ZM325.151 112.576C324.415 112.576 323.823 112.816 323.375 113.296C322.927 113.776 322.671 114.416 322.591 115.232H327.759C327.599 113.456 326.719 112.576 325.151 112.576ZM334.218 111.504C334.666 111.504 335.05 111.568 335.354 111.696V112.976C334.938 112.848 334.522 112.8 334.122 112.8C333.482 112.8 332.938 113.072 332.506 113.648C332.058 114.192 331.85 114.848 331.85 115.616V120H330.586V111.728H331.85V113.168C332.074 112.688 332.362 112.304 332.714 112.032C333.146 111.68 333.642 111.504 334.218 111.504ZM339.742 108.576H341.326V109.68H339.902C339.549 109.68 339.278 109.76 339.118 109.952C338.958 110.128 338.878 110.416 338.878 110.816V111.728H341.214V112.8H338.878V120H337.598V112.8H335.518V111.728H337.598V110.784C337.598 110.08 337.774 109.552 338.126 109.168C338.494 108.768 339.038 108.576 339.742 108.576ZM345.806 111.504C347.134 111.504 348.142 111.952 348.814 112.848C349.422 113.648 349.742 114.784 349.774 116.224H343.246C343.31 117.152 343.55 117.872 343.998 118.384C344.446 118.896 345.07 119.152 345.854 119.152C346.526 119.152 347.086 118.976 347.502 118.64C347.854 118.352 348.126 117.92 348.334 117.344H349.614C349.422 118.144 349.054 118.784 348.494 119.296C347.806 119.904 346.926 120.224 345.854 120.224C344.67 120.224 343.71 119.824 343.006 119.056C342.27 118.256 341.918 117.2 341.918 115.856C341.918 114.64 342.254 113.616 342.958 112.8C343.662 111.936 344.606 111.504 345.806 111.504ZM345.838 112.576C345.102 112.576 344.51 112.816 344.062 113.296C343.614 113.776 343.358 114.416 343.278 115.232H348.446C348.286 113.456 347.406 112.576 345.838 112.576ZM354.201 111.504C356.249 111.504 357.369 112.352 357.593 114.08H356.345C356.233 113.568 356.025 113.184 355.705 112.96C355.353 112.704 354.841 112.576 354.185 112.576C353.609 112.576 353.161 112.672 352.841 112.896C352.489 113.104 352.313 113.392 352.313 113.76C352.313 114.112 352.537 114.416 353.017 114.656C353.321 114.8 353.897 114.976 354.729 115.2C355.721 115.44 356.425 115.696 356.857 115.968C357.513 116.384 357.849 116.944 357.849 117.664C357.849 119.36 356.681 120.224 354.345 120.224C352.169 120.224 350.985 119.264 350.793 117.36H352.041C352.137 118.016 352.377 118.48 352.729 118.768C353.081 119.024 353.609 119.152 354.313 119.152C355.785 119.152 356.537 118.672 356.537 117.744C356.537 117.28 356.265 116.928 355.753 116.672C355.481 116.544 354.889 116.368 353.993 116.144C353.017 115.904 352.329 115.664 351.945 115.408C351.305 115.024 351.001 114.496 351.001 113.792C351.001 113.088 351.305 112.544 351.929 112.128C352.505 111.712 353.273 111.504 354.201 111.504ZM362.279 111.504C364.327 111.504 365.447 112.352 365.671 114.08H364.423C364.311 113.568 364.103 113.184 363.783 112.96C363.431 112.704 362.919 112.576 362.263 112.576C361.687 112.576 361.239 112.672 360.919 112.896C360.567 113.104 360.391 113.392 360.391 113.76C360.391 114.112 360.615 114.416 361.095 114.656C361.399 114.8 361.975 114.976 362.807 115.2C363.799 115.44 364.503 115.696 364.935 115.968C365.591 116.384 365.927 116.944 365.927 117.664C365.927 119.36 364.759 120.224 362.423 120.224C360.247 120.224 359.063 119.264 358.871 117.36H360.119C360.215 118.016 360.455 118.48 360.807 118.768C361.159 119.024 361.687 119.152 362.391 119.152C363.863 119.152 364.615 118.672 364.615 117.744C364.615 117.28 364.343 116.928 363.831 116.672C363.559 116.544 362.967 116.368 362.071 116.144C361.095 115.904 360.407 115.664 360.023 115.408C359.383 115.024 359.079 114.496 359.079 113.792C359.079 113.088 359.383 112.544 360.007 112.128C360.583 111.712 361.351 111.504 362.279 111.504ZM368.486 108.608C368.758 108.608 368.982 108.688 369.174 108.88C369.366 109.04 369.462 109.264 369.462 109.552C369.462 109.824 369.366 110.048 369.174 110.24C368.982 110.416 368.758 110.512 368.486 110.512C368.214 110.512 367.99 110.416 367.798 110.24C367.606 110.048 367.526 109.824 367.526 109.552C367.526 109.264 367.606 109.04 367.798 108.88C367.99 108.688 368.214 108.608 368.486 108.608ZM367.846 111.728H369.126V120H367.846V111.728ZM375.219 111.504C376.451 111.504 377.443 111.92 378.179 112.784C378.883 113.6 379.235 114.624 379.235 115.872C379.235 117.104 378.883 118.128 378.195 118.928C377.443 119.792 376.451 120.224 375.219 120.224C373.971 120.224 372.995 119.792 372.259 118.928C371.555 118.128 371.203 117.104 371.203 115.872C371.203 114.624 371.555 113.6 372.259 112.784C372.995 111.92 373.971 111.504 375.219 111.504ZM375.219 112.576C374.339 112.576 373.651 112.912 373.171 113.584C372.723 114.192 372.515 114.944 372.515 115.872C372.515 116.784 372.723 117.536 373.171 118.144C373.651 118.816 374.339 119.152 375.219 119.152C376.083 119.152 376.771 118.816 377.283 118.144C377.715 117.536 377.939 116.768 377.939 115.872C377.939 114.944 377.715 114.192 377.283 113.584C376.771 112.912 376.083 112.576 375.219 112.576ZM384.77 111.504C386.818 111.504 387.858 112.64 387.858 114.912V120H386.578V115.008C386.578 113.392 385.842 112.592 384.402 112.592C383.826 112.592 383.33 112.8 382.914 113.216C382.466 113.664 382.226 114.256 382.178 115.008V120H380.898V111.728H382.178V112.944C382.466 112.48 382.834 112.128 383.282 111.888C383.73 111.632 384.226 111.504 384.77 111.504ZM393.436 111.504C394.62 111.504 395.484 111.808 396.06 112.432C396.54 112.976 396.796 113.728 396.796 114.688V120H395.596V118.608C395.276 119.056 394.844 119.424 394.332 119.712C393.724 120.048 393.036 120.224 392.268 120.224C391.436 120.224 390.78 120.016 390.284 119.6C389.772 119.168 389.516 118.608 389.516 117.936C389.516 116.992 389.884 116.288 390.652 115.808C391.324 115.36 392.284 115.12 393.532 115.104L395.516 115.072V114.64C395.516 113.248 394.796 112.56 393.356 112.56C392.748 112.56 392.252 112.672 391.868 112.928C391.436 113.184 391.164 113.584 391.036 114.112L389.772 114.016C389.948 113.152 390.38 112.496 391.052 112.08C391.66 111.696 392.444 111.504 393.436 111.504ZM395.516 116.032L393.612 116.064C391.756 116.096 390.828 116.704 390.828 117.904C390.828 118.288 390.972 118.592 391.292 118.848C391.612 119.088 392.028 119.216 392.54 119.216C393.324 119.216 394.012 118.96 394.62 118.448C395.212 117.952 395.516 117.376 395.516 116.736V116.032ZM399.029 108.352H400.293V120H399.029V108.352Z" fill="white" fill-opacity="0.75"/>
<rect width="119" height="54" rx="14.134" transform="matrix(-1 0 0 1 320 188)" fill="#EF8383"/>
<path d="M223.205 209.352C224.469 209.352 225.541 209.688 226.405 210.36C227.269 211.032 227.781 211.944 227.941 213.08H226.677C226.517 212.248 226.101 211.608 225.461 211.16C224.837 210.728 224.085 210.52 223.189 210.52C221.861 210.52 220.837 210.984 220.117 211.912C219.445 212.776 219.109 213.912 219.109 215.336C219.109 216.76 219.429 217.896 220.101 218.728C220.805 219.608 221.813 220.056 223.157 220.056C224.069 220.056 224.837 219.816 225.477 219.336C226.149 218.824 226.613 218.072 226.837 217.08H228.101C227.845 218.408 227.253 219.448 226.309 220.184C225.429 220.872 224.373 221.224 223.157 221.224C221.381 221.224 220.021 220.632 219.077 219.464C218.213 218.408 217.797 217.032 217.797 215.336C217.797 213.64 218.229 212.248 219.109 211.16C220.069 209.944 221.445 209.352 223.205 209.352ZM229.758 209.352H231.038V214.088C231.326 213.56 231.71 213.16 232.19 212.888C232.638 212.632 233.134 212.504 233.694 212.504C234.654 212.504 235.406 212.776 235.918 213.352C236.43 213.912 236.686 214.728 236.686 215.784V221H235.406V215.976C235.406 215.208 235.214 214.616 234.862 214.2C234.478 213.784 233.95 213.576 233.262 213.576C232.622 213.576 232.094 213.832 231.678 214.344C231.246 214.856 231.038 215.512 231.038 216.28V221H229.758V209.352ZM242.248 212.504C243.432 212.504 244.296 212.808 244.872 213.432C245.352 213.976 245.608 214.728 245.608 215.688V221H244.408V219.608C244.088 220.056 243.656 220.424 243.144 220.712C242.536 221.048 241.848 221.224 241.08 221.224C240.248 221.224 239.592 221.016 239.096 220.6C238.584 220.168 238.328 219.608 238.328 218.936C238.328 217.992 238.696 217.288 239.464 216.808C240.136 216.36 241.096 216.12 242.344 216.104L244.328 216.072V215.64C244.328 214.248 243.608 213.56 242.168 213.56C241.56 213.56 241.064 213.672 240.68 213.928C240.248 214.184 239.976 214.584 239.848 215.112L238.584 215.016C238.76 214.152 239.192 213.496 239.864 213.08C240.472 212.696 241.256 212.504 242.248 212.504ZM244.328 217.032L242.424 217.064C240.568 217.096 239.64 217.704 239.64 218.904C239.64 219.288 239.784 219.592 240.104 219.848C240.424 220.088 240.84 220.216 241.352 220.216C242.136 220.216 242.824 219.96 243.432 219.448C244.024 218.952 244.328 218.376 244.328 217.736V217.032ZM247.842 209.352H249.106V221H247.842V209.352ZM251.607 209.352H252.871V221H251.607V209.352ZM258.525 212.504C259.853 212.504 260.861 212.952 261.533 213.848C262.141 214.648 262.461 215.784 262.493 217.224H255.965C256.029 218.152 256.269 218.872 256.717 219.384C257.165 219.896 257.789 220.152 258.573 220.152C259.245 220.152 259.805 219.976 260.221 219.64C260.573 219.352 260.845 218.92 261.053 218.344H262.333C262.141 219.144 261.773 219.784 261.213 220.296C260.525 220.904 259.645 221.224 258.573 221.224C257.389 221.224 256.429 220.824 255.725 220.056C254.989 219.256 254.637 218.2 254.637 216.856C254.637 215.64 254.973 214.616 255.677 213.8C256.381 212.936 257.325 212.504 258.525 212.504ZM258.557 213.576C257.821 213.576 257.229 213.816 256.781 214.296C256.333 214.776 256.077 215.416 255.997 216.232H261.165C261.005 214.456 260.125 213.576 258.557 213.576ZM267.864 212.504C269.912 212.504 270.952 213.64 270.952 215.912V221H269.672V216.008C269.672 214.392 268.936 213.592 267.496 213.592C266.92 213.592 266.424 213.8 266.008 214.216C265.56 214.664 265.32 215.256 265.272 216.008V221H263.992V212.728H265.272V213.944C265.56 213.48 265.928 213.128 266.376 212.888C266.824 212.632 267.32 212.504 267.864 212.504ZM276.338 212.504C277.586 212.504 278.514 213.048 279.122 214.152V212.728H280.402V220.424C280.402 223.064 279.138 224.392 276.626 224.392C275.506 224.392 274.642 224.168 274.066 223.72C273.474 223.272 273.106 222.6 272.962 221.704H274.242C274.338 222.264 274.578 222.68 274.946 222.936C275.314 223.208 275.874 223.352 276.626 223.352C278.29 223.352 279.122 222.424 279.122 220.6V219.144C278.514 220.248 277.586 220.808 276.338 220.808C275.186 220.808 274.274 220.408 273.602 219.624C272.93 218.856 272.61 217.88 272.61 216.68C272.61 215.464 272.93 214.488 273.602 213.72C274.274 212.904 275.186 212.504 276.338 212.504ZM276.53 213.56C275.698 213.56 275.058 213.848 274.594 214.456C274.146 215 273.922 215.752 273.922 216.68C273.922 217.544 274.114 218.264 274.514 218.808C274.962 219.416 275.618 219.736 276.514 219.736C277.346 219.736 277.986 219.448 278.466 218.872C278.914 218.312 279.138 217.576 279.138 216.68C279.138 215.752 278.914 215 278.466 214.456C277.986 213.848 277.346 213.56 276.53 213.56ZM283.439 209.608C283.711 209.608 283.935 209.688 284.127 209.88C284.319 210.04 284.415 210.264 284.415 210.552C284.415 210.824 284.319 211.048 284.127 211.24C283.935 211.416 283.711 211.512 283.439 211.512C283.167 211.512 282.943 211.416 282.751 211.24C282.559 211.048 282.479 210.824 282.479 210.552C282.479 210.264 282.559 210.04 282.751 209.88C282.943 209.688 283.167 209.608 283.439 209.608ZM282.799 212.728H284.079V221H282.799V212.728ZM290.348 212.504C292.396 212.504 293.436 213.64 293.436 215.912V221H292.156V216.008C292.156 214.392 291.42 213.592 289.98 213.592C289.404 213.592 288.908 213.8 288.492 214.216C288.044 214.664 287.804 215.256 287.756 216.008V221H286.476V212.728H287.756V213.944C288.044 213.48 288.412 213.128 288.86 212.888C289.308 212.632 289.804 212.504 290.348 212.504ZM298.822 212.504C300.07 212.504 300.998 213.048 301.606 214.152V212.728H302.886V220.424C302.886 223.064 301.622 224.392 299.11 224.392C297.99 224.392 297.126 224.168 296.55 223.72C295.958 223.272 295.59 222.6 295.446 221.704H296.726C296.822 222.264 297.062 222.68 297.43 222.936C297.798 223.208 298.358 223.352 299.11 223.352C300.774 223.352 301.606 222.424 301.606 220.6V219.144C300.998 220.248 300.07 220.808 298.822 220.808C297.67 220.808 296.758 220.408 296.086 219.624C295.414 218.856 295.094 217.88 295.094 216.68C295.094 215.464 295.414 214.488 296.086 213.72C296.758 212.904 297.67 212.504 298.822 212.504ZM299.014 213.56C298.182 213.56 297.542 213.848 297.078 214.456C296.63 215 296.406 215.752 296.406 216.68C296.406 217.544 296.598 218.264 296.998 218.808C297.446 219.416 298.102 219.736 298.998 219.736C299.83 219.736 300.47 219.448 300.95 218.872C301.398 218.312 301.622 217.576 301.622 216.68C301.622 215.752 301.398 215 300.95 214.456C300.47 213.848 299.83 213.56 299.014 213.56Z" fill="white" fill-opacity="0.75"/>
<path d="M298.425 41.576H303.097C305.721 41.576 307.033 42.696 307.033 44.936C307.033 47.192 305.705 48.328 303.081 48.328H299.737V53H298.425V41.576ZM299.737 42.712V47.192H303.017C303.945 47.192 304.617 47 305.065 46.632C305.497 46.264 305.721 45.704 305.721 44.936C305.721 44.168 305.497 43.608 305.049 43.272C304.601 42.888 303.929 42.712 303.017 42.712H299.737ZM312.163 44.504C312.611 44.504 312.995 44.568 313.299 44.696V45.976C312.883 45.848 312.467 45.8 312.067 45.8C311.427 45.8 310.883 46.072 310.451 46.648C310.003 47.192 309.795 47.848 309.795 48.616V53H308.531V44.728H309.795V46.168C310.019 45.688 310.307 45.304 310.659 45.032C311.091 44.68 311.587 44.504 312.163 44.504ZM318.071 44.504C319.303 44.504 320.295 44.92 321.031 45.784C321.735 46.6 322.087 47.624 322.087 48.872C322.087 50.104 321.735 51.128 321.047 51.928C320.295 52.792 319.303 53.224 318.071 53.224C316.823 53.224 315.847 52.792 315.111 51.928C314.407 51.128 314.055 50.104 314.055 48.872C314.055 47.624 314.407 46.6 315.111 45.784C315.847 44.92 316.823 44.504 318.071 44.504ZM318.071 45.576C317.191 45.576 316.503 45.912 316.023 46.584C315.575 47.192 315.367 47.944 315.367 48.872C315.367 49.784 315.575 50.536 316.023 51.144C316.503 51.816 317.191 52.152 318.071 52.152C318.935 52.152 319.623 51.816 320.135 51.144C320.567 50.536 320.791 49.768 320.791 48.872C320.791 47.944 320.567 47.192 320.135 46.584C319.623 45.912 318.935 45.576 318.071 45.576ZM327.062 41.576H328.646V42.68H327.222C326.87 42.68 326.598 42.76 326.438 42.952C326.278 43.128 326.198 43.416 326.198 43.816V44.728H328.534V45.8H326.198V53H324.918V45.8H322.838V44.728H324.918V43.784C324.918 43.08 325.094 42.552 325.446 42.168C325.814 41.768 326.358 41.576 327.062 41.576ZM333.127 44.504C334.455 44.504 335.463 44.952 336.135 45.848C336.743 46.648 337.063 47.784 337.095 49.224H330.567C330.631 50.152 330.871 50.872 331.319 51.384C331.767 51.896 332.391 52.152 333.175 52.152C333.847 52.152 334.407 51.976 334.823 51.64C335.175 51.352 335.447 50.92 335.655 50.344H336.935C336.743 51.144 336.375 51.784 335.815 52.296C335.127 52.904 334.247 53.224 333.175 53.224C331.991 53.224 331.031 52.824 330.327 52.056C329.591 51.256 329.239 50.2 329.239 48.856C329.239 47.64 329.575 46.616 330.279 45.8C330.983 44.936 331.927 44.504 333.127 44.504ZM333.159 45.576C332.423 45.576 331.831 45.816 331.383 46.296C330.935 46.776 330.679 47.416 330.599 48.232H335.767C335.607 46.456 334.727 45.576 333.159 45.576ZM341.522 44.504C343.57 44.504 344.69 45.352 344.914 47.08H343.666C343.554 46.568 343.346 46.184 343.026 45.96C342.674 45.704 342.162 45.576 341.506 45.576C340.93 45.576 340.482 45.672 340.162 45.896C339.81 46.104 339.634 46.392 339.634 46.76C339.634 47.112 339.858 47.416 340.338 47.656C340.642 47.8 341.218 47.976 342.05 48.2C343.042 48.44 343.746 48.696 344.178 48.968C344.834 49.384 345.17 49.944 345.17 50.664C345.17 52.36 344.002 53.224 341.666 53.224C339.49 53.224 338.306 52.264 338.114 50.36H339.362C339.458 51.016 339.698 51.48 340.05 51.768C340.402 52.024 340.93 52.152 341.634 52.152C343.106 52.152 343.858 51.672 343.858 50.744C343.858 50.28 343.586 49.928 343.074 49.672C342.802 49.544 342.21 49.368 341.314 49.144C340.338 48.904 339.65 48.664 339.266 48.408C338.626 48.024 338.322 47.496 338.322 46.792C338.322 46.088 338.626 45.544 339.25 45.128C339.826 44.712 340.594 44.504 341.522 44.504ZM349.6 44.504C351.648 44.504 352.768 45.352 352.992 47.08H351.744C351.632 46.568 351.424 46.184 351.104 45.96C350.752 45.704 350.24 45.576 349.584 45.576C349.008 45.576 348.56 45.672 348.24 45.896C347.888 46.104 347.712 46.392 347.712 46.76C347.712 47.112 347.936 47.416 348.416 47.656C348.72 47.8 349.296 47.976 350.128 48.2C351.12 48.44 351.824 48.696 352.256 48.968C352.912 49.384 353.248 49.944 353.248 50.664C353.248 52.36 352.08 53.224 349.744 53.224C347.568 53.224 346.384 52.264 346.192 50.36H347.44C347.536 51.016 347.776 51.48 348.128 51.768C348.48 52.024 349.008 52.152 349.712 52.152C351.184 52.152 351.936 51.672 351.936 50.744C351.936 50.28 351.664 49.928 351.152 49.672C350.88 49.544 350.288 49.368 349.392 49.144C348.416 48.904 347.728 48.664 347.344 48.408C346.704 48.024 346.4 47.496 346.4 46.792C346.4 46.088 346.704 45.544 347.328 45.128C347.904 44.712 348.672 44.504 349.6 44.504ZM355.806 41.608C356.078 41.608 356.302 41.688 356.494 41.88C356.686 42.04 356.782 42.264 356.782 42.552C356.782 42.824 356.686 43.048 356.494 43.24C356.302 43.416 356.078 43.512 355.806 43.512C355.534 43.512 355.31 43.416 355.118 43.24C354.926 43.048 354.846 42.824 354.846 42.552C354.846 42.264 354.926 42.04 355.118 41.88C355.31 41.688 355.534 41.608 355.806 41.608ZM355.166 44.728H356.446V53H355.166V44.728ZM362.54 44.504C363.772 44.504 364.764 44.92 365.5 45.784C366.204 46.6 366.556 47.624 366.556 48.872C366.556 50.104 366.204 51.128 365.516 51.928C364.764 52.792 363.772 53.224 362.54 53.224C361.292 53.224 360.316 52.792 359.58 51.928C358.876 51.128 358.524 50.104 358.524 48.872C358.524 47.624 358.876 46.6 359.58 45.784C360.316 44.92 361.292 44.504 362.54 44.504ZM362.54 45.576C361.66 45.576 360.972 45.912 360.492 46.584C360.044 47.192 359.836 47.944 359.836 48.872C359.836 49.784 360.044 50.536 360.492 51.144C360.972 51.816 361.66 52.152 362.54 52.152C363.404 52.152 364.092 51.816 364.604 51.144C365.036 50.536 365.26 49.768 365.26 48.872C365.26 47.944 365.036 47.192 364.604 46.584C364.092 45.912 363.404 45.576 362.54 45.576ZM372.091 44.504C374.139 44.504 375.179 45.64 375.179 47.912V53H373.899V48.008C373.899 46.392 373.163 45.592 371.723 45.592C371.147 45.592 370.651 45.8 370.235 46.216C369.787 46.664 369.547 47.256 369.499 48.008V53H368.219V44.728H369.499V45.944C369.787 45.48 370.155 45.128 370.603 44.888C371.051 44.632 371.547 44.504 372.091 44.504ZM380.756 44.504C381.94 44.504 382.804 44.808 383.38 45.432C383.86 45.976 384.116 46.728 384.116 47.688V53H382.916V51.608C382.596 52.056 382.164 52.424 381.652 52.712C381.044 53.048 380.356 53.224 379.588 53.224C378.756 53.224 378.1 53.016 377.604 52.6C377.092 52.168 376.836 51.608 376.836 50.936C376.836 49.992 377.204 49.288 377.972 48.808C378.644 48.36 379.604 48.12 380.852 48.104L382.836 48.072V47.64C382.836 46.248 382.116 45.56 380.676 45.56C380.068 45.56 379.572 45.672 379.188 45.928C378.756 46.184 378.484 46.584 378.356 47.112L377.092 47.016C377.268 46.152 377.7 45.496 378.372 45.08C378.98 44.696 379.764 44.504 380.756 44.504ZM382.836 49.032L380.932 49.064C379.076 49.096 378.148 49.704 378.148 50.904C378.148 51.288 378.292 51.592 378.612 51.848C378.932 52.088 379.348 52.216 379.86 52.216C380.644 52.216 381.332 51.96 381.94 51.448C382.532 50.952 382.836 50.376 382.836 49.736V49.032ZM386.35 41.352H387.614V53H386.35V41.352ZM390.915 41.608C391.187 41.608 391.411 41.688 391.603 41.88C391.795 42.04 391.891 42.264 391.891 42.552C391.891 42.824 391.795 43.048 391.603 43.24C391.411 43.416 391.187 43.512 390.915 43.512C390.643 43.512 390.419 43.416 390.227 43.24C390.035 43.048 389.955 42.824 389.955 42.552C389.955 42.264 390.035 42.04 390.227 41.88C390.419 41.688 390.643 41.608 390.915 41.608ZM390.275 44.728H391.555V53H390.275V44.728ZM396.881 44.504C398.929 44.504 400.049 45.352 400.273 47.08H399.025C398.913 46.568 398.705 46.184 398.385 45.96C398.033 45.704 397.521 45.576 396.865 45.576C396.289 45.576 395.841 45.672 395.521 45.896C395.169 46.104 394.993 46.392 394.993 46.76C394.993 47.112 395.217 47.416 395.697 47.656C396.001 47.8 396.577 47.976 397.409 48.2C398.401 48.44 399.105 48.696 399.537 48.968C400.193 49.384 400.529 49.944 400.529 50.664C400.529 52.36 399.361 53.224 397.025 53.224C394.849 53.224 393.665 52.264 393.473 50.36H394.721C394.817 51.016 395.057 51.48 395.409 51.768C395.761 52.024 396.289 52.152 396.993 52.152C398.465 52.152 399.217 51.672 399.217 50.744C399.217 50.28 398.945 49.928 398.433 49.672C398.161 49.544 397.569 49.368 396.673 49.144C395.697 48.904 395.009 48.664 394.625 48.408C393.985 48.024 393.681 47.496 393.681 46.792C393.681 46.088 393.985 45.544 394.609 45.128C395.185 44.712 395.953 44.504 396.881 44.504ZM405.647 44.504C406.911 44.504 407.775 45.016 408.239 46.072C408.559 45.528 408.943 45.128 409.391 44.888C409.791 44.632 410.271 44.504 410.847 44.504C411.711 44.504 412.399 44.776 412.943 45.32C413.455 45.88 413.727 46.632 413.727 47.576V53H412.447V47.784C412.447 47.048 412.287 46.504 411.983 46.152C411.663 45.768 411.151 45.592 410.447 45.592C409.903 45.592 409.439 45.784 409.087 46.2C408.703 46.616 408.527 47.144 408.527 47.816V53H407.247V47.784C407.247 46.312 406.607 45.592 405.343 45.592C404.751 45.592 404.271 45.816 403.887 46.296C403.503 46.744 403.311 47.304 403.311 47.96V53H402.031V44.728H403.311V45.832C403.935 44.936 404.719 44.504 405.647 44.504Z" fill="white"/>
<path d="M483.324 375.576H490.972V376.712H484.636V380.552H490.636V381.688H484.636V387H483.324V375.576ZM492.398 378.728H493.678V383.784C493.678 384.568 493.838 385.16 494.174 385.544C494.51 385.928 495.054 386.136 495.806 386.136C496.35 386.136 496.846 385.912 497.278 385.496C497.726 385.048 497.998 384.472 498.094 383.768V378.728H499.374V387H498.094V385.72C497.422 386.712 496.526 387.224 495.406 387.224C493.39 387.224 492.398 386.088 492.398 383.848V378.728ZM505.223 378.504C507.271 378.504 508.311 379.64 508.311 381.912V387H507.031V382.008C507.031 380.392 506.295 379.592 504.855 379.592C504.279 379.592 503.783 379.8 503.367 380.216C502.919 380.664 502.679 381.256 502.631 382.008V387H501.351V378.728H502.631V379.944C502.919 379.48 503.287 379.128 503.735 378.888C504.183 378.632 504.679 378.504 505.223 378.504ZM510.289 375.352H511.569V382.568L515.713 378.728H517.409L513.761 382.056L517.761 387H516.113L512.881 382.888L511.569 384.072V387H510.289V375.352ZM519.814 375.608C520.086 375.608 520.31 375.688 520.502 375.88C520.694 376.04 520.79 376.264 520.79 376.552C520.79 376.824 520.694 377.048 520.502 377.24C520.31 377.416 520.086 377.512 519.814 377.512C519.542 377.512 519.318 377.416 519.126 377.24C518.934 377.048 518.854 376.824 518.854 376.552C518.854 376.264 518.934 376.04 519.126 375.88C519.318 375.688 519.542 375.608 519.814 375.608ZM519.174 378.728H520.454V387H519.174V378.728ZM526.723 378.504C528.771 378.504 529.811 379.64 529.811 381.912V387H528.531V382.008C528.531 380.392 527.795 379.592 526.355 379.592C525.779 379.592 525.283 379.8 524.867 380.216C524.419 380.664 524.179 381.256 524.131 382.008V387H522.851V378.728H524.131V379.944C524.419 379.48 524.787 379.128 525.235 378.888C525.683 378.632 526.179 378.504 526.723 378.504ZM535.197 378.504C536.525 378.504 537.533 378.952 538.205 379.848C538.813 380.648 539.133 381.784 539.165 383.224H532.637C532.701 384.152 532.941 384.872 533.389 385.384C533.837 385.896 534.461 386.152 535.245 386.152C535.917 386.152 536.477 385.976 536.893 385.64C537.245 385.352 537.517 384.92 537.725 384.344H539.005C538.813 385.144 538.445 385.784 537.885 386.296C537.197 386.904 536.317 387.224 535.245 387.224C534.061 387.224 533.101 386.824 532.397 386.056C531.661 385.256 531.309 384.2 531.309 382.856C531.309 381.64 531.645 380.616 532.349 379.8C533.053 378.936 533.997 378.504 535.197 378.504ZM535.229 379.576C534.493 379.576 533.901 379.816 533.453 380.296C533.005 380.776 532.749 381.416 532.669 382.232H537.837C537.677 380.456 536.797 379.576 535.229 379.576ZM543.592 378.504C545.64 378.504 546.76 379.352 546.984 381.08H545.736C545.624 380.568 545.416 380.184 545.096 379.96C544.744 379.704 544.232 379.576 543.576 379.576C543 379.576 542.552 379.672 542.232 379.896C541.88 380.104 541.704 380.392 541.704 380.76C541.704 381.112 541.928 381.416 542.408 381.656C542.712 381.8 543.288 381.976 544.12 382.2C545.112 382.44 545.816 382.696 546.248 382.968C546.904 383.384 547.24 383.944 547.24 384.664C547.24 386.36 546.072 387.224 543.736 387.224C541.56 387.224 540.376 386.264 540.184 384.36H541.432C541.528 385.016 541.768 385.48 542.12 385.768C542.472 386.024 543 386.152 543.704 386.152C545.176 386.152 545.928 385.672 545.928 384.744C545.928 384.28 545.656 383.928 545.144 383.672C544.872 383.544 544.28 383.368 543.384 383.144C542.408 382.904 541.72 382.664 541.336 382.408C540.696 382.024 540.392 381.496 540.392 380.792C540.392 380.088 540.696 379.544 541.32 379.128C541.896 378.712 542.664 378.504 543.592 378.504ZM551.67 378.504C553.718 378.504 554.838 379.352 555.062 381.08H553.814C553.702 380.568 553.494 380.184 553.174 379.96C552.822 379.704 552.31 379.576 551.654 379.576C551.078 379.576 550.63 379.672 550.31 379.896C549.958 380.104 549.782 380.392 549.782 380.76C549.782 381.112 550.006 381.416 550.486 381.656C550.79 381.8 551.366 381.976 552.198 382.2C553.19 382.44 553.894 382.696 554.326 382.968C554.982 383.384 555.318 383.944 555.318 384.664C555.318 386.36 554.15 387.224 551.814 387.224C549.638 387.224 548.454 386.264 548.262 384.36H549.51C549.606 385.016 549.846 385.48 550.198 385.768C550.55 386.024 551.078 386.152 551.782 386.152C553.254 386.152 554.006 385.672 554.006 384.744C554.006 384.28 553.734 383.928 553.222 383.672C552.95 383.544 552.358 383.368 551.462 383.144C550.486 382.904 549.798 382.664 549.414 382.408C548.774 382.024 548.47 381.496 548.47 380.792C548.47 380.088 548.774 379.544 549.398 379.128C549.974 378.712 550.742 378.504 551.67 378.504Z" fill="white"/>
<path d="M156.342 375.576H157.638V387H156.342V375.576ZM163.755 378.504C165.803 378.504 166.843 379.64 166.843 381.912V387H165.563V382.008C165.563 380.392 164.827 379.592 163.387 379.592C162.811 379.592 162.315 379.8 161.899 380.216C161.451 380.664 161.211 381.256 161.163 382.008V387H159.883V378.728H161.163V379.944C161.451 379.48 161.819 379.128 162.267 378.888C162.715 378.632 163.211 378.504 163.755 378.504ZM171.028 376.056V378.728H173.076V379.8H171.028V385.064C171.028 385.368 171.076 385.592 171.204 385.72C171.316 385.848 171.524 385.928 171.812 385.928H172.868V387H171.62C170.948 387 170.452 386.824 170.164 386.472C169.892 386.152 169.764 385.688 169.764 385.064V379.8H168.1V378.728H169.764V376.584L171.028 376.056ZM177.916 378.504C179.244 378.504 180.252 378.952 180.924 379.848C181.532 380.648 181.852 381.784 181.884 383.224H175.356C175.42 384.152 175.66 384.872 176.108 385.384C176.556 385.896 177.18 386.152 177.964 386.152C178.636 386.152 179.196 385.976 179.612 385.64C179.964 385.352 180.236 384.92 180.444 384.344H181.724C181.532 385.144 181.164 385.784 180.604 386.296C179.916 386.904 179.036 387.224 177.964 387.224C176.78 387.224 175.82 386.824 175.116 386.056C174.38 385.256 174.028 384.2 174.028 382.856C174.028 381.64 174.364 380.616 175.068 379.8C175.772 378.936 176.716 378.504 177.916 378.504ZM177.948 379.576C177.212 379.576 176.62 379.816 176.172 380.296C175.724 380.776 175.468 381.416 175.388 382.232H180.556C180.396 380.456 179.516 379.576 177.948 379.576ZM183.639 375.352H184.903V387H183.639V375.352ZM187.404 375.352H188.668V387H187.404V375.352ZM191.97 375.608C192.242 375.608 192.466 375.688 192.658 375.88C192.85 376.04 192.946 376.264 192.946 376.552C192.946 376.824 192.85 377.048 192.658 377.24C192.466 377.416 192.242 377.512 191.97 377.512C191.698 377.512 191.474 377.416 191.282 377.24C191.09 377.048 191.01 376.824 191.01 376.552C191.01 376.264 191.09 376.04 191.282 375.88C191.474 375.688 191.698 375.608 191.97 375.608ZM191.33 378.728H192.61V387H191.33V378.728ZM198.416 378.504C199.664 378.504 200.592 379.048 201.2 380.152V378.728H202.48V386.424C202.48 389.064 201.216 390.392 198.704 390.392C197.584 390.392 196.72 390.168 196.144 389.72C195.552 389.272 195.184 388.6 195.04 387.704H196.32C196.416 388.264 196.656 388.68 197.024 388.936C197.392 389.208 197.952 389.352 198.704 389.352C200.368 389.352 201.2 388.424 201.2 386.6V385.144C200.592 386.248 199.664 386.808 198.416 386.808C197.264 386.808 196.352 386.408 195.68 385.624C195.008 384.856 194.688 383.88 194.688 382.68C194.688 381.464 195.008 380.488 195.68 379.72C196.352 378.904 197.264 378.504 198.416 378.504ZM198.608 379.56C197.776 379.56 197.136 379.848 196.672 380.456C196.224 381 196 381.752 196 382.68C196 383.544 196.192 384.264 196.592 384.808C197.04 385.416 197.696 385.736 198.592 385.736C199.424 385.736 200.064 385.448 200.544 384.872C200.992 384.312 201.216 383.576 201.216 382.68C201.216 381.752 200.992 381 200.544 380.456C200.064 379.848 199.424 379.56 198.608 379.56ZM207.869 378.504C209.197 378.504 210.205 378.952 210.877 379.848C211.485 380.648 211.805 381.784 211.837 383.224H205.309C205.373 384.152 205.613 384.872 206.061 385.384C206.509 385.896 207.133 386.152 207.917 386.152C208.589 386.152 209.149 385.976 209.565 385.64C209.917 385.352 210.189 384.92 210.397 384.344H211.677C211.485 385.144 211.117 385.784 210.557 386.296C209.869 386.904 208.989 387.224 207.917 387.224C206.733 387.224 205.773 386.824 205.069 386.056C204.333 385.256 203.981 384.2 203.981 382.856C203.981 381.64 204.317 380.616 205.021 379.8C205.725 378.936 206.669 378.504 207.869 378.504ZM207.901 379.576C207.165 379.576 206.573 379.816 206.125 380.296C205.677 380.776 205.421 381.416 205.341 382.232H210.509C210.349 380.456 209.469 379.576 207.901 379.576ZM217.208 378.504C219.256 378.504 220.296 379.64 220.296 381.912V387H219.016V382.008C219.016 380.392 218.28 379.592 216.84 379.592C216.264 379.592 215.768 379.8 215.352 380.216C214.904 380.664 214.664 381.256 214.616 382.008V387H213.336V378.728H214.616V379.944C214.904 379.48 215.272 379.128 215.72 378.888C216.168 378.632 216.664 378.504 217.208 378.504ZM225.841 378.504C226.865 378.504 227.681 378.744 228.305 379.224C228.945 379.72 229.329 380.472 229.473 381.48H228.209C228.097 380.84 227.841 380.36 227.441 380.04C227.025 379.72 226.497 379.576 225.841 379.576C225.041 379.576 224.401 379.88 223.937 380.488C223.489 381.08 223.265 381.88 223.265 382.888C223.265 383.896 223.473 384.696 223.921 385.272C224.353 385.848 224.993 386.152 225.825 386.152C227.233 386.152 228.049 385.432 228.241 384.008H229.521C229.329 385.064 228.929 385.88 228.289 386.424C227.665 386.952 226.849 387.224 225.825 387.224C224.577 387.224 223.617 386.808 222.929 385.976C222.273 385.192 221.953 384.168 221.953 382.904C221.953 381.64 222.273 380.616 222.929 379.816C223.633 378.936 224.609 378.504 225.841 378.504ZM234.431 378.504C235.759 378.504 236.767 378.952 237.439 379.848C238.047 380.648 238.367 381.784 238.399 383.224H231.871C231.935 384.152 232.175 384.872 232.623 385.384C233.071 385.896 233.695 386.152 234.479 386.152C235.151 386.152 235.711 385.976 236.127 385.64C236.479 385.352 236.751 384.92 236.959 384.344H238.239C238.047 385.144 237.679 385.784 237.119 386.296C236.431 386.904 235.551 387.224 234.479 387.224C233.295 387.224 232.335 386.824 231.631 386.056C230.895 385.256 230.543 384.2 230.543 382.856C230.543 381.64 230.879 380.616 231.583 379.8C232.287 378.936 233.231 378.504 234.431 378.504ZM234.463 379.576C233.727 379.576 233.135 379.816 232.687 380.296C232.239 380.776 231.983 381.416 231.903 382.232H237.071C236.911 380.456 236.031 379.576 234.463 379.576Z" fill="white"/>
</g>
<defs>
<clipPath id="clip0_2492_6411">
<rect width="500" height="468" fill="white" transform="matrix(-1 0 0 1 606 0)"/>
</clipPath>
</defs>
</svg>
