<svg width="160" height="80" viewBox="0 0 160 80" fill="none" xmlns="http://www.w3.org/2000/svg">
<rect x="16" y="6" width="40" height="4" fill="#E0E0E8"/>
<rect x="34" width="4" height="16" fill="#E0E0E8"/>
<rect x="34" y="60" width="4" height="20" fill="#E0E0E8"/>
<path d="M16 64H20V76C20 78.2091 18.2091 80 16 80V80V64Z" fill="#E0E0E8"/>
<path d="M52 64H56V80V80C53.7909 80 52 78.2091 52 76V64Z" fill="#E0E0E8"/>
<rect y="6" width="4" height="74" fill="#E0E0E8"/>
<path d="M8 6H12V49C12 51.2091 10.2091 53 8 53V53V6Z" fill="#E0E0E8"/>
<path d="M68 6H108V6C108 8.20914 106.209 10 104 10H68V6Z" fill="#E0E0E8"/>
<rect x="120" y="6" width="40" height="4" fill="#E0E0E8"/>
<rect x="138" width="4" height="16" fill="#E0E0E8"/>
<rect x="138" y="60" width="4" height="20" fill="#E0E0E8"/>
<path d="M120 64H124V76C124 78.2091 122.209 80 120 80V80V64Z" fill="#E0E0E8"/>
<path d="M156 64H160V80V80C157.791 80 156 78.2091 156 76V64Z" fill="#E0E0E8"/>
<path d="M86 60H90V76C90 78.2091 88.2091 80 86 80V80V60Z" fill="#E0E0E8"/>
<path d="M103 6L92 16H96L104.422 11.7889C106.615 10.6925 108 8.45146 108 6H103Z" fill="#E0E0E8"/>
</svg>
